{
.appVersion = "3151";
.formatVersion = 3;
axes = (
{
name = Weight;
tag = wght;
},
{
name = Width;
tag = wdth;
},
{
name = Slant;
tag = slnt;
}
);
classes = (
{
code = "zero one two three four five six seven eight nine ";
name = Num;
},
{
code = "zero.canadian one.canadian two.canadian three.canadian four.canadian five.canadian six.canadian seven.canadian eight.canadian nine.canadian 
";
name = Num_can;
},
{

glyphs = (
{
glyphname = idotless;
lastChange = "2023-01-13 15:28:10 +0000";
layers = (
{
layerId = "2974A4AB-0281-4EAC-B7D6-9B88228DB59B";
shapes = (
{
closed = 1;
nodes = (
(120,534,l),
(57,534,l),
(57,0,l),
(120,0,l)
);
}
);
width = 177;
}
);
note = dotlessi;
unicode = 305;
},
{
glyphname = "acuteFinal-canadian";
lastChange = "2023-01-13 15:31:40 +0000";
layers = (
{
layerId = "2974A4AB-0281-4EAC-B7D6-9B88228DB59B";
shapes = (
{
closed = 1;
nodes = (
(80,357,l),
(204,714,l),
(154,714,l),
(30,357,l)
);
}
);
width = 234;
}
);
metricRight = "=|";
note = uni141F;
unicode = 5151;
},
{
glyphname = "graveFinal-canadian";
kernLeft = mwestleft;
kernRight = mwestright;
lastChange = "2023-01-13 15:31:40 +0000";
layers = (
{
layerId = "2974A4AB-0281-4EAC-B7D6-9B88228DB59B";
shapes = (
{
closed = 1;
nodes = (
(204,357,l),
(80,714,l),
(30,714,l),
(154,357,l)
);
}
);
width = 234;
}
);
metricLeft = "=|acuteFinal-canadian";
metricRight = "=|acuteFinal-canadian";
note = uni1420;
unicode = 5152;
},
{
glyphname = "ringBottomhalfFinal-canadian";
kernLeft = mwestleft;
kernRight = mwestright;
lastChange = "2023-01-13 15:28:10 +0000";
layers = (
{
layerId = "2974A4AB-0281-4EAC-B7D6-9B88228DB59B";
shapes = (
{
closed = 1;
nodes = (
(236,351,o),
(277,398,o),
(277,490,cs),
(277,714,l),
(232,714,l),
(232,487,ls),
(232,421,o),
(211,393,o),
(165,393,cs),
(119,393,o),
(97,422,o),
(97,486,cs),
(97,714,l),
(52,714,l),
(52,487,ls),
(52,399,o),
(94,351,o),
(165,351,cs)
);
}
);
width = 329;
}
);
metricLeft = "ai-canadian";
metricRight = "==|ai-canadian";
note = uni1421;
unicode = 5153;
},
{
glyphname = "ringTophalfFinal-canadian";
lastChange = "2023-01-13 15:28:10 +0000";
layers = (
{
layerId = "2974A4AB-0281-4EAC-B7D6-9B88228DB59B";
shapes = (
{
closed = 1;
nodes = (
(97,357,l),
(97,585,ls),
(97,649,o),
(119,678,o),
(165,678,cs),
(211,678,o),
(232,650,o),
(232,585,cs),
(232,357,l),
(277,357,l),
(277,581,ls),
(277,673,o),
(236,720,o),
(165,720,cs),
(94,720,o),
(52,672,o),
(52,584,cs),
(52,357,l)
);
}
);
width = 329;
}
);
metricLeft = "ai-canadian";
metricRight = "==|ai-canadian";
note = uni1422;
unicode = 5154;
},
{
glyphname = "ringRighthalfFinal-canadian";
kernLeft = mwestleft;
kernRight = mwestright;
lastChange = "2023-01-13 15:28:10 +0000";
layers = (
{
layerId = "2974A4AB-0281-4EAC-B7D6-9B88228DB59B";
shapes = (
{
closed = 1;
nodes = (
(74,357,ls),
(181,357,o),
(235,422,o),
(235,535,cs),
(235,647,o),
(181,714,o),
(76,714,cs),
(48,714,l),
(48,670,l),
(71,670,ls),
(152,670,o),
(189,622,o),
(189,535,cs),
(189,446,o),
(152,401,o),
(71,401,cs),
(48,401,l),
(48,357,l)
);
}
);
width = 286;
}
);
metricLeft = "=|t-canadian";
metricWidth = "t-canadian";
note = uni1423;
unicode = 5155;
},
{
glyphname = "ringFinal-canadian";
kernLeft = mwestleft;
kernRight = mwestright;
lastChange = "2023-01-13 15:28:10 +0000";
layers = (
{
layerId = "2974A4AB-0281-4EAC-B7D6-9B88228DB59B";
shapes = (
{
closed = 1;
nodes = (
(299,411,o),
(362,477,o),
(362,566,cs),
(362,653,o),
(298,720,o),
(207,720,cs),
(115,720,o),
(51,654,o),
(51,566,cs),
(51,477,o),
(115,411,o),
(207,411,cs)
);
},
{
closed = 1;
nodes = (
(139,451,o),
(94,497,o),
(94,566,cs),
(94,634,o),
(139,680,o),
(207,680,cs),
(274,680,o),
(319,633,o),
(319,566,cs),
(319,497,o),
(274,451,o),
(207,451,cs)
);
}
);
width = 413;
}
);
note = uni1424;
unicode = 5156;
},
{
glyphname = "doubleacuteFinal-canadian";
lastChange = "2023-01-13 15:28:10 +0000";
layers = (
{
layerId = "2974A4AB-0281-4EAC-B7D6-9B88228DB59B";
shapes = (
{
closed = 1;
nodes = (
(204,714,l),
(154,714,l),
(30,357,l),
(80,357,l)
);
},
{
closed = 1;
nodes = (
(314,714,l),
(264,714,l),
(140,357,l),
(191,357,l)
);
}
);
width = 344;
}
);
metricLeft = "acuteFinal-canadian";
metricRight = "=|";
note = uni1425;
unicode = 5157;
},
{
glyphname = "doubleshortverticalstrokesFinal-canadian";
kernLeft = mwestleft;
kernRight = mwestright;
lastChange = "2023-01-13 15:31:40 +0000";
layers = (
{
layerId = "2974A4AB-0281-4EAC-B7D6-9B88228DB59B";
shapes = (
{
closed = 1;
nodes = (
(97,714,l),
(52,714,l),
(52,357,l),
(97,357,l)
);
},
{
closed = 1;
nodes = (
(196,714,l),
(151,714,l),
(151,357,l),
(196,357,l)
);
}
);
width = 248;
}
);
metricLeft = "pWestCree-canadian";
metricRight = "pWestCree-canadian";
note = uni1426;
unicode = 5158;
},
{
glyphname = "middledotFinal-canadian";
lastChange = "2023-01-13 15:28:10 +0000";
layers = (
{
layerId = "2974A4AB-0281-4EAC-B7D6-9B88228DB59B";
shapes = (
{
closed = 1;
nodes = (
(111,325,o),
(130,344,o),
(130,367,cs),
(130,390,o),
(111,409,o),
(88,409,cs),
(64,409,o),
(46,390,o),
(46,367,cs),
(46,344,o),
(64,325,o),
(88,325,cs)
);
}
);
width = 176;
}
);
note = uni1427;
unicode = 5159;
},
{
glyphname = "shorthorizontalstrokeFinal-canadian";
kernLeft = mwestleft;
kernRight = mwestright;
lastChange = "2023-01-13 15:28:10 +0000";
layers = (
{
layerId = "2974A4AB-0281-4EAC-B7D6-9B88228DB59B";
shapes = (
{
closed = 1;
nodes = (
(303,522,l),
(303,568,l),
(52,568,l),
(52,522,l)
);
}
);
width = 355;
}
);
metricRight = "=|";
note = uni1428;
unicode = 5160;
},
{
glyphname = "plusFinal-canadian";
kernLeft = mwestleft;
kernRight = mwestright;
lastChange = "2023-01-13 15:28:10 +0000";
layers = (
{
layerId = "2974A4AB-0281-4EAC-B7D6-9B88228DB59B";
shapes = (
{
closed = 1;
nodes = (
(200,421,l),
(200,547,l),
(303,547,l),
(303,591,l),
(200,591,l),
(200,714,l),
(157,714,l),
(157,591,l),
(52,591,l),
(52,547,l),
(157,547,l),
(157,421,l)
);
}
);
width = 355;
}
);
metricLeft = "shorthorizontalstrokeFinal-canadian";
metricRight = "shorthorizontalstrokeFinal-canadian";
note = uni1429;
unicode = 5161;
},
{
glyphname = "downtackFinal-canadian";
kernLeft = mwestleft;
kernRight = mwestright;
lastChange = "2023-01-13 15:28:10 +0000";
layers = (
{
layerId = "2974A4AB-0281-4EAC-B7D6-9B88228DB59B";
shapes = (
{
closed = 1;
nodes = (
(201,357,l),
(201,670,l),
(303,670,l),
(303,714,l),
(52,714,l),
(52,670,l),
(156,670,l),
(156,357,l)
);
}
);
width = 355;
}
);
metricLeft = "shorthorizontalstrokeFinal-canadian";
metricRight = "shorthorizontalstrokeFinal-canadian";
note = uni142A;
unicode = 5162;
},
{
glyphname = "thFinalWoodScree-canadian";
lastChange = "2023-01-13 15:28:10 +0000";
layers = (
{
layerId = "2974A4AB-0281-4EAC-B7D6-9B88228DB59B";
shapes = (
{
closed = 1;
nodes = (
(200,357,l),
(200,445,l),
(303,445,l),
(303,486,l),
(200,486,l),
(200,585,l),
(303,585,l),
(303,626,l),
(200,626,l),
(200,714,l),
(155,714,l),
(155,626,l),
(52,626,l),
(52,585,l),
(155,585,l),
(155,486,l),
(52,486,l),
(52,445,l),
(155,445,l),
(155,357,l)
);
}
);
width = 355;
}
);
metricLeft = "hyphen-canadian";
metricRight = "hyphen-canadian";
note = uni167E;
unicode = 5758;
},
{
glyphname = "ringSmallFinal-canadian";
kernLeft = mwestleft;
kernRight = mwestright;
lastChange = "2023-01-13 15:28:10 +0000";
layers = (
{
layerId = "2974A4AB-0281-4EAC-B7D6-9B88228DB59B";
shapes = (
{
closed = 1;
nodes = (
(187,554,o),
(225,591,o),
(225,641,cs),
(225,690,o),
(187,727,o),
(139,727,cs),
(90,727,o),
(52,690,o),
(52,641,cs),
(52,591,o),
(90,554,o),
(139,554,cs)
);
},
{
closed = 1;
nodes = (
(107,586,o),
(86,609,o),
(86,641,cs),
(86,672,o),
(107,695,o),
(139,695,cs),
(170,695,o),
(192,672,o),
(192,641,cs),
(192,609,o),
(170,586,o),
(139,586,cs)
);
}
);
width = 277;
}
);
note = g725;
unicode = 6366;
},
{
glyphname = "raiseddotFinal-canadian";
kernLeft = mwestleft;
kernRight = mwestright;
lastChange = "2023-01-13 15:28:10 +0000";
layers = (
{
layerId = "2974A4AB-0281-4EAC-B7D6-9B88228DB59B";
shapes = (
{
closed = 1;
nodes = (
(115,643,o),
(134,661,o),
(134,685,cs),
(134,708,o),
(115,727,o),
(92,727,cs),
(68,727,o),
(50,708,o),
(50,685,cs),
(50,661,o),
(68,643,o),
(92,643,cs)
);
}
);
width = 184;
}
);
note = g725;
unicode = 6367;
},
{
glyphname = "plusFinal-canadian.base";
lastChange = "2023-01-13 15:28:10 +0000";
layers = (
{
layerId = "2974A4AB-0281-4EAC-B7D6-9B88228DB59B";
shapes = (
{
closed = 1;
nodes = (
(200,0,l),
(200,126,l),
(303,126,l),
(303,170,l),
(200,170,l),
(200,293,l),
(157,293,l),
(157,170,l),
(52,170,l),
(52,126,l),
(157,126,l),
(157,0,l)
);
}
);
width = 355;
}
);
metricLeft = "shorthorizontalstrokeFinal-canadian";
metricRight = "shorthorizontalstrokeFinal-canadian";
note = uni1429;
},
{
glyphname = "e-canadian";
kernLeft = ecanleft;
kernRight = ecanright;
lastChange = "2023-01-13 15:28:10 +0000";
layers = (
{
anchors = (
{
name = middle_center_can;
pos = (276,470);
},
{
name = top_center_can;
pos = (276,714);
},
{
name = top_left_can;
pos = (101,714);
},
{
name = top_right_can;
pos = (453,714);
}
);
layerId = "2974A4AB-0281-4EAC-B7D6-9B88228DB59B";
shapes = (
{
closed = 1;
nodes = (
(291,0,l),
(529,694,l),
(529,714,l),
(28,714,l),
(28,694,l),
(266,0,l)
);
},
{
closed = 1;
nodes = (
(294,74,l),
(93,677,l),
(83,661,l),
(473,661,l),
(465,677,l),
(264,74,l)
);
}
);
width = 557;
}
);
metricRight = "=|";
note = uni1401;
unicode = 5121;
},
{
glyphname = "i-canadian";
kernLeft = icanleft;
kernRight = icanright;
lastChange = "2023-01-13 15:28:10 +0000";
layers = (
{
anchors = (
{
name = middle_center_can;
pos = (275,417);
},
{
name = top_center_can;
pos = (279,714);
},
{
name = top_left_can;
pos = (103,714);
},
{
name = top_right_can;
pos = (455,714);
}
);
layerId = "2974A4AB-0281-4EAC-B7D6-9B88228DB59B";
shapes = (
{
closed = 1;
nodes = (
(529,0,l),
(529,20,l),
(291,714,l),
(266,714,l),
(28,20,l),
(28,0,l)
);
},
{
closed = 1;
nodes = (
(294,640,l),
(263,640,l),
(465,37,l),
(472,53,l),
(83,53,l),
(92,37,l)
);
}
);
width = 557;
}
);
metricLeft = "e-canadian";
metricWidth = "e-canadian";
note = uni1403;
unicode = 5123;
},
{
glyphname = "o-canadian";
kernLeft = ocanleft;
kernRight = ocanright;
lastChange = "2023-01-13 15:28:10 +0000";
layers = (
{
anchors = (
{
name = middle_center_can;
pos = (222,357);
},
{
name = top_center_can;
pos = (283,714);
},
{
name = top_double;
pos = (362,714);
},
{
name = top_left_can;
pos = (90,714);
},
{
name = top_right_can;
pos = (473,714);
}
);
layerId = "2974A4AB-0281-4EAC-B7D6-9B88228DB59B";
shapes = (
{
closed = 1;
nodes = (
(83,0,l),
(507,344,l),
(507,370,l),
(83,714,l),
(65,714,l),
(65,0,l)
);
},
{
closed = 1;
nodes = (
(118,641,l),
(103,634,l),
(460,341,l),
(460,373,l),
(103,80,l),
(118,73,l)
);
}
);
width = 539;
}
);
metricLeft = "nunavuth-canadian";
note = uni1405;
unicode = 5125;
},
{
glyphname = "eeCarrier-canadian";
lastChange = "2023-01-13 15:28:10 +0000";
layers = (
{
layerId = "2974A4AB-0281-4EAC-B7D6-9B88228DB59B";
shapes = (
{
closed = 1;
nodes = (
(83,0,l),
(507,344,l),
(507,370,l),
(83,714,l),
(65,714,l),
(65,0,l)
);
},
{
closed = 1;
nodes = (
(114,641,l),
(103,638,l),
(460,345,l),
(460,369,l),
(103,77,l),
(114,73,l)
);
},
{
closed = 1;
nodes = (
(234,453,l),
(205,453,l),
(205,261,l),
(234,261,l)
);
}
);
width = 539;
}
);
metricLeft = "nunavuth-canadian";
metricRight = "o-canadian";
note = uni1408;
unicode = 5128;
},
{
glyphname = "a-canadian";
kernLeft = acanleft;
kernRight = acanright;
lastChange = "2023-01-13 15:28:10 +0000";
layers = (
{
anchors = (
{
name = middle_center_can;
pos = (313,357);
},
{
name = top_center_can;
pos = (242,714);
},
{
name = top_left_can;
pos = (62,714);
},
{
name = top_right_can;
pos = (446,714);
}
);
layerId = "2974A4AB-0281-4EAC-B7D6-9B88228DB59B";
shapes = (
{
closed = 1;
nodes = (
(474,0,l),
(474,714,l),
(456,714,l),
(31,370,l),
(31,344,l),
(456,0,l)
);
},
{
closed = 1;
nodes = (
(436,80,l),
(78,372,l),
(78,341,l),
(436,634,l),
(421,641,l),
(421,73,l)
);
}
);
width = 539;
}
);
metricRight = "nunavuth-canadian";
note = uni140A;
unicode = 5130;
},
{
glyphname = "ai-canadian";
lastChange = "2023-01-13 15:28:10 +0000";
layers = (
{
layerId = "2974A4AB-0281-4EAC-B7D6-9B88228DB59B";
shapes = (
{
closed = 1;
nodes = (
(208,351,o),
(239,383,o),
(253,438,c),
(239,438,l),
(254,380,o),
(288,351,o),
(336,351,cs),
(395,351,o),
(441,390,o),
(441,493,cs),
(441,714,l),
(398,714,l),
(398,493,ls),
(398,412,o),
(368,393,o),
(332,393,cs),
(297,393,o),
(267,414,o),
(267,492,cs),
(267,714,l),
(225,714,l),
(225,493,ls),
(225,412,o),
(195,393,o),
(159,393,cs),
(123,393,o),
(95,414,o),
(95,492,cs),
(95,714,l),
(52,714,l),
(52,491,ls),
(52,390,o),
(98,351,o),
(157,351,cs)
);
}
);
width = 493;
}
);
metricRight = "=|";
note = uni141C;
unicode = 5148;
},
{
glyphname = "ycreew-canadian";
lastChange = "2023-01-13 15:28:10 +0000";
layers = (
{
layerId = "2974A4AB-0281-4EAC-B7D6-9B88228DB59B";
shapes = (
{
closed = 1;
nodes = (
(277,528,o),
(304,564,o),
(304,624,cs),
(304,685,o),
(277,720,o),
(237,720,cs),
(196,720,o),
(169,685,o),
(169,624,cs),
(169,564,o),
(196,528,o),
(237,528,cs)
);
},
{
closed = 1;
nodes = (
(160,351,o),
(187,387,o),
(187,447,cs),
(187,508,o),
(160,543,o),
(119,543,cs),
(79,543,o),
(52,508,o),
(52,447,cs),
(52,387,o),
(79,351,o),
(119,351,cs)
);
},
{
closed = 1;
nodes = (
(95,379,o),
(81,401,o),
(81,447,cs),
(81,493,o),
(95,515,o),
(119,515,cs),
(144,515,o),
(157,493,o),
(157,447,cs),
(157,401,o),
(144,379,o),
(119,379,cs)
);
},
{
closed = 1;
nodes = (
(212,556,o),
(199,578,o),
(199,624,cs),
(199,670,o),
(212,692,o),
(237,692,cs),
(261,692,o),
(275,670,o),
(275,624,cs),
(275,578,o),
(261,556,o),
(237,556,cs)
);
}
);
width = 356;
}
);
metricRight = "=|";
note = uni141D;
unicode = 5149;
},
{
glyphname = "glottalstop-canadian";
lastChange = "2023-01-13 15:31:40 +0000";
layers = (
{
layerId = "2974A4AB-0281-4EAC-B7D6-9B88228DB59B";
shapes = (
{
closed = 1;
nodes = (
(299,357,l),
(299,369,l),
(181,714,l),
(167,714,l),
(49,369,l),
(49,357,l)
);
},
{
closed = 1;
nodes = (
(186,667,l),
(163,667,l),
(258,376,l),
(266,394,l),
(82,394,l),
(89,376,l)
);
}
);
width = 348;
}
);
metricRight = "=|";
note = uni141E;
unicode = 5150;
},
{
glyphname = "pe-canadian";
kernLeft = ecanleft;
kernRight = ecanright;
lastChange = "2023-01-13 15:28:10 +0000";
layers = (
{
anchors = (
{
name = middle_center_can;
pos = (276,470);
},
{
name = top_center_can;
pos = (276,714);
},
{
name = top_left_can;
pos = (101,714);
},
{
name = top_right_can;
pos = (453,714);
}
);
layerId = "2974A4AB-0281-4EAC-B7D6-9B88228DB59B";
shapes = (
{
closed = 1;
nodes = (
(291,0,l),
(529,694,l),
(529,714,l),
(473,714,l),
(260,77,l),
(299,77,l),
(85,714,l),
(28,714,l),
(28,694,l),
(266,0,l)
);
}
);
width = 557;
}
);
metricLeft = "e-canadian";
metricRight = "e-canadian";
note = uni142F;
unicode = 5167;
},
{
glyphname = "pi-canadian";
kernLeft = icanleft;
kernRight = icanright;
lastChange = "2023-01-13 15:28:10 +0000";
layers = (
{
anchors = (
{
name = middle_center_can;
pos = (279,417);
},
{
name = top_center_can;
pos = (279,714);
},
{
name = top_left_can;
pos = (102,714);
},
{
name = top_right_can;
pos = (455,714);
}
);
layerId = "2974A4AB-0281-4EAC-B7D6-9B88228DB59B";
shapes = (
{
closed = 1;
nodes = (
(84,0,l),
(298,637,l),
(259,637,l),
(473,0,l),
(529,0,l),
(529,20,l),
(291,714,l),
(266,714,l),
(28,20,l),
(28,0,l)
);
}
);
width = 557;
}
);
metricLeft = "e-canadian";
metricRight = "e-canadian";
note = uni1431;
unicode = 5169;
},
{
glyphname = "po-canadian";
kernLeft = ocanleft;
kernRight = ocanright;
lastChange = "2023-01-13 15:28:10 +0000";
layers = (
{
anchors = (
{
name = middle_center_can;
pos = (171,357);
},
{
name = top_center_can;
pos = (259,714);
},
{
name = top_double;
pos = (345,714);
},
{
name = top_left_can;
pos = (71,714);
},
{
name = top_right_can;
pos = (446,714);
}
);
layerId = "2974A4AB-0281-4EAC-B7D6-9B88228DB59B";
shapes = (
{
closed = 1;
nodes = (
(61,0,l),
(480,344,l),
(480,370,l),
(61,714,l),
(43,714,l),
(43,656,l),
(426,341,l),
(426,373,l),
(43,58,l),
(43,0,l)
);
}
);
width = 512;
}
);
metricRight = "o-canadian";
note = uni1433;
unicode = 5171;
},
{
glyphname = "pa-canadian";
kernLeft = acanleft;
kernRight = acanright;
lastChange = "2023-01-13 15:28:10 +0000";
layers = (
{
anchors = (
{
name = middle_center_can;
pos = (248,357);
},
{
name = top_center_can;
pos = (254,714);
},
{
name = top_left_can;
pos = (62,714);
},
{
name = top_right_can;
pos = (441,714);
}
);
layerId = "2974A4AB-0281-4EAC-B7D6-9B88228DB59B";
shapes = (
{
closed = 1;
nodes = (
(469,0,l),
(469,58,l),
(86,373,l),
(86,341,l),
(469,656,l),
(469,714,l),
(451,714,l),
(31,370,l),
(31,344,l),
(451,0,l)
);
}
);
width = 512;
}
);
metricRight = "=|po-canadian";
note = uni1438;
unicode = 5176;
},
{
glyphname = "p-canadian";
kernLeft = mwestleft;
kernRight = mwestright;
lastChange = "2023-01-13 15:28:10 +0000";
layers = (
{
layerId = "2974A4AB-0281-4EAC-B7D6-9B88228DB59B";
shapes = (
{
closed = 1;
nodes = (
(268,357,l),
(268,399,l),
(86,551,l),
(86,520,l),
(268,671,l),
(268,714,l),
(258,714,l),
(52,545,l),
(52,527,l),
(258,357,l)
);
}
);
width = 320;
}
);
note = uni1449;
unicode = 5193;
},
{
glyphname = "pWestCree-canadian";
kernLeft = mwestleft;
kernRight = mwestright;
lastChange = "2023-01-13 15:31:40 +0000";
layers = (
{
layerId = "2974A4AB-0281-4EAC-B7D6-9B88228DB59B";
shapes = (
{
closed = 1;
nodes = (
(97,357,l),
(97,714,l),
(52,714,l),
(52,357,l)
);
}
);
width = 149;
}
);
metricRight = "=|";
note = uni144A;
unicode = 5194;
},
{
color = 6;
glyphname = "hCarrier-canadian";
lastChange = "2023-01-13 15:28:10 +0000";
layers = (
{
layerId = "2974A4AB-0281-4EAC-B7D6-9B88228DB59B";
shapes = (
{
closed = 1;
nodes = (
(97,189,l),
(97,345,ls),
(97,385,o),
(116,408,o),
(151,408,cs),
(182,408,o),
(197,387,o),
(197,344,cs),
(197,189,l),
(242,189,l),
(242,352,ls),
(242,418,o),
(206,449,o),
(160,449,cs),
(118,449,o),
(89,420,o),
(86,380,c),
(97,374,l),
(97,546,l),
(52,546,l),
(52,189,l)
);
}
);
width = 278;
}
);
metricLeft = "pWestCree-canadian";
note = uni144B;
unicode = 5195;
},
{
glyphname = "te-canadian";
lastChange = "2023-01-13 15:31:40 +0000";
layers = (
{
anchors = (
{
name = middle_center_can;
pos = (281,357);
},
{
name = top_center_can;
pos = (281,714);
},
{
name = top_left_can;
pos = (94,714);
},
{
name = top_right_can;
pos = (470,714);
}
);
layerId = "2974A4AB-0281-4EAC-B7D6-9B88228DB59B";
shapes = (
{
closed = 1;
nodes = (
(421,-13,o),
(502,73,o),
(502,245,cs),
(502,714,l),
(439,714,l),
(439,244,ls),
(439,107,o),
(382,47,o),
(281,47,cs),
(184,47,o),
(125,109,o),
(125,244,cs),
(125,714,l),
(61,714,l),
(61,242,ls),
(61,74,o),
(146,-13,o),
(282,-13,cs)
);
}
);
width = 563;
}
);
metricRight = "=|";
note = uni144C;
unicode = 5196;
},
{
glyphname = "ti-canadian";
lastChange = "2023-01-13 15:31:40 +0000";
layers = (
{
anchors = (
{
name = middle_center_can;
pos = (281,357);
},
{
name = middle_right_can;
pos = (595,357);
},
{
name = top_center_can;
pos = (281,714);
},
{
name = top_left_can;
pos = (94,714);
},
{
name = top_right_can;
pos = (470,714);
}
);
layerId = "2974A4AB-0281-4EAC-B7D6-9B88228DB59B";
shapes = (
{
closed = 1;
nodes = (
(125,0,l),
(125,470,ls),
(125,607,o),
(181,667,o),
(282,667,cs),
(380,667,o),
(439,605,o),
(439,470,cs),
(439,0,l),
(502,0,l),
(502,472,ls),
(502,640,o),
(418,727,o),
(282,727,cs),
(145,727,o),
(61,641,o),
(61,469,cs),
(61,0,l)
);
}
);
width = 563;
}
);
metricLeft = "te-canadian";
metricRight = "te-canadian";
note = uni144E;
unicode = 5198;
},
{
glyphname = "to-canadian";
kernLeft = toleft;
lastChange = "2023-01-13 15:28:10 +0000";
layers = (
{
anchors = (
{
name = middle_center_can;
pos = (199,357);
},
{
name = middle_right_can;
pos = (510,357);
},
{
name = top_center_can;
pos = (210,714);
},
{
name = top_double;
pos = (256,714);
},
{
name = top_left_can;
pos = (71,714);
},
{
name = top_right_can;
pos = (389,714);
}
);
layerId = "2974A4AB-0281-4EAC-B7D6-9B88228DB59B";
shapes = (
{
closed = 1;
nodes = (
(127,0,ls),
(325,0,o),
(417,125,o),
(417,358,cs),
(417,591,o),
(325,714,o),
(123,714,cs),
(43,714,l),
(43,655,l),
(123,655,ls),
(287,655,o),
(353,557,o),
(353,358,cs),
(353,161,o),
(287,59,o),
(128,59,cs),
(43,59,l),
(43,0,l)
);
}
);
width = 469;
}
);
note = uni1450;
unicode = 5200;
},
{
glyphname = "ta-canadian";
kernRight = taright;
lastChange = "2023-01-13 15:28:10 +0000";
layers = (
{
anchors = (
{
name = middle_center_can;
pos = (271,357);
},
{
name = top_center_can;
pos = (260,714);
},
{
name = top_left_can;
pos = (80,714);
},
{
name = top_right_can;
pos = (398,714);
}
);
layerId = "2974A4AB-0281-4EAC-B7D6-9B88228DB59B";
shapes = (
{
closed = 1;
nodes = (
(426,0,l),
(426,59,l),
(346,59,ls),
(182,59,o),
(116,157,o),
(116,356,cs),
(116,553,o),
(182,655,o),
(341,655,cs),
(426,655,l),
(426,714,l),
(341,714,ls),
(144,714,o),
(52,589,o),
(52,356,cs),
(52,123,o),
(144,0,o),
(347,0,cs)
);
}
);
width = 469;
}
);
metricLeft = "=|to-canadian";
metricRight = "=|to-canadian";
note = uni1455;
unicode = 5205;
},
{
glyphname = "t-canadian";
kernLeft = mwestleft;
kernRight = mwestright;
lastChange = "2023-01-13 15:28:10 +0000";
layers = (
{
layerId = "2974A4AB-0281-4EAC-B7D6-9B88228DB59B";
shapes = (
{
closed = 1;
nodes = (
(238,357,l),
(238,401,l),
(216,401,ls),
(134,401,o),
(97,446,o),
(97,535,cs),
(97,623,o),
(134,670,o),
(216,670,cs),
(238,670,l),
(238,714,l),
(210,714,ls),
(106,714,o),
(51,647,o),
(51,535,cs),
(51,423,o),
(106,357,o),
(212,357,cs)
);
}
);
width = 286;
}
);
note = uni1466;
unicode = 5222;
},
{
glyphname = "ke-canadian";
lastChange = "2023-01-13 15:28:10 +0000";
layers = (
{
anchors = (
{
name = middle_center_can;
pos = (245,457);
},
{
name = top_center_can;
pos = (230,714);
},
{
name = top_left_can;
pos = (87,714);
},
{
name = top_right_can;
pos = (373,714);
}
);
layerId = "2974A4AB-0281-4EAC-B7D6-9B88228DB59B";
shapes = (
{
closed = 1;
nodes = (
(405,0,l),
(405,465,ls),
(405,637,o),
(345,727,o),
(232,727,cs),
(119,727,o),
(55,635,o),
(55,467,cs),
(55,305,o),
(118,212,o),
(223,212,cs),
(289,212,o),
(336,258,o),
(348,324,c),
(341,353,l),
(341.005,0,l)
);
},
{
closed = 1;
nodes = (
(156,268,o),
(117,333,o),
(117,470,cs),
(117,607,o),
(156,671,o),
(230,671,cs),
(304,671,o),
(342,608,o),
(342,470,cs),
(342,333,o),
(303,268,o),
(230,268,cs)
);
}
);
width = 466;
}
);
metricRight = "te-canadian";
note = uni146B;
unicode = 5227;
},
{
glyphname = "ki-canadian";
lastChange = "2023-01-13 15:28:10 +0000";
layers = (
{
anchors = (
{
name = middle_center_can;
pos = (252,457);
},
{
name = top_center_can;
pos = (236,714);
},
{
name = top_left_can;
pos = (93,714);
},
{
name = top_right_can;
pos = (380,714);
}
);
layerId = "2974A4AB-0281-4EAC-B7D6-9B88228DB59B";
shapes = (
{
closed = 1;
nodes = (
(125,0,l),
(125,353,l),
(118,324,l),
(129,258,o),
(177,212,o),
(242,212,cs),
(348,212,o),
(411,305,o),
(411,467,cs),
(411,635,o),
(347,727,o),
(236,727,cs),
(121,727,o),
(61,634,o),
(61,465,cs),
(61,0,l)
);
},
{
closed = 1;
nodes = (
(163,268,o),
(124,333,o),
(124,470,cs),
(124,608,o),
(162,671,o),
(236,671,cs),
(310,671,o),
(349,607,o),
(349,470,cs),
(349,333,o),
(309,268,o),
(236,268,cs)
);
}
);
width = 466;
}
);
metricLeft = "te-canadian";
metricRight = "=|ke-canadian";
note = uni146D;
unicode = 5229;
},
{
glyphname = "ko-canadian";
lastChange = "2023-01-13 15:28:10 +0000";
layers = (
{
anchors = (
{
name = middle_center_can;
pos = (245,411);
},
{
name = top_center_can;
pos = (230,714);
},
{
name = top_double;
pos = (373,714);
},
{
name = top_left_can;
pos = (87,714);
},
{
name = top_right_can;
pos = (373,714);
}
);
layerId = "2974A4AB-0281-4EAC-B7D6-9B88228DB59B";
shapes = (
{
closed = 1;
nodes = (
(344,-13,o),
(405,77,o),
(405,249,cs),
(405,714,l),
(341.005,714,l),
(341,361,l),
(348,390,l),
(336,456,o),
(289,502,o),
(223,502,cs),
(118,502,o),
(55,409,o),
(55,245,cs),
(55,79,o),
(118,-13,o),
(231,-13,cs)
);
},
{
closed = 1;
nodes = (
(156,43,o),
(117,107,o),
(117,244,cs),
(117,381,o),
(156,446,o),
(230,446,cs),
(303,446,o),
(342,381,o),
(342,244,cs),
(342,106,o),
(304,43,o),
(230,43,cs)
);
}
);
width = 466;
}
);
metricLeft = "ke-canadian";
metricRight = "te-canadian";
note = uni146F;
unicode = 5231;
},
{
glyphname = "ka-canadian";
lastChange = "2023-01-13 15:28:10 +0000";
layers = (
{
anchors = (
{
name = middle_center_can;
pos = (252,412);
},
{
name = top_center_can;
pos = (236,714);
},
{
name = top_left_can;
pos = (93,714);
},
{
name = top_right_can;
pos = (380,714);
}
);
layerId = "2974A4AB-0281-4EAC-B7D6-9B88228DB59B";
shapes = (
{
closed = 1;
nodes = (
(347,-13,o),
(411,79,o),
(411,247,cs),
(411,409,o),
(348,502,o),
(242,502,cs),
(177,502,o),
(129,456,o),
(118,390,c),
(125,361,l),
(125,714,l),
(61,714,l),
(61,249,ls),
(61,77,o),
(121,-13,o),
(234,-13,cs)
);
},
{
closed = 1;
nodes = (
(162,43,o),
(124,106,o),
(124,244,cs),
(124,381,o),
(163,446,o),
(236,446,cs),
(309,446,o),
(349,381,o),
(349,244,cs),
(349,107,o),
(310,43,o),
(236,43,cs)
);
}
);
width = 466;
}
);
metricLeft = "te-canadian";
metricRight = "==|ke-canadian";
note = uni1472;
unicode = 5234;
},
{
glyphname = "k-canadian";
kernLeft = mwestleft;
kernRight = mwestright;
lastChange = "2023-01-13 15:28:10 +0000";
layers = (
{
layerId = "2974A4AB-0281-4EAC-B7D6-9B88228DB59B";
shapes = (
{
closed = 1;
nodes = (
(203,351,o),
(246,395,o),
(246,490,cs),
(246,577,o),
(207,622,o),
(158,622,cs),
(118,622,o),
(88,591,o),
(85,539,c),
(97,540,l),
(97,714,l),
(52,714,l),
(52,486,ls),
(52,398,o),
(91,351,o),
(149,351,cs)
);
},
{
closed = 1;
nodes = (
(115,388,o),
(95,415,o),
(95,487,cs),
(95,556,o),
(117,585,o),
(150,585,cs),
(182,585,o),
(204,557,o),
(204,488,cs),
(204,418,o),
(183,388,o),
(150,388,cs)
);
}
);
width = 288;
}
);
note = uni1483;
unicode = 5251;
},
{
glyphname = "kw-canadian";
kernLeft = mwestleft;
kernRight = mwestright;
lastChange = "2023-01-13 15:28:10 +0000";
layers = (
{
layerId = "2974A4AB-0281-4EAC-B7D6-9B88228DB59B";
shapes = (
{
closed = 1;
nodes = (
(198,351,o),
(236,398,o),
(236,486,cs),
(236,714,l),
(191,714,l),
(191,540,l),
(204,539,l),
(200,591,o),
(170,622,o),
(131,622,cs),
(81,622,o),
(42,577,o),
(42,490,cs),
(42,395,o),
(85,351,o),
(139,351,cs)
);
},
{
closed = 1;
nodes = (
(105,388,o),
(84,418,o),
(84,488,cs),
(84,557,o),
(106,585,o),
(138,585,cs),
(171,585,o),
(193,556,o),
(193,487,cs),
(193,415,o),
(173,388,o),
(138,388,cs)
);
}
);
width = 288;
}
);
metricLeft = "=|k-canadian";
metricRight = "=|k-canadian";
note = uni1484;
unicode = 5252;
},
{
glyphname = "ce-canadian";
kernLeft = celeft;
lastChange = "2023-01-13 15:31:40 +0000";
layers = (
{
anchors = (
{
name = middle_center_can;
pos = (243,435);
},
{
name = top_center_can;
pos = (228,714);
},
{
name = top_left_can;
pos = (86,714);
},
{
name = top_right_can;
pos = (369,714);
}
);
layerId = "2974A4AB-0281-4EAC-B7D6-9B88228DB59B";
shapes = (
{
closed = 1;
nodes = (
(400,0,l),
(400,488,ls),
(400,636,o),
(340,727,o),
(229,727,cs),
(116,727,o),
(54,640,o),
(54,496,cs),
(54,405,l),
(117,405,l),
(117,506,ls),
(117,609,o),
(153,670,o),
(228,670,cs),
(300,670,o),
(337,609,o),
(337,500,cs),
(337,0,l)
);
}
);
width = 461;
}
);
metricRight = "te-canadian";
note = uni1489;
unicode = 5257;
},
{
glyphname = "ci-canadian";
kernRight = ciright;
lastChange = "2023-01-13 15:28:10 +0000";
layers = (
{
anchors = (
{
name = middle_center_can;
pos = (251,435);
},
{
name = top_center_can;
pos = (236,714);
},
{
name = top_left_can;
pos = (94,714);
},
{
name = top_right_can;
pos = (378,714);
}
);
layerId = "2974A4AB-0281-4EAC-B7D6-9B88228DB59B";
shapes = (
{
closed = 1;
nodes = (
(125,0,l),
(125,500,ls),
(125,609,o),
(162,670,o),
(233,670,cs),
(309,670,o),
(345,609,o),
(345,506,cs),
(345,405,l),
(408,405,l),
(408,496,ls),
(408,640,o),
(345,727,o),
(234,727,cs),
(121,727,o),
(61,636,o),
(61,488,cs),
(61,0,l)
);
}
);
width = 462;
}
);
metricLeft = "te-canadian";
metricRight = "=|ce-canadian";
note = uni148B;
unicode = 5259;
},
{
glyphname = "co-canadian";
kernLeft = coleft;
lastChange = "2023-01-13 15:31:40 +0000";
layers = (
{
anchors = (
{
name = middle_center_can;
pos = (243,435);
},
{
name = top_center_can;
pos = (227,714);
},
{
name = top_double;
pos = (369,714);
},
{
name = top_left_can;
pos = (86,714);
},
{
name = top_right_can;
pos = (369,714);
}
);
layerId = "2974A4AB-0281-4EAC-B7D6-9B88228DB59B";
shapes = (
{
closed = 1;
nodes = (
(340,-13,o),
(400,78,o),
(400,226,cs),
(400,714,l),
(337,714,l),
(337,214,ls),
(337,106,o),
(300,44,o),
(228,44,cs),
(153,44,o),
(117,106,o),
(117,208,cs),
(117,309,l),
(54,309,l),
(54,218,ls),
(54,74,o),
(116,-13,o),
(229,-13,cs)
);
}
);
width = 461;
}
);
metricLeft = "ce-canadian";
metricRight = "te-canadian";
note = uni148D;
unicode = 5261;
},
{
glyphname = "ca-canadian";
kernRight = caright;
lastChange = "2023-01-13 15:28:10 +0000";
layers = (
{
anchors = (
{
name = middle_center_can;
pos = (251,435);
},
{
name = top_center_can;
pos = (236,714);
},
{
name = top_left_can;
pos = (94,714);
},
{
name = top_right_can;
pos = (377,714);
}
);
layerId = "2974A4AB-0281-4EAC-B7D6-9B88228DB59B";
shapes = (
{
closed = 1;
nodes = (
(345,-13,o),
(408,75,o),
(408,218,cs),
(408,309,l),
(345,309,l),
(345,208,ls),
(345,106,o),
(309,44,o),
(233,44,cs),
(162,44,o),
(125,106,o),
(125,214,cs),
(125,714,l),
(61,714,l),
(61,226,ls),
(61,78,o),
(121,-13,o),
(233,-13,cs)
);
}
);
width = 462;
}
);
metricLeft = "te-canadian";
metricRight = "=|ce-canadian";
note = uni1490;
unicode = 5264;
},
{
glyphname = "c-canadian";
kernLeft = mwestleft;
kernRight = mwestright;
lastChange = "2023-01-13 15:28:10 +0000";
layers = (
{
layerId = "2974A4AB-0281-4EAC-B7D6-9B88228DB59B";
shapes = (
{
closed = 1;
nodes = (
(207,351,o),
(246,395,o),
(246,474,cs),
(246,502,l),
(205,502,l),
(205,467,ls),
(205,417,o),
(184,390,o),
(151,390,cs),
(115,390,o),
(97,416,o),
(97,473,cs),
(97,714,l),
(52,714,l),
(52,479,ls),
(52,394,o),
(89,351,o),
(150,351,cs)
);
}
);
width = 279;
}
);
note = uni14A1;
unicode = 5281;
},
{
glyphname = "thSayisi-canadian";
lastChange = "2023-01-13 15:31:40 +0000";
layers = (
{
layerId = "2974A4AB-0281-4EAC-B7D6-9B88228DB59B";
shapes = (
{
closed = 1;
nodes = (
(191,351,o),
(228,394,o),
(228,479,cs),
(228,714,l),
(182,714,l),
(182,473,ls),
(182,416,o),
(165,390,o),
(128,390,cs),
(95,390,o),
(75,417,o),
(75,467,cs),
(75,502,l),
(33,502,l),
(33,474,ls),
(33,395,o),
(72,351,o),
(132,351,cs)
);
}
);
width = 280;
}
);
metricLeft = "=|c-canadian";
metricRight = "=|c-canadian";
note = uni14A2;
unicode = 5282;
},
{
glyphname = "me-canadian";
kernLeft = meleft;
lastChange = "2023-01-13 15:28:10 +0000";
layers = (
{
anchors = (
{
name = middle_center_can;
pos = (159,357);
},
{
name = top_center_can;
pos = (192,714);
},
{
name = top_left_can;
pos = (66,714);
},
{
name = top_right_can;
pos = (315,714);
}
);
layerId = "2974A4AB-0281-4EAC-B7D6-9B88228DB59B";
shapes = (
{
closed = 1;
nodes = (
(347,0,l),
(347,714,l),
(34,714,l),
(34,655,l),
(284,655,l),
(284,0,l)
);
}
);
width = 412;
}
);
metricRight = "nunavuth-canadian";
note = uni14A3;
unicode = 5283;
},
{
glyphname = "mi-canadian";
kernRight = miright;
lastChange = "2023-01-13 15:28:10 +0000";
layers = (
{
anchors = (
{
name = middle_center_can;
pos = (254,357);
},
{
name = top_center_can;
pos = (221,714);
},
{
name = top_left_can;
pos = (97,714);
},
{
name = top_right_can;
pos = (345,714);
}
);
layerId = "2974A4AB-0281-4EAC-B7D6-9B88228DB59B";
shapes = (
{
closed = 1;
nodes = (
(128,0,l),
(128,655,l),
(378,655,l),
(378,714,l),
(65,714,l),
(65,0,l)
);
}
);
width = 412;
}
);
metricLeft = "nunavuth-canadian";
metricRight = "=|me-canadian";
note = uni14A5;
unicode = 5285;
},
{
glyphname = "mo-canadian";
kernLeft = moleft;
lastChange = "2023-01-13 15:28:10 +0000";
layers = (
{
anchors = (
{
name = middle_center_can;
pos = (159,357);
},
{
name = top_center_can;
pos = (192,714);
},
{
name = top_double;
pos = (316,714);
},
{
name = top_left_can;
pos = (66,714);
},
{
name = top_right_can;
pos = (315,714);
}
);
layerId = "2974A4AB-0281-4EAC-B7D6-9B88228DB59B";
shapes = (
{
closed = 1;
nodes = (
(347,0,l),
(347,714,l),
(284,714,l),
(284,59,l),
(34,59,l),
(34,0,l)
);
}
);
width = 412;
}
);
metricLeft = "me-canadian";
metricRight = "nunavuth-canadian";
note = uni14A7;
unicode = 5287;
},
{
glyphname = "ma-canadian";
kernRight = maright;
lastChange = "2023-01-13 15:28:10 +0000";
layers = (
{
anchors = (
{
name = middle_center_can;
pos = (254,357);
},
{
name = top_center_can;
pos = (221,714);
},
{
name = top_left_can;
pos = (97,714);
},
{
name = top_right_can;
pos = (345,714);
}
);
layerId = "2974A4AB-0281-4EAC-B7D6-9B88228DB59B";
shapes = (
{
closed = 1;
nodes = (
(378,0,l),
(378,59,l),
(128,59,l),
(128,714,l),
(65,714,l),
(65,0,l)
);
}
);
width = 412;
}
);
metricLeft = "nunavuth-canadian";
metricRight = "=|me-canadian";
note = uni14AA;
unicode = 5290;
},
{
glyphname = "m-canadian";
kernLeft = mwestleft;
kernRight = mwestright;
lastChange = "2023-01-13 15:28:10 +0000";
layers = (
{
layerId = "2974A4AB-0281-4EAC-B7D6-9B88228DB59B";
shapes = (
{
closed = 1;
nodes = (
(225,401,l),
(97,401,l),
(97,714,l),
(52,714,l),
(52,357,l),
(225,357,l)
);
}
);
width = 254;
}
);
metricLeft = "pWestCree-canadian";
note = uni14BB;
unicode = 5307;
},
{
glyphname = "mh-canadian";
kernLeft = mwestleft;
kernRight = mwestright;
lastChange = "2023-01-13 15:28:10 +0000";
layers = (
{
layerId = "2974A4AB-0281-4EAC-B7D6-9B88228DB59B";
shapes = (
{
closed = 1;
nodes = (
(202,357,l),
(202,714,l),
(158,714,l),
(158,401,l),
(29,401,l),
(29,357,l)
);
}
);
width = 254;
}
);
metricLeft = "=|m-canadian";
metricRight = "=|m-canadian";
note = uni14BD;
unicode = 5309;
},
{
glyphname = "mAthapascan-canadian";
lastChange = "2023-01-13 15:28:10 +0000";
layers = (
{
layerId = "2974A4AB-0281-4EAC-B7D6-9B88228DB59B";
shapes = (
{
closed = 1;
nodes = (
(238,357,l),
(238,398,l),
(103,398,l),
(104,375,l),
(186,497,ls),
(219,546,o),
(226,582,o),
(226,617,cs),
(226,678,o),
(195,720,o),
(139,720,cs),
(79,720,o),
(46,676,o),
(46,598,c),
(88,598,l),
(88,661,o),
(104,684,o),
(138,684,cs),
(169,684,o),
(184,660,o),
(184,617,cs),
(184,587,o),
(182,563,o),
(148,511,cs),
(58,379,l),
(58,357,l)
);
}
);
width = 278;
}
);
note = uni14BE;
unicode = 5310;
},
{
glyphname = "ne-canadian";
kernLeft = neleft;
lastChange = "2023-01-13 15:28:10 +0000";
layers = (
{
anchors = (
{
name = middle_center_can;
pos = (403,254);
},
{
name = top_center_can;
pos = (395,508);
},
{
name = top_left_can;
pos = (83,508);
},
{
name = top_right_can;
pos = (551,508);
}
);
layerId = "2974A4AB-0281-4EAC-B7D6-9B88228DB59B";
shapes = (
{
closed = 1;
nodes = (
(514,-13,o),
(582,73,o),
(582,239,cs),
(582,404,o),
(515,489,o),
(395,489,cs),
(51,489,l),
(51,431,l),
(312,431,l),
(309,448,l),
(253,415,o),
(225,330,o),
(225,236,cs),
(225,73,o),
(292,-13,o),
(404,-13,cs)
);
},
{
closed = 1;
nodes = (
(326,43,o),
(288,106,o),
(288,239,cs),
(288,362,o),
(327,433,o),
(404,433,cs),
(479,433,o),
(520,371,o),
(520,239,cs),
(520,106,o),
(481,43,o),
(404,43,cs)
);
}
);
width = 637;
}
);
metricRight = "=|ke-canadian";
note = uni14C0;
unicode = 5312;
},
{
glyphname = "ni-canadian";
kernRight = niright;
lastChange = "2023-01-13 15:28:10 +0000";
layers = (
{
anchors = (
{
name = middle_center_can;
pos = (235,254);
},
{
name = top_center_can;
pos = (243,508);
},
{
name = top_left_can;
pos = (87,508);
},
{
name = top_right_can;
pos = (554,508);
}
);
layerId = "2974A4AB-0281-4EAC-B7D6-9B88228DB59B";
shapes = (
{
closed = 1;
nodes = (
(345,-13,o),
(412,73,o),
(412,236,cs),
(412,330,o),
(384,415,o),
(328,448,c),
(325,431,l),
(586,431,l),
(586,489,l),
(242,489,ls),
(123,489,o),
(55,403,o),
(55,238,cs),
(55,73,o),
(123,-13,o),
(233,-13,cs)
);
},
{
closed = 1;
nodes = (
(156,43,o),
(117,106,o),
(117,239,cs),
(117,372,o),
(158,434,o),
(233,434,cs),
(310,434,o),
(349,363,o),
(349,239,cs),
(349,106,o),
(310,43,o),
(233,43,cs)
);
}
);
width = 637;
}
);
metricLeft = "ke-canadian";
metricRight = "=|ne-canadian";
note = uni14C2;
unicode = 5314;
},
{
glyphname = "no-canadian";
kernLeft = noleft;
lastChange = "2023-01-13 15:28:10 +0000";
layers = (
{
anchors = (
{
name = middle_center_can;
pos = (402,254);
},
{
name = top_center_can;
pos = (400,508);
},
{
name = top_double;
pos = (404,508);
},
{
name = top_left_can;
pos = (82,508);
},
{
name = top_right_can;
pos = (551,508);
}
);
layerId = "2974A4AB-0281-4EAC-B7D6-9B88228DB59B";
shapes = (
{
closed = 1;
nodes = (
(395,0,ls),
(514,0,o),
(582,85,o),
(582,250,cs),
(582,416,o),
(514,502,o),
(404,502,cs),
(292,502,o),
(225,416,o),
(225,253,cs),
(225,159,o),
(253,74,o),
(310,41,c),
(312,59,l),
(51,59,l),
(51,0,l)
);
},
{
closed = 1;
nodes = (
(327,55,o),
(288,126,o),
(288,250,cs),
(288,383,o),
(326,446,o),
(404,446,cs),
(481,446,o),
(520,383,o),
(520,250,cs),
(520,117,o),
(479,55,o),
(404,55,cs)
);
}
);
width = 637;
}
);
metricLeft = "ne-canadian";
metricRight = "=|ke-canadian";
note = uni14C4;
unicode = 5316;
},
{
glyphname = "na-canadian";
kernRight = naright;
lastChange = "2023-01-13 15:28:10 +0000";
layers = (
{
anchors = (
{
name = middle_center_can;
pos = (235,254);
},
{
name = top_center_can;
pos = (237,508);
},
{
name = top_double;
pos = (349,508);
},
{
name = top_left_can;
pos = (87,508);
},
{
name = top_right_can;
pos = (554,508);
}
);
layerId = "2974A4AB-0281-4EAC-B7D6-9B88228DB59B";
shapes = (
{
closed = 1;
nodes = (
(586,0,l),
(586,58,l),
(325,58,l),
(327,41,l),
(384,74,o),
(412,159,o),
(412,253,cs),
(412,416,o),
(345,502,o),
(233,502,cs),
(123,502,o),
(55,416,o),
(55,250,cs),
(55,85,o),
(123,0,o),
(242,0,cs)
);
},
{
closed = 1;
nodes = (
(158,55,o),
(117,117,o),
(117,250,cs),
(117,383,o),
(156,446,o),
(233,446,cs),
(310,446,o),
(349,383,o),
(349,250,cs),
(349,126,o),
(310,55,o),
(233,55,cs)
);
}
);
width = 637;
}
);
metricLeft = "ke-canadian";
metricRight = "=|ne-canadian";
note = uni14C7;
unicode = 5319;
},
{
glyphname = "n-canadian";
kernLeft = mwestleft;
kernRight = mwestright;
lastChange = "2023-01-13 15:28:10 +0000";
layers = (
{
layerId = "2974A4AB-0281-4EAC-B7D6-9B88228DB59B";
shapes = (
{
closed = 1;
nodes = (
(333,449,l),
(333,493,l),
(188,493,l),
(189,473,l),
(220,488,o),
(234,535,o),
(234,587,cs),
(234,674,o),
(196,720,o),
(138,720,cs),
(80,720,o),
(42,673,o),
(42,585,cs),
(42,498,o),
(79,449,o),
(144,449,cs)
);
},
{
closed = 1;
nodes = (
(104,485,o),
(83,517,o),
(83,585,cs),
(83,654,o),
(104,683,o),
(139,683,cs),
(173,683,o),
(193,653,o),
(193,585,cs),
(193,516,o),
(172,485,o),
(138,485,cs)
);
}
);
width = 362;
}
);
metricLeft = "=|k-canadian";
note = uni14D0;
unicode = 5328;
},
{
glyphname = "nh-canadian";
kernLeft = mwestleft;
kernRight = mwestright;
lastChange = "2023-01-13 15:28:10 +0000";
layers = (
{
layerId = "2974A4AB-0281-4EAC-B7D6-9B88228DB59B";
shapes = (
{
closed = 1;
nodes = (
(219,449,ls),
(283,449,o),
(320,498,o),
(320,585,cs),
(320,673,o),
(282,720,o),
(224,720,cs),
(166,720,o),
(129,674,o),
(129,587,cs),
(129,535,o),
(142,488,o),
(173,473,c),
(175,493,l),
(29,493,l),
(29,449,l)
);
},
{
closed = 1;
nodes = (
(191,485,o),
(170,516,o),
(170,585,cs),
(170,653,o),
(189,683,o),
(224,683,cs),
(258,683,o),
(279,654,o),
(279,585,cs),
(279,517,o),
(258,485,o),
(224,485,cs)
);
}
);
width = 362;
}
);
metricLeft = "=|n-canadian";
metricRight = "=|n-canadian";
note = uni14D2;
unicode = 5330;
},
{
glyphname = "le-canadian";
kernLeft = neleft;
lastChange = "2023-01-13 15:28:10 +0000";
layers = (
{
anchors = (
{
name = middle_center_can;
pos = (402,254);
},
{
name = top_center_can;
pos = (396,508);
},
{
name = top_left_can;
pos = (83,508);
},
{
name = top_right_can;
pos = (551,508);
}
);
layerId = "2974A4AB-0281-4EAC-B7D6-9B88228DB59B";
shapes = (
{
closed = 1;
nodes = (
(365,0,ls),
(502.006,0,o),
(582,84,o),
(582,244,cs),
(582,404,o),
(503,489,o),
(363,489,cs),
(51,489,l),
(51,431,l),
(362,431,ls),
(464,431,o),
(519,368,o),
(519,243,cs),
(519,120,o),
(465,57,o),
(360,57,cs),
(352,57,l),
(352,0,l)
);
}
);
width = 637;
}
);
metricLeft = "ne-canadian";
metricRight = "=|ke-canadian";
note = uni14D3;
unicode = 5331;
},
{
glyphname = "li-canadian";
kernRight = niright;
lastChange = "2023-01-13 15:28:10 +0000";
layers = (
{
anchors = (
{
name = middle_center_can;
pos = (235,254);
},
{
name = top_center_can;
pos = (243,508);
},
{
name = top_left_can;
pos = (87,508);
},
{
name = top_right_can;
pos = (554,508);
}
);
layerId = "2974A4AB-0281-4EAC-B7D6-9B88228DB59B";
shapes = (
{
closed = 1;
nodes = (
(285,0,l),
(285,57,l),
(277,57,ls),
(172,57,o),
(118,120,o),
(118,244,cs),
(118,369,o),
(173,431,o),
(275,431,cs),
(586,431,l),
(586,489,l),
(273,489,ls),
(137,489,o),
(55,404,o),
(55,244,cs),
(55,84,o),
(135,0,o),
(272,0,cs)
);
}
);
width = 637;
}
);
metricLeft = "ke-canadian";
metricRight = "=|ne-canadian";
note = uni14D5;
unicode = 5333;
},
{
glyphname = "lo-canadian";
kernLeft = noleft;
lastChange = "2023-01-13 15:28:10 +0000";
layers = (
{
anchors = (
{
name = middle_center_can;
pos = (402,254);
},
{
name = top_center_can;
pos = (400,508);
},
{
name = top_double;
pos = (365,508);
},
{
name = top_left_can;
pos = (82,508);
},
{
name = top_right_can;
pos = (551,508);
}
);
layerId = "2974A4AB-0281-4EAC-B7D6-9B88228DB59B";
shapes = (
{
closed = 1;
nodes = (
(364,0,ls),
(500,0,o),
(582,85,o),
(582,245,cs),
(582,405,o),
(502,489,o),
(365,489,cs),
(352,489,l),
(352,432,l),
(360,432,ls),
(465,432,o),
(519,369,o),
(519,246,cs),
(519,121,o),
(464,58,o),
(362,58,cs),
(51,58,l),
(51,0,l)
);
}
);
width = 637;
}
);
metricLeft = "ne-canadian";
metricRight = "=|ke-canadian";
note = uni14D7;
unicode = 5335;
},
{
glyphname = "la-canadian";
kernRight = naright;
lastChange = "2023-01-13 15:28:10 +0000";
layers = (
{
anchors = (
{
name = middle_center_can;
pos = (235,254);
},
{
name = top_center_can;
pos = (237,508);
},
{
name = top_left_can;
pos = (87,508);
},
{
name = top_right_can;
pos = (554,508);
}
);
layerId = "2974A4AB-0281-4EAC-B7D6-9B88228DB59B";
shapes = (
{
closed = 1;
nodes = (
(586,0,l),
(586,58,l),
(275,58,ls),
(172,58,o),
(118,121,o),
(118,246,cs),
(118,369,o),
(172,432,o),
(277,432,cs),
(285,432,l),
(285,489,l),
(272,489,ls),
(135,489,o),
(55,404,o),
(55,245,cs),
(55,85,o),
(136,0,o),
(273,0,cs)
);
}
);
width = 637;
}
);
metricLeft = "ke-canadian";
metricRight = "=|ne-canadian";
note = uni14DA;
unicode = 5338;
},
{
glyphname = "l-canadian";
kernLeft = mwestleft;
kernRight = mwestright;
lastChange = "2023-01-13 15:31:40 +0000";
layers = (
{
layerId = "2974A4AB-0281-4EAC-B7D6-9B88228DB59B";
shapes = (
{
closed = 1;
nodes = (
(332,357,l),
(332,401,l),
(215,401,ls),
(134,401,o),
(97,445,o),
(97,535,cs),
(97,622,o),
(134,670,o),
(204,670,cs),
(208,670,l),
(208,714,l),
(202,714,ls),
(105,714,o),
(51,647,o),
(51,535,cs),
(51,422,o),
(105,357,o),
(211,357,cs)
);
}
);
width = 361;
}
);
metricLeft = "t-canadian";
metricRight = "m-canadian";
note = uni14EA;
unicode = 5354;
},
{
glyphname = "lWestCree-canadian";
kernLeft = mwestleft;
kernRight = mwestright;
lastChange = "2023-01-13 15:31:40 +0000";
layers = (
{
layerId = "2974A4AB-0281-4EAC-B7D6-9B88228DB59B";
shapes = (
{
closed = 1;
nodes = (
(238,357,l),
(238,389,l),
(83,469,l),
(83,447,l),
(238,523,l),
(238,547,l),
(83,624,l),
(83,601,l),
(238,681,l),
(238,714,l),
(229,714,l),
(52,623,l),
(52,603,l),
(208,526,l),
(208,544,l),
(52,468,l),
(52,448,l),
(229,357,l)
);
}
);
width = 290;
}
);
metricRight = "=|";
note = uni14EB;
unicode = 5355;
},
{
glyphname = "mediall-canadian";
lastChange = "2023-01-13 15:31:40 +0000";
layers = (
{
layerId = "2974A4AB-0281-4EAC-B7D6-9B88228DB59B";
shapes = (
{
closed = 1;
nodes = (
(447,-13,l),
(447,35,l),
(114,206,l),
(114,179,l),
(447,341,l),
(447,373,l),
(114,535,l),
(114,508,l),
(447,679,l),
(447,727,l),
(430,727,l),
(60,539,l),
(60,508,l),
(395,346,l),
(395,368,l),
(60,206,l),
(60,175,l),
(430,-13,l)
);
}
);
width = 507;
}
);
metricRight = "=|";
note = uni14EC;
unicode = 5356;
},
{
glyphname = "se-canadian";
kernRight = seright;
lastChange = "2023-01-13 15:28:10 +0000";
layers = (
{
anchors = (
{
name = top_left_can;
pos = (94,714);
},
{
name = top_right_can;
pos = (326,714);
}
);
layerId = "2974A4AB-0281-4EAC-B7D6-9B88228DB59B";
shapes = (
{
closed = 1;
nodes = (
(358,0,l),
(358,326,l),
(322,326,ls),
(188,326,o),
(126,388,o),
(126,556,cs),
(126,714,l),
(63,714,l),
(63,552,ls),
(63,357,o),
(149,268,o),
(312,268,cs),
(341,268,l),
(295,292,l),
(295,0,l)
);
}
);
width = 423;
}
);
note = uni14ED;
unicode = 5357;
},
{
glyphname = "si-canadian";
kernLeft = sileft;
lastChange = "2023-01-13 15:28:10 +0000";
layers = (
{
anchors = (
{
name = top_left_can;
pos = (97,714);
},
{
name = top_right_can;
pos = (329,714);
}
);
layerId = "2974A4AB-0281-4EAC-B7D6-9B88228DB59B";
shapes = (
{
closed = 1;
nodes = (
(128,0,l),
(128,292,l),
(82,268,l),
(111,268,ls),
(274,268,o),
(360,357,o),
(360,552,cs),
(360,714,l),
(297,714,l),
(297,556,ls),
(297,388,o),
(235,326,o),
(101,326,cs),
(65,326,l),
(65,0,l)
);
}
);
width = 423;
}
);
metricLeft = "=|se-canadian";
metricRight = "=|se-canadian";
note = uni14EF;
unicode = 5359;
},
{
glyphname = "so-canadian";
kernRight = soright;
lastChange = "2023-01-13 15:28:10 +0000";
layers = (
{
anchors = (
{
name = top_double;
pos = (327,714);
},
{
name = top_left_can;
pos = (95,714);
},
{
name = top_right_can;
pos = (326,714);
}
);
layerId = "2974A4AB-0281-4EAC-B7D6-9B88228DB59B";
shapes = (
{
closed = 1;
nodes = (
(126,0,l),
(126,158,ls),
(126,326,o),
(188,388,o),
(322,388,cs),
(358,388,l),
(358,714,l),
(295,714,l),
(295,422,l),
(341,446,l),
(312,446,ls),
(149,446,o),
(63,357,o),
(63,162,cs),
(63,0,l)
);
}
);
width = 423;
}
);
metricLeft = "se-canadian";
metricRight = "se-canadian";
note = uni14F1;
unicode = 5361;
},
{
glyphname = "sa-canadian";
kernLeft = saleft;
kernRight = saright;
lastChange = "2023-01-13 15:28:10 +0000";
layers = (
{
anchors = (
{
name = top_left_can;
pos = (97,714);
},
{
name = top_right_can;
pos = (329,714);
}
);
layerId = "2974A4AB-0281-4EAC-B7D6-9B88228DB59B";
shapes = (
{
closed = 1;
nodes = (
(360,0,l),
(360,162,ls),
(360,357,o),
(274,446,o),
(111,446,cs),
(82,446,l),
(128,422,l),
(128,714,l),
(65,714,l),
(65,388,l),
(101,388,ls),
(235,388,o),
(297,326,o),
(297,158,cs),
(297,0,l)
);
}
);
width = 423;
}
);
metricLeft = "=|se-canadian";
metricRight = "=|se-canadian";
note = uni14F4;
unicode = 5364;
},
{
glyphname = "s-canadian";
kernLeft = mwestleft;
kernRight = mwestright;
lastChange = "2023-01-13 15:28:10 +0000";
layers = (
{
layerId = "2974A4AB-0281-4EAC-B7D6-9B88228DB59B";
shapes = (
{
closed = 1;
nodes = (
(224,357,l),
(224,442,ls),
(224,540,o),
(178,589,o),
(96,589,cs),
(71,589,l),
(97,567,l),
(97,714,l),
(52,714,l),
(52,551,l),
(86,551,ls),
(150,551,o),
(179,517,o),
(179,439,cs),
(179,357,l)
);
}
);
width = 276;
}
);
metricRight = "=|";
note = uni1505;
unicode = 5381;
},
{
color = 6;
glyphname = "sAthapascan-canadian";
lastChange = "2023-01-13 15:28:10 +0000";
layers = (
{
layerId = "2974A4AB-0281-4EAC-B7D6-9B88228DB59B";
shapes = (
{
closed = 1;
nodes = (
(213,183,o),
(249,224,o),
(249,277,cs),
(249,323,o),
(230,352,o),
(184,374,cs),
(141,395,ls),
(107,412,o),
(99,430,o),
(99,458,cs),
(99,492,o),
(117,515,o),
(153,515,cs),
(188,515,o),
(210,497,o),
(208,444,c),
(250,444,l),
(252,510,o),
(218,552,o),
(152,552,cs),
(92,552,o),
(57,512,o),
(57,458,cs),
(57,412,o),
(77,381,o),
(119,361,cs),
(163,340,ls),
(195,324,o),
(207,308,o),
(207,276,cs),
(207,240,o),
(187,220,o),
(152,220,cs),
(115,220,o),
(93,238,o),
(94,294,c),
(52,294,l),
(50,222,o),
(86,183,o),
(151,183,cs)
);
}
);
width = 302;
}
);
metricRight = "=|";
note = uni1506;
unicode = 5382;
},
{
glyphname = "sw-canadian";
kernLeft = mwestleft;
kernRight = mwestright;
lastChange = "2023-01-13 15:28:10 +0000";
layers = (
{
layerId = "2974A4AB-0281-4EAC-B7D6-9B88228DB59B";
shapes = (
{
closed = 1;
nodes = (
(97,357,l),
(97,439,ls),
(97,517,o),
(127,551,o),
(191,551,cs),
(224,551,l),
(224,714,l),
(179,714,l),
(179,567,l),
(205,589,l),
(180,589,ls),
(99,589,o),
(52,540,o),
(52,442,cs),
(52,357,l)
);
}
);
width = 276;
}
);
metricLeft = "=|s-canadian";
metricRight = "=|s-canadian";
note = uni1507;
unicode = 5383;
},
{
glyphname = "sBlackfoot-canadian";
lastChange = "2023-01-13 15:28:10 +0000";
layers = (
{
layerId = "2974A4AB-0281-4EAC-B7D6-9B88228DB59B";
shapes = (
{
closed = 1;
nodes = (
(231,357,l),
(231,401,l),
(172,401,ls),
(116,401,o),
(97,425,o),
(97,485,cs),
(97,714,l),
(52,714,l),
(52,480,ls),
(52,399,o),
(87,357,o),
(168,357,c)
);
}
);
width = 260;
}
);
metricLeft = "ai-canadian";
metricRight = "m-canadian";
note = uni1508;
unicode = 5384;
},
{
glyphname = "moosecreesk-canadian";
kernLeft = mwestleft;
kernRight = mwestright;
lastChange = "2023-01-13 15:28:10 +0000";
layers = (
{
layerId = "2974A4AB-0281-4EAC-B7D6-9B88228DB59B";
shapes = (
{
closed = 1;
nodes = (
(205,225,o),
(246,268,o),
(246,378,cs),
(246,522,o),
(197,590,o),
(86,590,cs),
(77,590,l),
(97,567,l),
(97,714,l),
(52,714,l),
(52,552,l),
(78,552,ls),
(167,552,o),
(194,508,o),
(200,424,c),
(213,414,l),
(207,460,o),
(179,495,o),
(143,495,cs),
(91,495,o),
(53,448,o),
(53,362,cs),
(53,269,o),
(97,225,o),
(149,225,cs)
);
},
{
closed = 1;
nodes = (
(117,261,o),
(94,292,o),
(94,362,cs),
(94,430,o),
(117,460,o),
(149,460,cs),
(181,460,o),
(204,429,o),
(204,361,cs),
(204,289,o),
(183,261,o),
(149,261,cs)
);
}
);
width = 298;
}
);
metricRight = "=|";
note = uni1509;
unicode = 5385;
},
{
glyphname = "skwNaskapi-canadian";
kernLeft = mwestleft;
kernRight = mwestright;
lastChange = "2023-01-13 15:28:10 +0000";
layers = (
{
layerId = "2974A4AB-0281-4EAC-B7D6-9B88228DB59B";
shapes = (
{
closed = 1;
nodes = (
(202,225,o),
(246,269,o),
(246,362,cs),
(246,448,o),
(207,495,o),
(155,495,cs),
(120,495,o),
(91,460,o),
(85,414,c),
(98,424,l),
(105,508,o),
(131,552,o),
(220,552,cs),
(246,552,l),
(246,714,l),
(201,714,l),
(201,567,l),
(222,590,l),
(212,590,ls),
(102,590,o),
(52,522,o),
(52,378,cs),
(52,268,o),
(93,225,o),
(149,225,cs)
);
},
{
closed = 1;
nodes = (
(115,261,o),
(94,289,o),
(94,361,cs),
(94,429,o),
(117,460,o),
(149,460,cs),
(181,460,o),
(204,430,o),
(204,362,cs),
(204,292,o),
(182,261,o),
(149,261,cs)
);
}
);
width = 298;
}
);
metricLeft = "=|moosecreesk-canadian";
metricRight = "=|moosecreesk-canadian";
note = uni150A;
unicode = 5386;
},
{
glyphname = "swNaskapi-canadian";
lastChange = "2023-01-13 15:31:40 +0000";
layers = (
{
layerId = "2974A4AB-0281-4EAC-B7D6-9B88228DB59B";
shapes = (
{
closed = 1;
nodes = (
(243,184,l),
(243,263,ls),
(243,359,o),
(197,411,o),
(116,411,cs),
(90,411,l),
(113,389,l),
(113,531,l),
(69,531,l),
(69,373,l),
(108,373,ls),
(169,373,o),
(199,338,o),
(199,260,cs),
(199,184,l)
);
},
{
closed = 1;
nodes = (
(245,65,o),
(264,84,o),
(264,107,cs),
(264,131,o),
(244,150,o),
(222,150,cs),
(199,150,o),
(180,131,o),
(180,107,cs),
(180,84,o),
(199,65,o),
(222,65,cs)
);
},
{
closed = 1;
nodes = (
(114,564,o),
(133,583,o),
(133,606,cs),
(133,630,o),
(114,649,o),
(91,649,cs),
(68,649,o),
(49,630,o),
(49,606,cs),
(49,583,o),
(68,564,o),
(91,564,cs)
);
}
);
width = 313;
}
);
metricRight = "=|";
note = uni150B;
unicode = 5387;
},
{
glyphname = "spwaNaskapi-canadian";
lastChange = "2023-01-13 15:28:10 +0000";
layers = (
{
layerId = "2974A4AB-0281-4EAC-B7D6-9B88228DB59B";
shapes = (
{
closed = 1;
nodes = (
(469,0,l),
(469,58,l),
(86,373,l),
(86,341,l),
(469,656,l),
(469,714,l),
(451,714,l),
(31,370,l),
(31,344,l),
(451,0,l)
);
},
{
closed = 1;
nodes = (
(132,511,o),
(152,529,o),
(152,553,cs),
(152,577,o),
(132,596,o),
(109,596,cs),
(87,596,o),
(67,577,o),
(67,553,cs),
(67,529,o),
(87,511,o),
(109,511,cs)
);
},
{
closed = 1;
nodes = (
(272,619,l),
(272,681,ls),
(272,747,o),
(242,783,o),
(178,783,cs),
(157,783,l),
(188,764,l),
(188,865,l),
(146,865,l),
(146,747,l),
(169,747,ls),
(210,747,o),
(230,727,o),
(230,676,cs),
(230,619,l)
);
},
{
closed = 1;
nodes = (
(398,724,o),
(418,743,o),
(418,767,cs),
(418,791,o),
(398,810,o),
(375,810,cs),
(353,810,o),
(333,791,o),
(333,767,cs),
(333,743,o),
(353,724,o),
(375,724,cs)
);
}
);
width = 512;
}
);
metricRight = "pa-canadian";
metricWidth = "pa-canadian";
note = uni150C;
unicode = 5388;
},
{
glyphname = "she-canadian";
kernRight = caright;
lastChange = "2023-01-13 15:31:40 +0000";
layers = (
{
anchors = (
{
name = top_left_can;
pos = (227,714);
},
{
name = top_right_can;
pos = (537,714);
}
);
layerId = "2974A4AB-0281-4EAC-B7D6-9B88228DB59B";
shapes = (
{
closed = 1;
nodes = (
(604,-13,o),
(667,67,o),
(667,226,cs),
(667,309,l),
(603,309,l),
(603,216,ls),
(603,98,o),
(567,44,o),
(504,44,cs),
(435,44,o),
(406,97,o),
(399,226,cs),
(387,487,ls),
(380,647,o),
(333,727,o),
(223,727,cs),
(120,727,o),
(58,648,o),
(58,488,cs),
(58,405,l),
(121,405,l),
(121,498,ls),
(121,617,o),
(157,670,o),
(220,670,cs),
(289,670,o),
(318,617,o),
(325,488,cs),
(337,227,ls),
(344,67,o),
(392,-13,o),
(501,-13,cs)
);
}
);
width = 725;
}
);
metricRight = "=|";
note = uni1510;
unicode = 5392;
},
{
glyphname = "shi-canadian";
kernLeft = coleft;
lastChange = "2023-01-13 15:31:40 +0000";
layers = (
{
anchors = (
{
name = top_left_can;
pos = (190,714);
},
{
name = top_right_can;
pos = (500,714);
}
);
layerId = "2974A4AB-0281-4EAC-B7D6-9B88228DB59B";
shapes = (
{
closed = 1;
nodes = (
(333,-13,o),
(380,67,o),
(387,227,cs),
(399,488,ls),
(406,617,o),
(435,670,o),
(504,670,cs),
(567,670,o),
(603,617,o),
(603,498,cs),
(603,405,l),
(667,405,l),
(667,488,ls),
(667,648,o),
(604,727,o),
(501,727,cs),
(391,727,o),
(344,647,o),
(337,487,cs),
(325,226,ls),
(319,97,o),
(289,44,o),
(220,44,cs),
(157,44,o),
(121,98,o),
(121,216,cs),
(121,309,l),
(58,309,l),
(58,226,ls),
(58,67,o),
(121,-13,o),
(223,-13,cs)
);
}
);
width = 725;
}
);
metricLeft = "she-canadian";
metricRight = "she-canadian";
note = uni1511;
unicode = 5393;
},
{
glyphname = "sho-canadian";
lastChange = "2023-01-13 15:28:10 +0000";
layers = (
{
anchors = (
{
name = top_center_can;
pos = (368,508);
},
{
name = top_left_can;
pos = (224,508);
},
{
name = top_right_can;
pos = (513,508);
}
);
layerId = "2974A4AB-0281-4EAC-B7D6-9B88228DB59B";
shapes = (
{
closed = 1;
nodes = (
(283,44,l),
(171,43,o),
(118,92,o),
(118,180,cs),
(118,250,o),
(151,297,o),
(215,297,cs),
(315,297,o),
(403,134,o),
(531,134,cs),
(626,134,o),
(682,204,o),
(682,307,cs),
(682,431,o),
(600,503,o),
(456,502,c),
(454,445,l),
(567,446,o),
(620,398,o),
(620,309,cs),
(620,239,o),
(586,192,o),
(522,192,cs),
(422,192,o),
(334,355,o),
(207,355,cs),
(112,355,o),
(55,286,o),
(55,182,cs),
(55,59,o),
(137,-14,o),
(281,-13,c)
);
}
);
width = 737;
}
);
metricLeft = "ke-canadian";
metricRight = "=|ke-canadian";
note = uni1513;
unicode = 5395;
},
{
glyphname = "sha-canadian";
lastChange = "2023-01-13 15:28:10 +0000";
layers = (
{
anchors = (
{
name = top_center_can;
pos = (369,508);
},
{
name = top_left_can;
pos = (223,508);
},
{
name = top_right_can;
pos = (514,508);
}
);
layerId = "2974A4AB-0281-4EAC-B7D6-9B88228DB59B";
shapes = (
{
closed = 1;
nodes = (
(600,-14,o),
(682,59,o),
(682,182,cs),
(682,286,o),
(626,355,o),
(531,355,cs),
(403,355,o),
(315,192,o),
(215,192,cs),
(151,192,o),
(118,239,o),
(118,309,cs),
(118,398,o),
(171,446,o),
(283,445,c),
(281,502,l),
(137,503,o),
(55,431,o),
(55,307,cs),
(55,204,o),
(112,134,o),
(207,134,cs),
(334,134,o),
(422,297,o),
(522,297,cs),
(586,297,o),
(620,250,o),
(620,180,cs),
(620,92,o),
(567,43,o),
(454,44,c),
(456,-13,l)
);
}
);
width = 737;
}
);
metricLeft = "ke-canadian";
metricRight = "=|ke-canadian";
note = uni1515;
unicode = 5397;
},
{
glyphname = "sh-canadian";
kernLeft = mwestleft;
kernRight = mwestright;
lastChange = "2023-01-13 15:28:10 +0000";
layers = (
{
layerId = "2974A4AB-0281-4EAC-B7D6-9B88228DB59B";
shapes = (
{
closed = 1;
nodes = (
(443,301,o),
(510,356,o),
(510,449,cs),
(510,533,o),
(462,582,o),
(392,582,cs),
(302,582,o),
(245,485,o),
(174,485,cs),
(126,485,o),
(97,514,o),
(97,574,cs),
(97,638,o),
(143,679,o),
(232,679,c),
(231,722,l),
(118,722,o),
(51,666,o),
(51,574,cs),
(51,489,o),
(100,440,o),
(169,440,cs),
(259,440,o),
(316,537,o),
(387,537,cs),
(435,537,o),
(465,508,o),
(465,448,cs),
(465,384,o),
(418,343,o),
(329,343,c),
(331,301,l)
);
}
);
width = 561;
}
);
metricLeft = "t-canadian";
metricRight = "=|";
note = uni1525;
unicode = 5413;
},
{
glyphname = "ye-canadian";
kernLeft = yeleft;
lastChange = "2023-01-13 15:28:10 +0000";
layers = (
{
anchors = (
{
name = middle_right_can;
pos = (469,357);
},
{
name = top_left_can;
pos = (73,714);
},
{
name = top_right_can;
pos = (356,714);
}
);
layerId = "2974A4AB-0281-4EAC-B7D6-9B88228DB59B";
shapes = (
{
closed = 1;
nodes = (
(387,0,l),
(387,321,l),
(116,321,l),
(120,300,l),
(402,691,l),
(355,726,l),
(41,290,l),
(41,264,l),
(323,264,l),
(323,0,l)
);
}
);
width = 448;
}
);
note = uni1526;
unicode = 5414;
},
{
glyphname = "yi-canadian";
kernRight = yiright;
lastChange = "2023-01-13 15:31:40 +0000";
layers = (
{
anchors = (
{
name = top_left_can;
pos = (94,714);
},
{
name = top_right_can;
pos = (376,714);
}
);
layerId = "2974A4AB-0281-4EAC-B7D6-9B88228DB59B";
shapes = (
{
closed = 1;
nodes = (
(125,0,l),
(125,264,l),
(407,264,l),
(407,290,l),
(93,726,l),
(46,691,l),
(329,300,l),
(333,321,l),
(62,321,l),
(62,0,l)
);
}
);
width = 448;
}
);
metricRight = "=|ye-canadian";
metricWidth = "ye-canadian";
note = uni1528;
unicode = 5416;
},
{
glyphname = "yo-canadian";
kernLeft = yoleft;
lastChange = "2023-01-13 15:28:10 +0000";
layers = (
{
anchors = (
{
name = middle_right_can;
pos = (469,357);
},
{
name = top_double;
pos = (356,714);
},
{
name = top_left_can;
pos = (73,714);
},
{
name = top_right_can;
pos = (356,714);
}
);
layerId = "2974A4AB-0281-4EAC-B7D6-9B88228DB59B";
shapes = (
{
closed = 1;
nodes = (
(402,23,l),
(120,414,l),
(116,393,l),
(387,393,l),
(387,714,l),
(323,714,l),
(323,450,l),
(41,450,l),
(41,424,l),
(355,-12,l)
);
}
);
width = 448;
}
);
metricLeft = "ye-canadian";
metricWidth = "ye-canadian";
note = uni152A;
unicode = 5418;
},
{
glyphname = "ya-canadian";
kernRight = yaright;
lastChange = "2023-01-13 15:31:40 +0000";
layers = (
{
anchors = (
{
name = top_left_can;
pos = (94,714);
},
{
name = top_right_can;
pos = (376,714);
}
);
layerId = "2974A4AB-0281-4EAC-B7D6-9B88228DB59B";
shapes = (
{
closed = 1;
nodes = (
(407,424,l),
(407,450,l),
(125,450,l),
(125,714,l),
(62,714,l),
(62,393,l),
(333,393,l),
(329,414,l),
(47,23,l),
(93,-12,l)
);
}
);
width = 448;
}
);
metricRight = "=|ye-canadian";
metricWidth = "ye-canadian";
note = uni152D;
unicode = 5421;
},
{
glyphname = "y-canadian";
kernLeft = mwestleft;
kernRight = mwestright;
lastChange = "2023-01-13 15:28:10 +0000";
layers = (
{
layerId = "2974A4AB-0281-4EAC-B7D6-9B88228DB59B";
shapes = (
{
closed = 1;
nodes = (
(240,565,l),
(240,582,l),
(101,582,l),
(101,714,l),
(56,714,l),
(56,542,l),
(194,542,l),
(193,569,l),
(52,372,l),
(86,349,l)
);
}
);
width = 268;
}
);
note = uni153E;
unicode = 5438;
},
{
glyphname = "biblecreey-canadian";
lastChange = "2023-01-13 15:28:10 +0000";
layers = (
{
layerId = "2974A4AB-0281-4EAC-B7D6-9B88228DB59B";
shapes = (
{
closed = 1;
nodes = (
(136,661,l),
(113,661,l),
(188,357,l),
(214,357,l),
(289,661,l),
(266,661,l),
(320,357,l),
(360,357,l),
(360,370,l),
(298,714,l),
(264,714,l),
(187,406,l),
(215,406,l),
(137,714,l),
(104,714,l),
(42,370,l),
(42,357,l),
(82,357,l)
);
}
);
width = 402;
}
);
metricRight = "=|";
note = uni153F;
unicode = 5439;
},
{
glyphname = "yWestCree-canadian";
lastChange = "2023-01-13 15:28:10 +0000";
layers = (
{
layerId = "2974A4AB-0281-4EAC-B7D6-9B88228DB59B";
shapes = (
{
closed = 1;
nodes = (
(200,208,l),
(200,334,l),
(303,334,l),
(303,378,l),
(200,378,l),
(200,501,l),
(157,501,l),
(157,378,l),
(52,378,l),
(52,334,l),
(157,334,l),
(157,208,l)
);
}
);
width = 355;
}
);
metricLeft = "shorthorizontalstrokeFinal-canadian";
metricRight = "shorthorizontalstrokeFinal-canadian";
note = uni1540;
unicode = 5440;
},
{
glyphname = "re-canadian";
kernRight = niright;
lastChange = "2023-01-13 15:28:10 +0000";
layers = (
{
anchors = (
{
name = top_center_can;
pos = (237,508);
},
{
name = top_left_can;
pos = (95,508);
},
{
name = top_right_can;
pos = (588,508);
}
);
layerId = "2974A4AB-0281-4EAC-B7D6-9B88228DB59B";
shapes = (
{
closed = 1;
nodes = (
(350,-13,o),
(410,71,o),
(410,214,cs),
(410,431,l),
(620,431,l),
(620,489,l),
(348,489,l),
(348,205,ls),
(348,98,o),
(311,44,o),
(237,44,cs),
(163,44,o),
(126,99,o),
(126,205,cs),
(126,489,l),
(63,489,l),
(63,214,ls),
(63,68,o),
(126,-13,o),
(237,-13,cs)
);
}
);
width = 671;
}
);
metricRight = "=|ne-canadian";
note = uni1542;
unicode = 5442;
},
{
glyphname = "reRCree-canadian";
kernLeft = neleft;
lastChange = "2023-01-13 15:31:40 +0000";
layers = (
{
anchors = (
{
name = top_center_can;
pos = (434,508);
},
{
name = top_left_can;
pos = (83,508);
},
{
name = top_right_can;
pos = (577,508);
}
);
layerId = "2974A4AB-0281-4EAC-B7D6-9B88228DB59B";
shapes = (
{
closed = 1;
nodes = (
(546,-13,o),
(609,68,o),
(609,214,cs),
(609,489,l),
(545,489,l),
(545,205,ls),
(545,99,o),
(508,44,o),
(434,44,cs),
(360,44,o),
(323,98,o),
(323,205,cs),
(323,489,l),
(51,489,l),
(51,431,l),
(261,431,l),
(261,214,ls),
(261,71,o),
(321,-13,o),
(434,-13,cs)
);
}
);
width = 672;
}
);
metricLeft = "ne-canadian";
metricRight = "=|re-canadian";
note = uni1543;
unicode = 5443;
},
{
glyphname = "leWestCree-canadian";
kernLeft = noleft;
lastChange = "2023-01-13 15:31:40 +0000";
layers = (
{
anchors = (
{
name = top_center_can;
pos = (434,508);
},
{
name = top_left_can;
pos = (83,508);
},
{
name = top_right_can;
pos = (577,508);
}
);
layerId = "2974A4AB-0281-4EAC-B7D6-9B88228DB59B";
shapes = (
{
closed = 1;
nodes = (
(323,0,l),
(323,284,ls),
(323,391,o),
(360,445,o),
(434,445,cs),
(508,445,o),
(545,390,o),
(545,284,cs),
(545,0,l),
(609,0,l),
(609,275,ls),
(609,421,o),
(546,502,o),
(434,502,cs),
(321,502,o),
(261,418,o),
(261,275,cs),
(261,59,l),
(51,59,l),
(51,0,l)
);
}
);
width = 672;
}
);
metricLeft = "ne-canadian";
metricRight = "=|re-canadian";
note = uni1544;
unicode = 5444;
},
{
glyphname = "ri-canadian";
kernRight = naright;
lastChange = "2023-01-13 15:28:10 +0000";
layers = (
{
anchors = (
{
name = top_center_can;
pos = (237,508);
},
{
name = top_left_can;
pos = (95,508);
},
{
name = top_right_can;
pos = (588,508);
}
);
layerId = "2974A4AB-0281-4EAC-B7D6-9B88228DB59B";
shapes = (
{
closed = 1;
nodes = (
(126,0,l),
(126,284,ls),
(126,390,o),
(163,445,o),
(238,445,cs),
(311,445,o),
(348,391,o),
(348,284,cs),
(348,0,l),
(620,0,l),
(620,59,l),
(410,59,l),
(410,275,ls),
(410,418,o),
(350,502,o),
(237,502,cs),
(126,502,o),
(63,421,o),
(63,275,cs),
(63,0,l)
);
}
);
width = 671;
}
);
metricLeft = "re-canadian";
metricRight = "=|ne-canadian";
note = uni1546;
unicode = 5446;
},
{
glyphname = "ro-canadian";
lastChange = "2023-01-13 15:28:10 +0000";
layers = (
{
anchors = (
{
name = top_center_can;
pos = (185,714);
}
);
layerId = "2974A4AB-0281-4EAC-B7D6-9B88228DB59B";
shapes = (
{
closed = 1;
nodes = (
(128,0,l),
(128,286,l),
(113,265,l),
(173,265,ls),
(297,265,o),
(375,354,o),
(375,488,cs),
(375,625,o),
(302,714,o),
(164,714,cs),
(65,714,l),
(65,656,l),
(157,656,ls),
(260,656,o),
(311,591,o),
(311,488,cs),
(311,387,o),
(259,322,o),
(157,322,cs),
(65,322,l),
(65,0,l)
);
}
);
width = 424;
}
);
metricLeft = "nunavuth-canadian";
note = uni1548;
unicode = 5448;
},
{
glyphname = "loWestCree-canadian";
lastChange = "2023-01-13 15:28:10 +0000";
layers = (
{
anchors = (
{
name = top_center_can;
pos = (203,714);
},
{
name = top_left_can;
pos = (97,714);
}
);
layerId = "2974A4AB-0281-4EAC-B7D6-9B88228DB59B";
shapes = (
{
closed = 1;
nodes = (
(164,0,ls),
(302,0,o),
(375,89,o),
(375,226,cs),
(375,360,o),
(297,450,o),
(173,450,cs),
(113,450,l),
(128,428,l),
(128,714,l),
(65,714,l),
(65,393,l),
(157,393,ls),
(259,393,o),
(311,327,o),
(311,226,cs),
(311,124,o),
(260,58,o),
(157,58,cs),
(65,58,l),
(65,0,l)
);
}
);
width = 424;
}
);
metricLeft = "nunavuth-canadian";
metricRight = "ro-canadian";
note = uni154A;
unicode = 5450;
},
{
glyphname = "ra-canadian";
lastChange = "2023-01-13 15:31:40 +0000";
layers = (
{
anchors = (
{
name = top_center_can;
pos = (237,714);
},
{
name = top_right_can;
pos = (327,714);
}
);
layerId = "2974A4AB-0281-4EAC-B7D6-9B88228DB59B";
shapes = (
{
closed = 1;
nodes = (
(359,0,l),
(359,322,l),
(266,322,ls),
(164,322,o),
(112,387,o),
(112,488,cs),
(112,591,o),
(163,656,o),
(267,656,cs),
(359,656,l),
(359,714,l),
(260,714,ls),
(121,714,o),
(49,625,o),
(49,488,cs),
(49,354,o),
(126,265,o),
(250,265,cs),
(310,265,l),
(295,286,l),
(295,0,l)
);
}
);
width = 424;
}
);
metricLeft = "=|ro-canadian";
metricRight = "nunavuth-canadian";
note = uni154B;
unicode = 5451;
},
{
glyphname = "laWestCree-canadian";
lastChange = "2023-01-13 15:31:40 +0000";
layers = (
{
anchors = (
{
name = top_center_can;
pos = (327,714);
}
);
layerId = "2974A4AB-0281-4EAC-B7D6-9B88228DB59B";
shapes = (
{
closed = 1;
nodes = (
(359,0,l),
(359,58,l),
(267,58,ls),
(163,58,o),
(112,124,o),
(112,226,cs),
(112,327,o),
(164,393,o),
(266,393,cs),
(359,393,l),
(359,714,l),
(295,714,l),
(295,428,l),
(310,450,l),
(250,450,ls),
(126,450,o),
(49,360,o),
(49,226,cs),
(49,89,o),
(121,0,o),
(260,0,cs)
);
}
);
width = 424;
}
);
metricLeft = "=|ro-canadian";
metricRight = "nunavuth-canadian";
note = uni154D;
unicode = 5453;
},
{
glyphname = "r-canadian";
kernLeft = mwestleft;
kernRight = mwestright;
lastChange = "2023-01-13 15:28:10 +0000";
layers = (
{
layerId = "2974A4AB-0281-4EAC-B7D6-9B88228DB59B";
shapes = (
{
closed = 1;
nodes = (
(200,357,l),
(200,525,l),
(160,525,ls),
(113,525,o),
(86,549,o),
(86,600,cs),
(86,651,o),
(115,675,o),
(162,675,cs),
(200,675,l),
(200,714,l),
(161,714,ls),
(86.995,714,o),
(42,674,o),
(42,600,cs),
(42,529,o),
(85,487,o),
(155,487,cs),
(182,487,l),
(154,503,l),
(154,357,l)
);
}
);
width = 252;
}
);
metricLeft = "=|k-canadian";
note = uni1550;
unicode = 5456;
},
{
glyphname = "rWestCree-canadian";
kernLeft = mwestleft;
kernRight = mwestright;
lastChange = "2023-01-13 15:31:40 +0000";
layers = (
{
layerId = "2974A4AB-0281-4EAC-B7D6-9B88228DB59B";
shapes = (
{
closed = 1;
nodes = (
(62,357,l),
(238,448,l),
(238,468,l),
(83,544,l),
(83,526,l),
(238,603,l),
(238,623,l),
(62,714,l),
(52,714,l),
(52,681,l),
(208,601,l),
(208,624,l),
(52,547,l),
(52,523,l),
(208,447,l),
(208,469,l),
(52,389,l),
(52,357,l)
);
}
);
width = 290;
}
);
metricLeft = "=|lWestCree-canadian";
metricRight = "=|lWestCree-canadian";
note = uni1551;
unicode = 5457;
},
{
glyphname = "rMedial-canadian";
lastChange = "2023-01-13 15:28:10 +0000";
layers = (
{
layerId = "2974A4AB-0281-4EAC-B7D6-9B88228DB59B";
shapes = (
{
closed = 1;
nodes = (
(78,-13,l),
(462,175,l),
(462,204,l),
(119,366,l),
(119,348,l),
(462,510,l),
(462,539,l),
(78,727,l),
(60,727,l),
(60,680,l),
(408,509,l),
(408,537,l),
(60,375,l),
(60,339,l),
(408,177,l),
(408,205,l),
(60,34,l),
(60,-13,l)
);
}
);
width = 522;
}
);
metricLeft = "mediall-canadian";
metricRight = "mediall-canadian";
note = uni1552;
unicode = 5458;
},
{
glyphname = "fe-canadian";
kernLeft = ecanleft;
kernRight = ecanright;
lastChange = "2023-01-13 15:28:10 +0000";
layers = (
{
layerId = "2974A4AB-0281-4EAC-B7D6-9B88228DB59B";
shapes = (
{
closed = 1;
nodes = (
(305,0,l),
(569,694,l),
(569,714,l),
(519,714,l),
(282,72,l),
(299,72,l),
(181,373,l),
(155,365,l),
(175,342,o),
(197,333,o),
(224,333,cs),
(297,333,o),
(348,408,o),
(348,530,cs),
(348,654,o),
(302,727,o),
(219,727,cs),
(136,727,o),
(90,654,o),
(90,541,cs),
(90,482,o),
(102,427,o),
(125,371,cs),
(280,0,l)
);
},
{
closed = 1;
nodes = (
(167,379,o),
(141,440,o),
(141,540,cs),
(141,633,o),
(169,679,o),
(219,679,cs),
(269,679,o),
(297,633,o),
(297,529,cs),
(297,426,o),
(269,379,o),
(221,379,cs)
);
}
);
width = 597;
}
);
metricRight = "e-canadian";
note = uni1553;
unicode = 5459;
},
{
glyphname = "fi-canadian";
kernLeft = icanleft;
kernRight = icanright;
lastChange = "2023-01-13 15:28:10 +0000";
layers = (
{
anchors = (
{
name = top_center_can;
pos = (295,714);
},
{
name = top_left_can;
pos = (115,714);
},
{
name = top_right_can;
pos = (497,714);
}
);
layerId = "2974A4AB-0281-4EAC-B7D6-9B88228DB59B";
shapes = (
{
closed = 1;
nodes = (
(302,-13,o),
(348,60,o),
(348,184,cs),
(348,306,o),
(297,381,o),
(224,381,cs),
(197,381,o),
(175,372,o),
(155,349,c),
(181,341,l),
(299,642,l),
(282,642,l),
(519,0,l),
(569,0,l),
(569,20,l),
(305,714,l),
(280,714,l),
(125,343,ls),
(102,287,o),
(90,232,o),
(90,173,cs),
(90,60,o),
(136,-13,o),
(219,-13,cs)
);
},
{
closed = 1;
nodes = (
(169,35,o),
(141,81,o),
(141,174,cs),
(141,274,o),
(167,335,o),
(221,335,cs),
(269,335,o),
(297,288,o),
(297,185,cs),
(297,81,o),
(269,35,o),
(219,35,cs)
);
}
);
width = 597;
}
);
metricLeft = "fe-canadian";
metricRight = "e-canadian";
note = uni1555;
unicode = 5461;
},
{
glyphname = "fo-canadian";
kernLeft = ocanleft;
kernRight = ocanright;
lastChange = "2023-01-13 15:28:10 +0000";
layers = (
{
anchors = (
{
name = top_center_can;
pos = (174,714);
}
);
layerId = "2974A4AB-0281-4EAC-B7D6-9B88228DB59B";
shapes = (
{
closed = 1;
nodes = (
(92,0,l),
(506,344,l),
(506,370,l),
(267,678,ls),
(241,712,o),
(208,727,o),
(172,727,cs),
(91,727,o),
(47,654,o),
(47,528,cs),
(47,408,o),
(95,331,o),
(174,331,cs),
(251,331,o),
(298,408,o),
(298,528,cs),
(298,581,o),
(286,623,o),
(274,650,c),
(255,612,l),
(458,352,l),
(458,373,l),
(74,54,l),
(74,0,l)
);
},
{
closed = 1;
nodes = (
(125,379,o),
(98,425,o),
(98,529,cs),
(98,633,o),
(125,679,o),
(174,679,cs),
(224,679,o),
(250,633,o),
(250,529,cs),
(250,426,o),
(224,379,o),
(174,379,cs)
);
}
);
width = 538;
}
);
metricRight = "o-canadian";
note = uni1557;
unicode = 5463;
},
{
glyphname = "fa-canadian";
kernLeft = acanleft;
kernRight = acanright;
lastChange = "2023-01-13 15:28:10 +0000";
layers = (
{
anchors = (
{
name = top_center_can;
pos = (364,714);
}
);
layerId = "2974A4AB-0281-4EAC-B7D6-9B88228DB59B";
shapes = (
{
closed = 1;
nodes = (
(464,0,l),
(464,54,l),
(80,373,l),
(80,352,l),
(283,612,l),
(263,650,l),
(251,623,o),
(239,581,o),
(239,528,cs),
(239,408,o),
(286,331,o),
(364,331,cs),
(443,331,o),
(491,408,o),
(491,528,cs),
(491,654,o),
(447,727,o),
(365,727,cs),
(330,727,o),
(297,712,o),
(270,678,cs),
(31,370,l),
(31,344,l),
(445,0,l)
);
},
{
closed = 1;
nodes = (
(314,379,o),
(287,426,o),
(287,529,cs),
(287,633,o),
(314.009,679.007,o),
(363,679,cs),
(413,679,o),
(440,633,o),
(440,529,cs),
(440,425,o),
(413,379,o),
(363,379,cs)
);
}
);
width = 538;
}
);
metricRight = "=|fo-canadian";
note = uni1559;
unicode = 5465;
},
{
glyphname = "f-canadian";
kernLeft = mwestleft;
kernRight = mwestright;
lastChange = "2023-01-13 15:28:10 +0000";
layers = (
{
layerId = "2974A4AB-0281-4EAC-B7D6-9B88228DB59B";
shapes = (
{
closed = 1;
nodes = (
(258,357,l),
(258,389,l),
(74,544,l),
(74,536,l),
(165,651,l),
(158,681,l),
(152,666,o),
(147,646,o),
(147,618,cs),
(147,552,o),
(173,522,o),
(209,522,cs),
(247,522,o),
(271,554,o),
(271,621,cs),
(271,691,o),
(245,720,o),
(208,720,cs),
(192,720,o),
(175,712,o),
(159,692,cs),
(42,544,l),
(42,527,l),
(247,357,l)
);
},
{
closed = 1;
nodes = (
(187,550,o),
(175,571,o),
(175,620,cs),
(175,667,o),
(187,692,o),
(208,692,cs),
(230,692,o),
(242,672,o),
(242,620,cs),
(242,570,o),
(231,550,o),
(209,550,cs)
);
}
);
width = 319;
}
);
note = uni155D;
unicode = 5469;
},
{
glyphname = "the-canadian";
lastChange = "2023-01-13 15:28:10 +0000";
layers = (
{
anchors = (
{
name = middle_right_can;
pos = (602,357);
},
{
name = top_center_can;
pos = (285,714);
},
{
name = top_left_can;
pos = (93,714);
},
{
name = top_right_can;
pos = (477,714);
}
);
layerId = "2974A4AB-0281-4EAC-B7D6-9B88228DB59B";
shapes = (
{
closed = 1;
nodes = (
(426,-13,o),
(510,73,o),
(510,245,cs),
(510,714,l),
(446,714,l),
(446,243,ls),
(446,107,o),
(389,47,o),
(285,47,cs),
(184,47,o),
(124,111,o),
(124,246,cs),
(124,445,l),
(94,431,l),
(104,372,o),
(143,331,o),
(191,331,cs),
(268,331,o),
(317,406,o),
(317,529,cs),
(317,652,o),
(272,727,o),
(190,727,cs),
(106,727,o),
(61,653,o),
(61,514,cs),
(61,257,ls),
(61,77,o),
(145,-13,o),
(285,-13,cs)
);
},
{
closed = 1;
nodes = (
(142,379,o),
(113,426,o),
(113,529,cs),
(113,632,o),
(140,679,o),
(189,679,cs),
(238,679,o),
(265,632,o),
(265,530,cs),
(265,427,o),
(239,379,o),
(191,379,cs)
);
}
);
width = 571;
}
);
metricLeft = "te-canadian";
metricRight = "te-canadian";
note = uni155E;
unicode = 5470;
},
{
glyphname = "theNCree-canadian";
lastChange = "2023-01-13 15:28:10 +0000";
layers = (
{
layerId = "2974A4AB-0281-4EAC-B7D6-9B88228DB59B";
shapes = (
{
closed = 1;
nodes = (
(428,-13,o),
(510,73,o),
(510,255,cs),
(510,514,ls),
(510,653,o),
(465,727,o),
(381,727,cs),
(298,727,o),
(254,652,o),
(254,529,cs),
(254,406,o),
(303,331,o),
(379,331,cs),
(428,331,o),
(467,372,o),
(477,431,c),
(447,445,l),
(447,245,ls),
(447,108,o),
(389,46,o),
(286,46,cs),
(183,46,o),
(125,108,o),
(125,241,cs),
(125,714,l),
(61,714,l),
(61,242,ls),
(61,74,o),
(146,-13,o),
(286,-13,cs)
);
},
{
closed = 1;
nodes = (
(332,379,o),
(306,427,o),
(306,530,cs),
(306,632,o),
(332,679,o),
(382,679,cs),
(431,679,o),
(458,632,o),
(458,529,cs),
(458,426,o),
(429,379,o),
(380,379,cs)
);
}
);
width = 571;
}
);
metricLeft = "te-canadian";
metricRight = "te-canadian";
note = uni155F;
unicode = 5471;
},
{
glyphname = "thi-canadian";
lastChange = "2023-01-13 15:28:10 +0000";
layers = (
{
anchors = (
{
name = top_center_can;
pos = (283,714);
}
);
layerId = "2974A4AB-0281-4EAC-B7D6-9B88228DB59B";
shapes = (
{
closed = 1;
nodes = (
(272,-13,o),
(317,62,o),
(317,185,cs),
(317,308,o),
(268,383,o),
(191,383,cs),
(143,383,o),
(104,342,o),
(94,283,c),
(124,269,l),
(124,469,ls),
(124,606,o),
(182,668,o),
(285,668,cs),
(388,668,o),
(446,606,o),
(446,473,cs),
(446,0,l),
(510,0,l),
(510,472,ls),
(510,640,o),
(425,727,o),
(285,727,cs),
(143,727,o),
(61,641,o),
(61,459,cs),
(61,200,ls),
(61,61,o),
(106,-13,o),
(190,-13,cs)
);
},
{
closed = 1;
nodes = (
(140,35,o),
(113,82,o),
(113,185,cs),
(113,288,o),
(142,335,o),
(191,335,cs),
(239,335,o),
(265,287,o),
(265,184,cs),
(265,82,o),
(238,35,o),
(189,35,cs)
);
}
);
width = 571;
}
);
metricLeft = "te-canadian";
metricRight = "te-canadian";
note = uni1560;
unicode = 5472;
},
{
glyphname = "thiNCree-canadian";
lastChange = "2023-01-13 15:28:10 +0000";
layers = (
{
anchors = (
{
name = top_center_can;
pos = (283,714);
}
);
layerId = "2974A4AB-0281-4EAC-B7D6-9B88228DB59B";
shapes = (
{
closed = 1;
nodes = (
(465,-13,o),
(510,61,o),
(510,200,cs),
(510,459,ls),
(510,641,o),
(428,727,o),
(286,727,cs),
(146,727,o),
(61,640,o),
(61,472,cs),
(61,0,l),
(125,0,l),
(125,473,ls),
(125,606,o),
(183,668,o),
(286,668,cs),
(389,668,o),
(447,606,o),
(447,469,cs),
(447,269,l),
(477,283,l),
(467,342,o),
(428,383,o),
(379,383,cs),
(303,383,o),
(254,308,o),
(254,185,cs),
(254,62,o),
(298,-13,o),
(381,-13,cs)
);
},
{
closed = 1;
nodes = (
(332,35,o),
(306,82,o),
(306,184,cs),
(306,287,o),
(332,335,o),
(380,335,cs),
(429,335,o),
(458,288,o),
(458,185,cs),
(458,82,o),
(431,35,o),
(382,35,cs)
);
}
);
width = 571;
}
);
metricLeft = "te-canadian";
metricRight = "te-canadian";
note = uni1561;
unicode = 5473;
},
{
glyphname = "tho-canadian";
lastChange = "2023-01-13 15:28:10 +0000";
layers = (
{
anchors = (
{
name = top_center_can;
pos = (239,714);
}
);
layerId = "2974A4AB-0281-4EAC-B7D6-9B88228DB59B";
shapes = (
{
closed = 1;
nodes = (
(189,0,ls),
(384,0,o),
(473,125,o),
(473,365,cs),
(473,589,o),
(388,727,o),
(243,727,cs),
(140,727,o),
(57,652,o),
(57,505,cs),
(57,376,o),
(104,306,o),
(183,306,cs),
(263,306,o),
(307,376,o),
(307,497,cs),
(307,616,o),
(266,689,o),
(193,691,c),
(165,662,l),
(184,675,o),
(209,684,o),
(234,684,cs),
(353,684,o),
(410,563,o),
(410,369,cs),
(410,161,o),
(348,59,o),
(188,59,cs),
(83,59,l),
(83,0,l)
);
},
{
closed = 1;
nodes = (
(136,353,o),
(109,400,o),
(109,506,cs),
(109,607,o),
(141,659,o),
(188,659,cs),
(235,659,o),
(261,612,o),
(261,507,cs),
(261,401,o),
(234,353,o),
(185,353,cs)
);
}
);
width = 525;
}
);
metricRight = "to-canadian";
note = uni1564;
unicode = 5476;
},
{
glyphname = "tha-canadian";
lastChange = "2023-01-13 15:28:10 +0000";
layers = (
{
anchors = (
{
name = top_center_can;
pos = (288,714);
}
);
layerId = "2974A4AB-0281-4EAC-B7D6-9B88228DB59B";
shapes = (
{
closed = 1;
nodes = (
(442,0,l),
(442,59,l),
(337,59,ls),
(177,59,o),
(114,161,o),
(114,369,cs),
(114,563,o),
(172,684,o),
(291,684,cs),
(316,684,o),
(341,675,o),
(359,662,c),
(332,691,l),
(259,689,o),
(217,616,o),
(217,497,cs),
(217,376,o),
(262,306,o),
(342,306,cs),
(420,306,o),
(468,376,o),
(468,505,cs),
(468,652,o),
(385,727,o),
(281,727,cs),
(137,727,o),
(52,589,o),
(52,365,cs),
(52,128,o),
(138,0,o),
(336,0,cs)
);
},
{
closed = 1;
nodes = (
(290,353,o),
(264,401,o),
(264,507,cs),
(264,612,o),
(290,659,o),
(337,659,cs),
(383,659,o),
(416,607,o),
(416,506,cs),
(416,400,o),
(389,353,o),
(340,353,cs)
);
}
);
width = 525;
}
);
metricLeft = "=|theCarrier-canadian";
metricRight = "=|tho-canadian";
note = uni1566;
unicode = 5478;
},
{
glyphname = "th-canadian";
kernLeft = mwestleft;
kernRight = mwestright;
lastChange = "2023-01-13 15:28:10 +0000";
layers = (
{
layerId = "2974A4AB-0281-4EAC-B7D6-9B88228DB59B";
shapes = (
{
closed = 1;
nodes = (
(245,357,l),
(245,397,l),
(199,397,ls),
(122,397,o),
(91,447,o),
(91,540,cs),
(91,633,o),
(122,689,o),
(176,689,cs),
(189,689,o),
(200,685,o),
(208,680,c),
(190,700,l),
(154,697,o),
(134,663,o),
(134,607,cs),
(134,539,o),
(159,509,o),
(196,509,cs),
(234,509,o),
(258,541,o),
(258,607,cs),
(258,688,o),
(222,720,o),
(172,720,cs),
(98,720,o),
(51,654,o),
(51,537,cs),
(51,426,o),
(96,357,o),
(197,357,cs)
);
},
{
closed = 1;
nodes = (
(174,536,o),
(162,557,o),
(162,606,cs),
(162,653,o),
(174,678,o),
(195,678,cs),
(217,678,o),
(229,658,o),
(229,606,cs),
(229,556,o),
(218,536,o),
(196,536,cs)
);
}
);
width = 306;
}
);
metricLeft = "t-canadian";
note = uni156A;
unicode = 5482;
},
{
glyphname = "tthe-canadian";
lastChange = "2023-01-13 15:31:40 +0000";
layers = (
{
anchors = (
{
name = middle_right_can;
pos = (595,357);
},
{
name = top_center_can;
pos = (281,714);
},
{
name = top_left_can;
pos = (94,714);
},
{
name = top_right_can;
pos = (470,714);
}
);
layerId = "2974A4AB-0281-4EAC-B7D6-9B88228DB59B";
shapes = (
{
closed = 1;
nodes = (
(421,-13,o),
(502,73,o),
(502,245,cs),
(502,714,l),
(443,714,l),
(443,243,ls),
(443,107,o),
(382,47,o),
(281,47,cs),
(184,47,o),
(121,109,o),
(121,242,cs),
(121,714,l),
(61,714,l),
(61,242,ls),
(61,74,o),
(146,-13,o),
(282,-13,cs)
);
},
{
closed = 1;
nodes = (
(306,405,l),
(306,714,l),
(257,714,l),
(257,405,l)
);
}
);
width = 563;
}
);
metricLeft = "te-canadian";
metricRight = "te-canadian";
note = uni156B;
unicode = 5483;
},
{
glyphname = "tthi-canadian";
lastChange = "2023-01-13 15:31:40 +0000";
layers = (
{
layerId = "2974A4AB-0281-4EAC-B7D6-9B88228DB59B";
shapes = (
{
closed = 1;
nodes = (
(121,0,l),
(121,471,ls),
(121,607,o),
(181,667,o),
(282,667,cs),
(380,667,o),
(443,605,o),
(443,472,cs),
(443,0,l),
(502,0,l),
(502,472,ls),
(502,640,o),
(418,727,o),
(282,727,cs),
(143,727,o),
(61,641,o),
(61,469,cs),
(61,0,l)
);
},
{
closed = 1;
nodes = (
(306,0,l),
(306,309,l),
(257,309,l),
(257,0,l)
);
}
);
width = 563;
}
);
metricLeft = "te-canadian";
metricRight = "te-canadian";
note = uni156C;
unicode = 5484;
},
{
glyphname = "ttho-canadian";
lastChange = "2023-01-13 15:28:10 +0000";
layers = (
{
anchors = (
{
name = top_center_can;
pos = (251,714);
},
{
name = top_left_can;
pos = (96,714);
},
{
name = top_right_can;
pos = (407,714);
}
);
layerId = "2974A4AB-0281-4EAC-B7D6-9B88228DB59B";
shapes = (
{
closed = 1;
nodes = (
(148,0,ls),
(346,0,o),
(438,125,o),
(438,358,cs),
(438,591,o),
(346,714,o),
(144,714,cs),
(64,714,l),
(64,655,l),
(145,655,ls),
(308,655,o),
(374,557,o),
(374,358,cs),
(374,161,o),
(308,59,o),
(149,59,cs),
(64,59,l),
(64,0,l)
);
},
{
closed = 1;
nodes = (
(241,330,l),
(241,384,l),
(64,384,l),
(64,330,l)
);
}
);
width = 490;
}
);
metricRight = "to-canadian";
note = uni156D;
unicode = 5485;
},
{
glyphname = "ttha-canadian";
lastChange = "2023-01-13 15:28:10 +0000";
layers = (
{
anchors = (
{
name = top_center_can;
pos = (251,714);
},
{
name = top_left_can;
pos = (84,714);
},
{
name = top_right_can;
pos = (395,714);
}
);
layerId = "2974A4AB-0281-4EAC-B7D6-9B88228DB59B";
shapes = (
{
closed = 1;
nodes = (
(426,0,l),
(426,59,l),
(346,59,ls),
(182,59,o),
(116,158,o),
(116,356,cs),
(116,554,o),
(182,655,o),
(341,655,cs),
(426,655,l),
(426,714,l),
(341,714,ls),
(144,714,o),
(52,589,o),
(52,356,cs),
(52,123,o),
(144,0,o),
(347,0,cs)
);
},
{
closed = 1;
nodes = (
(426,330,l),
(426,384,l),
(249,384,l),
(249,330,l)
);
}
);
width = 490;
}
);
metricLeft = "=|to-canadian";
metricRight = "=|ttho-canadian";
note = uni156E;
unicode = 5486;
},
{
glyphname = "tth-canadian";
lastChange = "2023-01-13 15:28:10 +0000";
layers = (
{
layerId = "2974A4AB-0281-4EAC-B7D6-9B88228DB59B";
shapes = (
{
closed = 1;
nodes = (
(499,523,l),
(483,523,l),
(564,402,l),
(596,425,l),
(514,547,l),
(509,532,l),
(625,584,l),
(610,620,l),
(496,566,l),
(511,560,l),
(511,714,l),
(472,714,l),
(472,560,l),
(487,566,l),
(372,620,l),
(357,584,l),
(474,532,l),
(469,547,l),
(387,425,l),
(419,402,l)
);
},
{
closed = 1;
nodes = (
(184,523,l),
(169,523,l),
(254,402,l),
(285,425,l),
(199,547,l),
(195,532,l),
(311,584,l),
(296,620,l),
(181,566,l),
(196,560,l),
(196,714,l),
(157,714,l),
(157,560,l),
(173,566,l),
(57,620,l),
(43,584,l),
(159,532,l),
(154,547,l),
(68,425,l),
(100,402,l)
);
}
);
width = 668;
}
);
metricRight = "=|";
note = uni156F;
unicode = 5487;
},
{
glyphname = "tye-canadian";
lastChange = "2023-01-13 15:31:40 +0000";
layers = (
{
layerId = "2974A4AB-0281-4EAC-B7D6-9B88228DB59B";
shapes = (
{
closed = 1;
nodes = (
(421,-13,o),
(502,73,o),
(502,245,cs),
(502,714,l),
(443,714,l),
(443,247,ls),
(443,107,o),
(382,47,o),
(281,47,cs),
(184,47,o),
(121,109,o),
(121,246,cs),
(121,714,l),
(61,714,l),
(61,242,ls),
(61,74,o),
(146,-13,o),
(282,-13,cs)
);
},
{
closed = 1;
nodes = (
(338,426,o),
(372,463,o),
(372,538,cs),
(372,714,l),
(338,714,l),
(338,540,ls),
(338,483,o),
(319,461,o),
(281,461,cs),
(245,461,o),
(225,484,o),
(225,540,cs),
(225,714,l),
(192,714,l),
(192,538,ls),
(192,462,o),
(227,426,o),
(282,426,cs)
);
}
);
width = 563;
}
);
metricLeft = "te-canadian";
metricRight = "te-canadian";
note = uni1570;
unicode = 5488;
},
{
glyphname = "tyi-canadian";
lastChange = "2023-01-13 15:31:40 +0000";
layers = (
{
layerId = "2974A4AB-0281-4EAC-B7D6-9B88228DB59B";
shapes = (
{
closed = 1;
nodes = (
(121,0,l),
(121,467,ls),
(121,607,o),
(181,667,o),
(282,667,cs),
(380,667,o),
(443,605,o),
(443,468,cs),
(443,0,l),
(502,0,l),
(502,472,ls),
(502,640,o),
(418,727,o),
(282,727,cs),
(143,727,o),
(61,641,o),
(61,469,cs),
(61,0,l)
);
},
{
closed = 1;
nodes = (
(225,0,l),
(225,174,ls),
(225,231,o),
(246,253,o),
(282,253,cs),
(319,253,o),
(338,230,o),
(338,174,cs),
(338,0,l),
(372,0,l),
(372,176,ls),
(372,252,o),
(337,288,o),
(282,288,cs),
(225,288,o),
(192,251,o),
(192,176,cs),
(192,0,l)
);
}
);
width = 563;
}
);
metricLeft = "te-canadian";
metricRight = "te-canadian";
note = uni1571;
unicode = 5489;
},
{
glyphname = "tyo-canadian";
lastChange = "2023-01-13 15:28:10 +0000";
layers = (
{
layerId = "2974A4AB-0281-4EAC-B7D6-9B88228DB59B";
shapes = (
{
closed = 1;
nodes = (
(149,0,ls),
(344,0,o),
(438,125,o),
(438,358,cs),
(438,591,o),
(344,714,o),
(144,714,cs),
(65,714,l),
(65,656,l),
(140,656,ls),
(308,656,o),
(375,558,o),
(375,358,cs),
(375,160,o),
(308,58,o),
(144,58,cs),
(65,58,l),
(65,0,l)
);
},
{
closed = 1;
nodes = (
(113,217,ls),
(195,217,o),
(240,263,o),
(240,357,cs),
(240,451,o),
(194,497,o),
(113,497,cs),
(65,497,l),
(65,459,l),
(108,459,ls),
(171,459,o),
(200,428,o),
(200,357,cs),
(200,286,o),
(171,255,o),
(109,255,cs),
(65,255,l),
(65,217,l)
);
}
);
width = 490;
}
);
metricLeft = "nunavuth-canadian";
metricRight = "theCarrier-canadian";
note = uni1572;
unicode = 5490;
},
{
glyphname = "tya-canadian";
lastChange = "2023-01-13 15:31:40 +0000";
layers = (
{
layerId = "2974A4AB-0281-4EAC-B7D6-9B88228DB59B";
shapes = (
{
closed = 1;
nodes = (
(426,0,l),
(426,58,l),
(351,58,ls),
(183,58,o),
(116,156,o),
(116,356,cs),
(116,555,o),
(183,656,o),
(346,656,cs),
(426,656,l),
(426,714,l),
(341,714,ls),
(146,714,o),
(52,589,o),
(52,356,cs),
(52,123,o),
(146,0,o),
(347,0,cs)
);
},
{
closed = 1;
nodes = (
(426,217,l),
(426,255,l),
(383,255,ls),
(320,255,o),
(290,286,o),
(290,357,cs),
(290,428,o),
(320,459,o),
(382,459,cs),
(426,459,l),
(426,497,l),
(377,497,ls),
(295,497,o),
(251,451,o),
(251,357,cs),
(251,263,o),
(296,217,o),
(377,217,cs)
);
}
);
width = 491;
}
);
metricLeft = "=|theCarrier-canadian";
metricRight = "nunavuth-canadian";
note = uni1573;
unicode = 5491;
},
{
glyphname = "heNunavik-canadian";
lastChange = "2023-01-13 15:28:10 +0000";
layers = (
{
layerId = "2974A4AB-0281-4EAC-B7D6-9B88228DB59B";
shapes = (
{
closed = 1;
nodes = (
(397,0,l),
(581,198,l),
(541,239,l),
(362,44,l),
(405,43,l),
(405,465,ls),
(405,637,o),
(345,727,o),
(232,727,cs),
(119,727,o),
(55,635,o),
(55,467,cs),
(55,305,o),
(118,212,o),
(223,212,cs),
(289,212,o),
(336,258,o),
(348,324,c),
(341,353,l),
(341,0,l)
);
},
{
closed = 1;
nodes = (
(156,268,o),
(117,333,o),
(117,470,cs),
(117,607,o),
(156,671,o),
(230,671,cs),
(304,671,o),
(342,608,o),
(342,470,cs),
(342,333,o),
(303,268,o),
(230,268,cs)
);
}
);
width = 604;
}
);
metricLeft = "ke-canadian";
note = uni1574;
unicode = 5492;
},
{
glyphname = "hiNunavik-canadian";
lastChange = "2023-01-13 15:28:10 +0000";
layers = (
{
anchors = (
{
name = top_center_can;
pos = (373,714);
}
);
layerId = "2974A4AB-0281-4EAC-B7D6-9B88228DB59B";
shapes = (
{
closed = 1;
nodes = (
(262,0,l),
(262,353,l),
(256,324,l),
(267,258,o),
(315,212,o),
(380,212,cs),
(486,212,o),
(549,305,o),
(549,467,cs),
(549,635,o),
(485,727,o),
(372,727,cs),
(259,727,o),
(199,637,o),
(199,465,cs),
(199,43,l),
(242,44,l),
(63,239,l),
(23,198,l),
(206,0,l)
);
},
{
closed = 1;
nodes = (
(301,268,o),
(262,333,o),
(262,470,cs),
(262,608,o),
(300,671,o),
(374,671,cs),
(448.001,671.002,o),
(486,607,o),
(486,470,cs),
(486,333,o),
(447,268,o),
(374,268,cs)
);
}
);
width = 604;
}
);
metricLeft = "=|heNunavik-canadian";
metricRight = "=|ke-canadian";
note = uni1575;
unicode = 5493;
},
{
glyphname = "hoNunavik-canadian";
lastChange = "2023-01-13 15:28:10 +0000";
layers = (
{
anchors = (
{
name = top_center_can;
pos = (229,714);
},
{
name = top_right_can;
pos = (373,714);
}
);
layerId = "2974A4AB-0281-4EAC-B7D6-9B88228DB59B";
shapes = (
{
closed = 1;
nodes = (
(345,-13,o),
(405,77,o),
(405,249,cs),
(405,671,l),
(362,670,l),
(541,475,l),
(581,516,l),
(397,714,l),
(341,714,l),
(341,361,l),
(348,390,l),
(336,456,o),
(289,502,o),
(223,502,cs),
(118,502,o),
(55,409,o),
(55,247,cs),
(55,79,o),
(119,-13,o),
(232,-13,cs)
);
},
{
closed = 1;
nodes = (
(156,43,o),
(117,107,o),
(117,244,cs),
(117,381,o),
(156,446,o),
(230,446,cs),
(303,446,o),
(342,381,o),
(342,244,cs),
(342,106,o),
(304,43,o),
(230,43,cs)
);
}
);
width = 604;
}
);
metricLeft = "ke-canadian";
metricRight = "heNunavik-canadian";
note = uni1577;
unicode = 5495;
},
{
glyphname = "haNunavik-canadian";
lastChange = "2023-01-13 15:28:10 +0000";
layers = (
{
anchors = (
{
name = top_center_can;
pos = (375,714);
},
{
name = top_left_can;
pos = (231,714);
}
);
layerId = "2974A4AB-0281-4EAC-B7D6-9B88228DB59B";
shapes = (
{
closed = 1;
nodes = (
(485,-13,o),
(549,79,o),
(549,247,cs),
(549,409,o),
(486,502,o),
(380,502,cs),
(315,502,o),
(267,456,o),
(256,390,c),
(262,361,l),
(262,714,l),
(206,714,l),
(23,516,l),
(63,475,l),
(242,670,l),
(199,671,l),
(199,249,ls),
(199,77,o),
(259,-13,o),
(372,-13,cs)
);
},
{
closed = 1;
nodes = (
(300,43,o),
(262,106,o),
(262,244,cs),
(262,381,o),
(301,446,o),
(374,446,cs),
(447,446,o),
(486,381,o),
(486,244,cs),
(486,107,o),
(448.001,42.998,o),
(374,43,cs)
);
}
);
width = 604;
}
);
metricLeft = "=|heNunavik-canadian";
metricRight = "=|ke-canadian";
note = uni1579;
unicode = 5497;
},
{
glyphname = "hNunavik-canadian";
kernLeft = mwestleft;
kernRight = mwestright;
lastChange = "2023-01-13 15:28:10 +0000";
layers = (
{
layerId = "2974A4AB-0281-4EAC-B7D6-9B88228DB59B";
shapes = (
{
closed = 1;
nodes = (
(271,351,o),
(314,395,o),
(314,490,cs),
(314,577,o),
(276,622,o),
(226,622,cs),
(186,622,o),
(156,591,o),
(153,539,c),
(165,539,l),
(165,714,l),
(123,714,l),
(32,615,l),
(58,591,l),
(150,690,l),
(120,688,l),
(120,486,ls),
(120,398,o),
(159,351,o),
(217,351,cs)
);
},
{
closed = 1;
nodes = (
(183,388,o),
(162,415,o),
(162,487,cs),
(162,556,o),
(185,585,o),
(218,585,cs),
(250,585,o),
(273,557,o),
(273,488,cs),
(273,418,o),
(251,388,o),
(218,388,cs)
);
}
);
width = 356;
}
);
metricRight = "k-canadian";
note = uni157B;
unicode = 5499;
},
{
color = 4;
glyphname = "nunavuth-canadian";
lastChange = "2023-01-13 15:28:10 +0000";
layers = (
{
layerId = "2974A4AB-0281-4EAC-B7D6-9B88228DB59B";
shapes = (
{
closed = 1;
nodes = (
(128,342,l),
(409,342,l),
(409,0,l),
(472,0,l),
(472,714,l),
(409,714,l),
(409,400,l),
(128,400,l),
(128,714,l),
(65,714,l),
(65,0,l),
(128,0,l)
);
}
);
width = 537;
}
);
metricRight = "=|";
note = uni157C;
unicode = 5500;
},
{
glyphname = "tlhe-canadian";
lastChange = "2023-01-13 15:31:40 +0000";
layers = (
{
anchors = (
{
name = top_center_can;
pos = (234,714);
}
);
layerId = "2974A4AB-0281-4EAC-B7D6-9B88228DB59B";
shapes = (
{
closed = 1;
nodes = (
(146,0,l),
(250,274,l),
(198,253,l),
(206,251,o),
(215,250,o),
(225,250,cs),
(294,250,o),
(336,293,o),
(351,351,c),
(345,365,l),
(345,0,l),
(408,0,l),
(408,493,ls),
(408,637,o),
(347,727,o),
(234,727,cs),
(122,727,o),
(57,637,o),
(57,487,cs),
(57,362,o),
(106,282,o),
(180,262,c),
(79,0,l)
);
},
{
closed = 1;
nodes = (
(159,305,o),
(119,367,o),
(119,488,cs),
(119,609,o),
(158,671,o),
(232,671,cs),
(307,671,o),
(346,610,o),
(346,488,cs),
(346,366,o),
(305,305,o),
(232,305,cs)
);
}
);
width = 469;
}
);
metricRight = "te-canadian";
note = uni1586;
unicode = 5510;
},
{
glyphname = "tlhi-canadian";
lastChange = "2023-01-13 15:28:10 +0000";
layers = (
{
layerId = "2974A4AB-0281-4EAC-B7D6-9B88228DB59B";
shapes = (
{
closed = 1;
nodes = (
(124,0,l),
(124,365,l),
(119,351,l),
(134,293,o),
(175,250,o),
(245,250,c),
(220,274,l),
(324,0,l),
(390,0,l),
(290,262,l),
(364,282,o),
(413,362,o),
(413,487,cs),
(413,637,o),
(348,727,o),
(235,727,cs),
(123,727,o),
(61,637,o),
(61,493,cs),
(61,0,l)
);
},
{
closed = 1;
nodes = (
(165,305,o),
(124,366,o),
(124,488,cs),
(124,610,o),
(162,671,o),
(238,671,cs),
(312,671,o),
(350,609,o),
(350,488,cs),
(350,367,o),
(311,305,o),
(238,305,cs)
);
}
);
width = 470;
}
);
metricLeft = "te-canadian";
metricRight = "=|tlhe-canadian";
note = uni1587;
unicode = 5511;
},
{
glyphname = "tlho-canadian";
lastChange = "2023-01-13 15:31:40 +0000";
layers = (
{
anchors = (
{
name = top_center_can;
pos = (247,714);
}
);
layerId = "2974A4AB-0281-4EAC-B7D6-9B88228DB59B";
shapes = (
{
closed = 1;
nodes = (
(347,-13,o),
(408,77,o),
(408,221,cs),
(408,714,l),
(345,714,l),
(345,349,l),
(351,363,l),
(336,421,o),
(294,464,o),
(225,464,c),
(250,440,l),
(146,714,l),
(79,714,l),
(180,452,l),
(106,432,o),
(57,352,o),
(57,227,cs),
(57,77,o),
(122,-13,o),
(234,-13,cs)
);
},
{
closed = 1;
nodes = (
(158,43,o),
(119,105,o),
(119,226,cs),
(119,347,o),
(159,409,o),
(232,409,cs),
(305,409,o),
(346,348,o),
(346,226,cs),
(346,104,o),
(307,43,o),
(232,43,cs)
);
}
);
width = 469;
}
);
metricLeft = "tlhe-canadian";
metricRight = "te-canadian";
note = uni1588;
unicode = 5512;
},
{
glyphname = "tlha-canadian";
lastChange = "2023-01-13 15:28:10 +0000";
layers = (
{
layerId = "2974A4AB-0281-4EAC-B7D6-9B88228DB59B";
shapes = (
{
closed = 1;
nodes = (
(348,-13,o),
(413,77,o),
(413,227,cs),
(413,352,o),
(364,432,o),
(290,452,c),
(390,714,l),
(324,714,l),
(220,440,l),
(271,461,l),
(263,463,o),
(255,464,o),
(245,464,cs),
(175,464,o),
(134,421,o),
(119,363,c),
(124,349,l),
(124,714,l),
(61,714,l),
(61,221,ls),
(61,77,o),
(123,-13,o),
(235,-13,cs)
);
},
{
closed = 1;
nodes = (
(162,43,o),
(124,104,o),
(124,226,cs),
(124,348,o),
(165,409,o),
(238,409,cs),
(311,409,o),
(350,347,o),
(350,226,cs),
(350,105,o),
(312,43,o),
(238,43,cs)
);
}
);
width = 470;
}
);
metricLeft = "te-canadian";
note = uni1589;
unicode = 5513;
},
{
glyphname = "reWestCree-canadian";
lastChange = "2023-01-13 15:28:10 +0000";
layers = (
{
layerId = "2974A4AB-0281-4EAC-B7D6-9B88228DB59B";
shapes = (
{
closed = 1;
nodes = (
(393,0,l),
(576,198,l),
(536,239,l),
(357,44,l),
(400,43,l),
(400,488,ls),
(400,636,o),
(340,727,o),
(229,727,cs),
(116,727,o),
(54,640,o),
(54,496,cs),
(54,405,l),
(117,405,l),
(117,506,ls),
(117,609,o),
(153,670,o),
(228,670,cs),
(300,670,o),
(337,609,o),
(337,500,cs),
(337,0,l)
);
}
);
width = 599;
}
);
metricLeft = "ce-canadian";
metricRight = "heNunavik-canadian";
note = uni158A;
unicode = 5514;
},
{
glyphname = "riWestCree-canadian";
lastChange = "2023-01-13 15:28:10 +0000";
layers = (
{
layerId = "2974A4AB-0281-4EAC-B7D6-9B88228DB59B";
shapes = (
{
closed = 1;
nodes = (
(262,0,l),
(262,500,ls),
(262,609,o),
(299,670,o),
(371,670,cs),
(446,670,o),
(482,609,o),
(482,506,cs),
(482,405,l),
(545,405,l),
(545,496,ls),
(545,640,o),
(483,727,o),
(370,727,cs),
(258,727,o),
(199,636,o),
(199,488,cs),
(199,43,l),
(242,44,l),
(63,239,l),
(23,198,l),
(206,0,l)
);
}
);
width = 599;
}
);
metricLeft = "=|heNunavik-canadian";
metricRight = "=|ce-canadian";
note = uni158B;
unicode = 5515;
},
{
glyphname = "roWestCree-canadian";
lastChange = "2023-01-13 15:28:10 +0000";
layers = (
{
layerId = "2974A4AB-0281-4EAC-B7D6-9B88228DB59B";
shapes = (
{
closed = 1;
nodes = (
(340,-13,o),
(400,78,o),
(400,226,cs),
(400,671,l),
(357,670,l),
(536,475,l),
(576,516,l),
(393,714,l),
(337,714,l),
(337,214,ls),
(337,106,o),
(300,44,o),
(228,44,cs),
(153,44,o),
(117,106,o),
(117,208,cs),
(117,309,l),
(54,309,l),
(54,218,ls),
(54,74,o),
(116,-13,o),
(229,-13,cs)
);
}
);
width = 599;
}
);
metricLeft = "ce-canadian";
metricRight = "heNunavik-canadian";
note = uni158C;
unicode = 5516;
},
{
glyphname = "raWestCree-canadian";
lastChange = "2023-01-13 15:28:10 +0000";
layers = (
{
layerId = "2974A4AB-0281-4EAC-B7D6-9B88228DB59B";
shapes = (
{
closed = 1;
nodes = (
(483,-13,o),
(545,75,o),
(545,218,cs),
(545,309,l),
(482,309,l),
(482,208,ls),
(482,106,o),
(446,44,o),
(371,44,cs),
(300,44,o),
(262,106,o),
(262,214,cs),
(262,714,l),
(206,714,l),
(23,516,l),
(63,475,l),
(242,670,l),
(199,671,l),
(199,226,ls),
(199,78,o),
(259,-13,o),
(370,-13,cs)
);
}
);
width = 599;
}
);
metricLeft = "=|heNunavik-canadian";
metricRight = "=|ce-canadian";
note = uni158D;
unicode = 5517;
},
{
glyphname = "ng-canadian";
kernLeft = mwestleft;
kernRight = mwestright;
lastChange = "2023-01-13 15:31:40 +0000";
layers = (
{
layerId = "2974A4AB-0281-4EAC-B7D6-9B88228DB59B";
shapes = (
{
closed = 1;
nodes = (
(424,225,o),
(462,263,o),
(462,341,cs),
(462,376,l),
(419,376,l),
(419,335,ls),
(419,285,o),
(399,263,o),
(365,263,cs),
(330,263,o),
(311,286,o),
(311,342,cs),
(311,493,l),
(189,493,l),
(189,473,l),
(220,488,o),
(234,535,o),
(234,587,cs),
(234,674,o),
(196,720,o),
(138,720,cs),
(80,720,o),
(42,673,o),
(42,585,cs),
(42,498,o),
(79,449,o),
(144,449,cs),
(280,449,l),
(266,464,l),
(266,347,ls),
(266,266,o),
(303,225,o),
(364,225,cs)
);
},
{
closed = 1;
nodes = (
(104,485,o),
(83,517,o),
(83,585,cs),
(83,654,o),
(104,683,o),
(139,683,cs),
(173,683,o),
(193,653,o),
(193,585,cs),
(193,516,o),
(172,485,o),
(138,485,cs)
);
}
);
width = 495;
}
);
metricLeft = "n-canadian";
metricRight = "c-canadian";
note = uni1595;
unicode = 5525;
},
{
glyphname = "nng-canadian";
kernLeft = mwestleft;
kernRight = mwestright;
lastChange = "2023-01-13 15:31:40 +0000";
layers = (
{
layerId = "2974A4AB-0281-4EAC-B7D6-9B88228DB59B";
shapes = (
{
closed = 1;
nodes = (
(652,225,o),
(690,263,o),
(690,341,cs),
(690,376,l),
(647,376,l),
(647,335,ls),
(647,285,o),
(628,263,o),
(593,263,cs),
(558,263,o),
(539,286,o),
(539,342,cs),
(539,493,l),
(418,493,l),
(417,473,l),
(449,488,o),
(462,535,o),
(462,587,cs),
(462,675,o),
(425,720,o),
(365,720,cs),
(308,720,o),
(270,673,o),
(270,585,cs),
(270,535,o),
(284,487,o),
(315,472,c),
(314,493,l),
(190,493,l),
(189,473,l),
(220,488,o),
(234,535,o),
(234,587,cs),
(234,674,o),
(196,720,o),
(138,720,cs),
(80,720,o),
(42,673,o),
(42,585,cs),
(42,498,o),
(79,449,o),
(144,449,cs),
(494,449,l),
(494,347,ls),
(494,266,o),
(532,225,o),
(593,225,cs)
);
},
{
closed = 1;
nodes = (
(104,485,o),
(83,517,o),
(83,585,cs),
(83,654,o),
(104,683,o),
(139,683,cs),
(173,683,o),
(193,653,o),
(193,585,cs),
(193,516,o),
(172,485,o),
(138,485,cs)
);
},
{
closed = 1;
nodes = (
(333,485,o),
(311,517,o),
(311,585,cs),
(311,654,o),
(332,683,o),
(367,683,cs),
(402,683,o),
(421,653,o),
(421,585,cs),
(421,516,o),
(400,485,o),
(366,485,cs)
);
}
);
width = 723;
}
);
metricLeft = "n-canadian";
metricRight = "c-canadian";
note = uni1596;
unicode = 5526;
},
{
glyphname = "sheSayisi-canadian";
lastChange = "2023-01-13 15:28:10 +0000";
layers = (
{
anchors = (
{
name = middle_right_can;
pos = (502,357);
},
{
name = top_center_can;
pos = (234,714);
}
);
layerId = "2974A4AB-0281-4EAC-B7D6-9B88228DB59B";
shapes = (
{
closed = 1;
nodes = (
(410,0,l),
(410,468,ls),
(410,636,o),
(350,727,o),
(234,727,cs),
(120,727,o),
(55,635,o),
(55,459,cs),
(55,291,o),
(107,214,o),
(185,214,cs),
(251,214,o),
(297,261,o),
(293,425,c),
(262,425,l),
(265,293,o),
(233,268,o),
(196,268,cs),
(145,268,o),
(116,322,o),
(116,460,cs),
(116,608,o),
(156,671,o),
(233,671,cs),
(309,671,o),
(346,608,o),
(346,467,cs),
(346,0,l)
);
}
);
width = 471;
}
);
metricLeft = "ke-canadian";
metricRight = "te-canadian";
note = uni1597;
unicode = 5527;
},
{
glyphname = "shiSayisi-canadian";
lastChange = "2023-01-13 15:31:40 +0000";
layers = (
{
layerId = "2974A4AB-0281-4EAC-B7D6-9B88228DB59B";
shapes = (
{
closed = 1;
nodes = (
(125,0,l),
(125,467,ls),
(125,608,o),
(162,671,o),
(238,671,cs),
(315,671,o),
(355,607,o),
(355,460,cs),
(355,321,o),
(326,268,o),
(276,268,cs),
(238,268,o),
(206,293,o),
(209,425,c),
(178,425,l),
(174,261,o),
(221,214,o),
(287,214,cs),
(364,214,o),
(417,291,o),
(417,458,cs),
(417,635,o),
(351,727,o),
(237,727,cs),
(121,727,o),
(61,636,o),
(61,468,cs),
(61,0,l)
);
}
);
width = 472;
}
);
metricLeft = "te-canadian";
metricRight = "=|ke-canadian";
note = uni1598;
unicode = 5528;
},
{
glyphname = "shoSayisi-canadian";
lastChange = "2023-01-13 15:28:10 +0000";
layers = (
{
anchors = (
{
name = top_center_can;
pos = (232,714);
},
{
name = top_left_can;
pos = (85,714);
},
{
name = top_right_can;
pos = (379,714);
}
);
layerId = "2974A4AB-0281-4EAC-B7D6-9B88228DB59B";
shapes = (
{
closed = 1;
nodes = (
(351,-13,o),
(410,78,o),
(410,246,cs),
(410,714,l),
(346,714,l),
(346,247,ls),
(346,106,o),
(309,43,o),
(233,43,cs),
(156,43,o),
(116,107,o),
(116,254,cs),
(116,393,o),
(145,446,o),
(196,446,cs),
(233,446,o),
(265,421,o),
(262,289,c),
(293,289,l),
(297,453,o),
(251,500,o),
(185,500,cs),
(107,500,o),
(55,423,o),
(55,256,cs),
(55,79,o),
(120,-13,o),
(235,-13,cs)
);
}
);
width = 471;
}
);
metricLeft = "ke-canadian";
metricRight = "te-canadian";
note = uni1599;
unicode = 5529;
},
{
glyphname = "shaSayisi-canadian";
lastChange = "2023-01-13 15:31:40 +0000";
layers = (
{
layerId = "2974A4AB-0281-4EAC-B7D6-9B88228DB59B";
shapes = (
{
closed = 1;
nodes = (
(352,-13,o),
(417,79,o),
(417,255,cs),
(417,423,o),
(364,500,o),
(287,500,cs),
(220,500,o),
(174,453,o),
(178,289,c),
(209,289,l),
(206,421,o),
(238,446,o),
(276,446,cs),
(326,446,o),
(355,392,o),
(355,254,cs),
(355,106,o),
(315,43,o),
(238,43,cs),
(162,43,o),
(125,106,o),
(125,247,cs),
(125,714,l),
(61,714,l),
(61,246,ls),
(61,78,o),
(121,-13,o),
(237,-13,cs)
);
}
);
width = 472;
}
);
metricLeft = "te-canadian";
metricRight = "=|ke-canadian";
note = uni159A;
unicode = 5530;
},
{
glyphname = "theWoodScree-canadian";
lastChange = "2023-01-13 15:28:10 +0000";
layers = (
{
layerId = "2974A4AB-0281-4EAC-B7D6-9B88228DB59B";
shapes = (
{
closed = 1;
nodes = (
(521,-13,o),
(590,73,o),
(590,239,cs),
(590,404,o),
(522,489,o),
(403,489,cs),
(59,489,l),
(59,434,l),
(319,434,l),
(317,448,l),
(261,415,o),
(233,330,o),
(233,236,cs),
(233,73,o),
(299,-13,o),
(411,-13,cs)
);
},
{
closed = 1;
nodes = (
(334,43,o),
(295,106,o),
(295,239,cs),
(295,363,o),
(335,434,o),
(411,434,cs),
(487,434,o),
(527,372,o),
(527,239,cs),
(527,106,o),
(488,43,o),
(411,43,cs)
);
},
{
closed = 1;
nodes = (
(581,659,l),
(581,714,l),
(59,714,l),
(59,659,l)
);
}
);
width = 648;
}
);
note = uni159B;
unicode = 5531;
},
{
glyphname = "thiWoodScree-canadian";
kernRight = niright;
lastChange = "2023-01-13 15:28:10 +0000";
layers = (
{
layerId = "2974A4AB-0281-4EAC-B7D6-9B88228DB59B";
shapes = (
{
closed = 1;
nodes = (
(349,-13,o),
(416,73,o),
(416,236,cs),
(416,330,o),
(388,415,o),
(332,448,c),
(329,434,l),
(590,434,l),
(590,489,l),
(246,489,ls),
(127,489,o),
(59,405,o),
(59,239,cs),
(59,73,o),
(127,-13,o),
(237,-13,cs)
);
},
{
closed = 1;
nodes = (
(160,43,o),
(121,106,o),
(121,239,cs),
(121,372,o),
(162,434,o),
(237,434,cs),
(314,434,o),
(353,363,o),
(353,239,cs),
(353,106,o),
(314,43,o),
(237,43,cs)
);
},
{
closed = 1;
nodes = (
(590,659,l),
(590,714,l),
(67,714,l),
(67,659,l)
);
}
);
width = 648;
}
);
metricLeft = "theWoodScree-canadian";
metricRight = "theWoodScree-canadian";
note = uni159C;
unicode = 5532;
},
{
glyphname = "thoWoodScree-canadian";
lastChange = "2023-01-13 15:28:10 +0000";
layers = (
{
layerId = "2974A4AB-0281-4EAC-B7D6-9B88228DB59B";
shapes = (
{
closed = 1;
nodes = (
(403,0,ls),
(522,0,o),
(590,85,o),
(590,250,cs),
(590,416,o),
(521,502,o),
(411,502,cs),
(299,502,o),
(233,416,o),
(233,253,cs),
(233,159,o),
(261,74,o),
(317,41,c),
(319,55,l),
(59,55,l),
(59,0,l)
);
},
{
closed = 1;
nodes = (
(335,55,o),
(295,126,o),
(295,250,cs),
(295,383,o),
(334,446,o),
(411,446,cs),
(488,446,o),
(527,383,o),
(527,250,cs),
(527,117,o),
(487,55,o),
(411,55,cs)
);
},
{
closed = 1;
nodes = (
(581,659,l),
(581,714,l),
(59,714,l),
(59,659,l)
);
}
);
width = 648;
}
);
metricLeft = "theWoodScree-canadian";
metricRight = "theWoodScree-canadian";
note = uni159D;
unicode = 5533;
},
{
glyphname = "thaWoodScree-canadian";
lastChange = "2023-01-13 15:28:10 +0000";
layers = (
{
layerId = "2974A4AB-0281-4EAC-B7D6-9B88228DB59B";
shapes = (
{
closed = 1;
nodes = (
(590,0,l),
(590,55,l),
(329,55,l),
(331,41,l),
(388,74,o),
(416,159,o),
(416,253,cs),
(416,416,o),
(349,502,o),
(237,502,cs),
(127,502,o),
(59,416,o),
(59,250,cs),
(59,85,o),
(127,0,o),
(246,0,cs)
);
},
{
closed = 1;
nodes = (
(162,55,o),
(121,117,o),
(121,250,cs),
(121,383,o),
(160,446,o),
(237,446,cs),
(314,446,o),
(353,383,o),
(353,250,cs),
(353,126,o),
(314,55,o),
(237,55,cs)
);
},
{
closed = 1;
nodes = (
(590,659,l),
(590,714,l),
(67,714,l),
(67,659,l)
);
}
);
width = 648;
}
);
metricLeft = "theWoodScree-canadian";
metricRight = "theWoodScree-canadian";
note = uni159E;
unicode = 5534;
},
{
glyphname = "thWoodScree-canadian";
lastChange = "2023-01-13 15:28:10 +0000";
layers = (
{
layerId = "2974A4AB-0281-4EAC-B7D6-9B88228DB59B";
shapes = (
{
closed = 1;
nodes = (
(343,357,l),
(343,398,l),
(198,398,l),
(199,381,l),
(230,396,o),
(244,443,o),
(244,495,cs),
(244,581,o),
(206,628,o),
(148,628,cs),
(90,628,o),
(52,581,o),
(52,493,cs),
(52,406,o),
(89,357,o),
(154,357,cs)
);
},
{
closed = 1;
nodes = (
(114,393,o),
(93,425,o),
(93,493,cs),
(93,562,o),
(114,591,o),
(149,591,cs),
(183,591,o),
(203,561,o),
(203,493,cs),
(203,424,o),
(182,393,o),
(148,393,cs)
);
},
{
closed = 1;
nodes = (
(339,700,l),
(339,742,l),
(56,742,l),
(56,700,l)
);
}
);
width = 395;
}
);
metricRight = "=|";
note = uni159F;
unicode = 5535;
},
{
glyphname = "lhi-canadian";
kernRight = niright;
lastChange = "2023-01-13 15:28:10 +0000";
layers = (
{
anchors = (
{
name = top_center_can;
pos = (366,714);
},
{
name = top_right_can;
pos = (438,714);
}
);
layerId = "2974A4AB-0281-4EAC-B7D6-9B88228DB59B";
shapes = (
{
closed = 1;
nodes = (
(285,0,l),
(285,57,l),
(277,57,ls),
(172,57,o),
(118,120,o),
(118,242,cs),
(118,369,o),
(173,431,o),
(275,431,cs),
(586,431,l),
(586,483,l),
(448,747,l),
(398,718,l),
(535,454,l),
(537,489,l),
(273,489,ls),
(137,489,o),
(55,404,o),
(55,243,cs),
(55,84,o),
(135,0,o),
(272,0,cs)
);
}
);
width = 637;
}
);
metricLeft = "ke-canadian";
metricRight = "=|ne-canadian";
note = uni15A0;
unicode = 5536;
},
{
glyphname = "lho-canadian";
kernLeft = noleft;
lastChange = "2023-01-13 15:28:10 +0000";
layers = (
{
anchors = (
{
name = top_center_can;
pos = (311,507);
},
{
name = top_right_can;
pos = (398,507);
}
);
layerId = "2974A4AB-0281-4EAC-B7D6-9B88228DB59B";
shapes = (
{
closed = 1;
nodes = (
(239,-230,l),
(102,34,l),
(100,-1,l),
(364,-1,ls),
(500,-1,o),
(582,84,o),
(582,246,cs),
(582,404,o),
(502,488,o),
(365,488,cs),
(352,488,l),
(352,431,l),
(360,431,ls),
(465,431,o),
(519,368,o),
(519,246,cs),
(519,121,o),
(464,58,o),
(362,58,cs),
(51,58,l),
(51,5,l),
(189,-259,l)
);
}
);
width = 637;
}
);
metricLeft = "ne-canadian";
metricRight = "=|ke-canadian";
note = uni15A2;
unicode = 5538;
},
{
glyphname = "lha-canadian";
kernRight = naright;
lastChange = "2023-01-13 15:28:10 +0000";
layers = (
{
anchors = (
{
name = top_center_can;
pos = (328,507);
},
{
name = top_left_can;
pos = (239,507);
}
);
layerId = "2974A4AB-0281-4EAC-B7D6-9B88228DB59B";
shapes = (
{
closed = 1;
nodes = (
(586,6,l),
(586,58,l),
(275,58,ls),
(172,58,o),
(118,121,o),
(118,247,cs),
(118,369,o),
(172,432,o),
(277,432,cs),
(285,432,l),
(285,489,l),
(272,489,ls),
(135,489,o),
(55,405,o),
(55,247,cs),
(55,85,o),
(136,0,o),
(273,0,cs),
(537,0,l),
(535,35,l),
(398,-229,l),
(448,-258,l)
);
}
);
width = 637;
}
);
metricLeft = "ke-canadian";
metricRight = "=|ne-canadian";
note = uni15A4;
unicode = 5540;
},
{
glyphname = "lh-canadian";
kernLeft = mwestleft;
kernRight = mwestright;
lastChange = "2023-01-13 15:28:10 +0000";
layers = (
{
layerId = "2974A4AB-0281-4EAC-B7D6-9B88228DB59B";
shapes = (
{
closed = 1;
nodes = (
(345,361,l),
(345,401,l),
(209,401,ls),
(128,401,o),
(96,451,o),
(96,536,cs),
(96,621,o),
(128,670,o),
(198,670,cs),
(203,670,l),
(203,714,l),
(197,714,ls),
(97,714,o),
(51,641,o),
(51,536,cs),
(51,428,o),
(98,357,o),
(209,357,cs),
(314,357,l),
(309,382,l),
(233,236,l),
(270,215,l)
);
}
);
width = 396;
}
);
metricLeft = "t-canadian";
metricRight = "=|";
note = uni15A6;
unicode = 5542;
},
{
glyphname = "theThCree-canadian";
lastChange = "2023-01-13 15:28:10 +0000";
layers = (
{
anchors = (
{
name = top_left_can;
pos = (73,714);
},
{
name = top_right_can;
pos = (356,714);
}
);
layerId = "2974A4AB-0281-4EAC-B7D6-9B88228DB59B";
shapes = (
{
closed = 1;
nodes = (
(387,0,l),
(387,121,l),
(450,121,l),
(450,163,l),
(387,163,l),
(387,321,l),
(106,321,l),
(120,300,l),
(402,691,l),
(355,726,l),
(41,290,l),
(41,264,l),
(323,264,l),
(323,163,l),
(135,163,l),
(135,121,l),
(323,121,l),
(323,0,l)
);
}
);
width = 485;
}
);
metricLeft = "ye-canadian";
note = uni15A7;
unicode = 5543;
},
{
glyphname = "thiThCree-canadian";
kernRight = yiright;
lastChange = "2023-01-13 15:31:40 +0000";
layers = (
{
anchors = (
{
name = top_left_can;
pos = (130,714);
},
{
name = top_right_can;
pos = (413,714);
}
);
layerId = "2974A4AB-0281-4EAC-B7D6-9B88228DB59B";
shapes = (
{
closed = 1;
nodes = (
(162,0,l),
(162,121,l),
(351,121,l),
(351,163,l),
(162,163,l),
(162,264,l),
(443,264,l),
(443,290,l),
(130,726,l),
(83,691,l),
(369,295,l),
(379,321,l),
(98,321,l),
(98,163,l),
(35,163,l),
(35,121,l),
(98,121,l),
(98,0,l)
);
}
);
width = 484;
}
);
metricLeft = "=|theThCree-canadian";
metricRight = "=|ye-canadian";
note = uni15A8;
unicode = 5544;
},
{
glyphname = "thoThCree-canadian";
kernLeft = yoleft;
lastChange = "2023-01-13 15:28:10 +0000";
layers = (
{
anchors = (
{
name = top_left_can;
pos = (73,714);
},
{
name = top_right_can;
pos = (356,714);
}
);
layerId = "2974A4AB-0281-4EAC-B7D6-9B88228DB59B";
shapes = (
{
closed = 1;
nodes = (
(402,23,l),
(120,414,l),
(106,393,l),
(387,393,l),
(387,551,l),
(450,551,l),
(450,593,l),
(387,593,l),
(387,714,l),
(323,714,l),
(323,593,l),
(135,593,l),
(135,551,l),
(323,551,l),
(323,450,l),
(41,450,l),
(41,424,l),
(355,-12,l)
);
}
);
width = 485;
}
);
metricLeft = "ye-canadian";
metricRight = "theThCree-canadian";
note = uni15AA;
unicode = 5546;
},
{
glyphname = "thaThCree-canadian";
kernRight = yaright;
lastChange = "2023-01-13 15:31:40 +0000";
layers = (
{
anchors = (
{
name = top_left_can;
pos = (130,714);
},
{
name = top_right_can;
pos = (413,714);
}
);
layerId = "2974A4AB-0281-4EAC-B7D6-9B88228DB59B";
shapes = (
{
closed = 1;
nodes = (
(443,424,l),
(443,450,l),
(162,450,l),
(162,551,l),
(351,551,l),
(351,593,l),
(162,593,l),
(162,714,l),
(98,714,l),
(98,593,l),
(35,593,l),
(35,551,l),
(98,551,l),
(98,393,l),
(379,393,l),
(365,414,l),
(83,23,l),
(130,-12,l)
);
}
);
width = 484;
}
);
metricLeft = "=|theThCree-canadian";
metricRight = "=|ye-canadian";
note = uni15AC;
unicode = 5548;
},
{
glyphname = "thThCree-canadian";
kernLeft = mwestleft;
kernRight = mwestright;
lastChange = "2023-01-13 15:31:40 +0000";
layers = (
{
layerId = "2974A4AB-0281-4EAC-B7D6-9B88228DB59B";
shapes = (
{
closed = 1;
nodes = (
(253,565,l),
(253,582,l),
(116,582,l),
(116,634,l),
(206,634,l),
(206,661,l),
(116,661,l),
(116,714,l),
(70,714,l),
(70,661,l),
(38,661,l),
(38,634,l),
(70,634,l),
(70,541,l),
(215,541,l),
(206,570,l),
(65,372,l),
(100,349,l)
);
}
);
width = 281;
}
);
metricRight = "y-canadian";
note = uni15AE;
unicode = 5550;
},
{
glyphname = "bAivilik-canadian";
lastChange = "2023-01-13 15:28:10 +0000";
layers = (
{
layerId = "2974A4AB-0281-4EAC-B7D6-9B88228DB59B";
shapes = (
{
closed = 1;
nodes = (
(352,-13,o),
(415,80,o),
(415,246,cs),
(415,409,o),
(352,502,o),
(249,502,cs),
(180,502,o),
(133,456,o),
(122,390,c),
(128,368,l),
(128,714,l),
(65,714,l),
(65,0,l),
(123,0,l),
(123,118,l),
(119,102,l),
(133,33,o),
(179,-13,o),
(250,-13,cs)
);
},
{
closed = 1;
nodes = (
(166,43,o),
(128,108,o),
(128,244,cs),
(128,381,o),
(167,446,o),
(240,446,cs),
(313,446,o),
(352,381,o),
(352,244,cs),
(352,107,o),
(314,43,o),
(240,43,cs)
);
}
);
width = 470;
}
);
metricLeft = "nunavuth-canadian";
metricRight = "=|ke-canadian";
note = uni15AF;
unicode = 5551;
},
{
glyphname = "eBlackfoot-canadian";
lastChange = "2023-01-13 15:28:10 +0000";
layers = (
{
layerId = "2974A4AB-0281-4EAC-B7D6-9B88228DB59B";
shapes = (
{
closed = 1;
nodes = (
(128,0,l),
(128,425,l),
(154,386,o),
(192,365,o),
(238,365,cs),
(325,365,o),
(383,443,o),
(383,546,cs),
(383,650,o),
(325,727,o),
(238,727,cs),
(189,727,o),
(150,704,o),
(125,664,c),
(125,714,l),
(65,714,l),
(65,0,l)
);
}
);
width = 425;
}
);
metricLeft = "nunavuth-canadian";
note = uni15B0;
unicode = 5552;
},
{
glyphname = "iBlackfoot-canadian";
lastChange = "2023-01-13 15:31:40 +0000";
layers = (
{
layerId = "2974A4AB-0281-4EAC-B7D6-9B88228DB59B";
shapes = (
{
closed = 1;
nodes = (
(236,-13,o),
(275,10,o),
(300,50,c),
(300,0,l),
(361,0,l),
(361,714,l),
(297,714,l),
(297,289,l),
(272,328,o),
(233,349,o),
(187,349,cs),
(100,349,o),
(42,271,o),
(42,168,cs),
(42,64,o),
(100,-13,o),
(187,-13,cs)
);
}
);
width = 426;
}
);
metricLeft = "=|eBlackfoot-canadian";
metricRight = "nunavuth-canadian";
note = uni15B1;
unicode = 5553;
},
{
glyphname = "oBlackfoot-canadian";
lastChange = "2023-01-13 15:28:10 +0000";
layers = (
{
layerId = "2974A4AB-0281-4EAC-B7D6-9B88228DB59B";
shapes = (
{
closed = 1;
nodes = (
(325,-13,o),
(383,64,o),
(383,168,cs),
(383,271,o),
(325,349,o),
(238,349,cs),
(192,349,o),
(154,328,o),
(128,289,c),
(128,714,l),
(65,714,l),
(65,0,l),
(125,0,l),
(125,50,l),
(150,10,o),
(189,-13,o),
(238,-13,cs)
);
}
);
width = 425;
}
);
metricLeft = "nunavuth-canadian";
metricRight = "eBlackfoot-canadian";
note = uni15B2;
unicode = 5554;
},
{
glyphname = "aBlackfoot-canadian";
lastChange = "2023-01-13 15:31:40 +0000";
layers = (
{
layerId = "2974A4AB-0281-4EAC-B7D6-9B88228DB59B";
shapes = (
{
closed = 1;
nodes = (
(361,0,l),
(361,714,l),
(300,714,l),
(300,664,l),
(275,704,o),
(236,727,o),
(187,727,cs),
(100,727,o),
(42,650,o),
(42,546,cs),
(42,443,o),
(100,365,o),
(187,365,cs),
(233,365,o),
(272,386,o),
(297,425,c),
(297,0,l)
);
}
);
width = 426;
}
);
metricLeft = "=|eBlackfoot-canadian";
metricRight = "nunavuth-canadian";
note = uni15B3;
unicode = 5555;
},
{
glyphname = "weBlackfoot-canadian";
lastChange = "2023-01-13 15:28:10 +0000";
layers = (
{
layerId = "2974A4AB-0281-4EAC-B7D6-9B88228DB59B";
shapes = (
{
closed = 1;
nodes = (
(128,330,l),
(401,330,l),
(401,386,l),
(128,386,l),
(128,658,l),
(401,658,l),
(401,714,l),
(65,714,l),
(65,0,l),
(128,0,l)
);
}
);
width = 448;
}
);
metricLeft = "nunavuth-canadian";
note = uni15B4;
unicode = 5556;
},
{
glyphname = "wiBlackfoot-canadian";
lastChange = "2023-01-13 15:31:40 +0000";
layers = (
{
layerId = "2974A4AB-0281-4EAC-B7D6-9B88228DB59B";
shapes = (
{
closed = 1;
nodes = (
(384,0,l),
(384,714,l),
(320,714,l),
(320,384,l),
(47,384,l),
(47,328,l),
(320,328,l),
(320,56,l),
(47,56,l),
(47,0,l)
);
}
);
width = 449;
}
);
metricLeft = "=|weBlackfoot-canadian";
metricRight = "nunavuth-canadian";
note = uni15B5;
unicode = 5557;
},
{
glyphname = "woBlackfoot-canadian";
lastChange = "2023-01-13 15:28:10 +0000";
layers = (
{
layerId = "2974A4AB-0281-4EAC-B7D6-9B88228DB59B";
shapes = (
{
closed = 1;
nodes = (
(401,0,l),
(401,56,l),
(128,56,l),
(128,328,l),
(401,328,l),
(401,384,l),
(128,384,l),
(128,714,l),
(65,714,l),
(65,0,l)
);
}
);
width = 448;
}
);
metricLeft = "nunavuth-canadian";
metricRight = "weBlackfoot-canadian";
note = uni15B6;
unicode = 5558;
},
{
glyphname = "waBlackfoot-canadian";
lastChange = "2023-01-13 15:31:40 +0000";
layers = (
{
layerId = "2974A4AB-0281-4EAC-B7D6-9B88228DB59B";
shapes = (
{
closed = 1;
nodes = (
(384,0,l),
(384,714,l),
(47,714,l),
(47,658,l),
(320,658,l),
(320,386,l),
(47,386,l),
(47,330,l),
(320,330,l),
(320,0,l)
);
}
);
width = 449;
}
);
metricLeft = "=|weBlackfoot-canadian";
metricRight = "nunavuth-canadian";
note = uni15B7;
unicode = 5559;
},
{
glyphname = "neBlackfoot-canadian";
lastChange = "2023-01-13 15:28:10 +0000";
layers = (
{
layerId = "2974A4AB-0281-4EAC-B7D6-9B88228DB59B";
shapes = (
{
closed = 1;
nodes = (
(128,0,l),
(128,664,l),
(170,664,l),
(146,697,l),
(146,666,ls),
(146,507,o),
(205,421,o),
(318,421,cs),
(431,421,o),
(495,509,o),
(495,664,cs),
(495,714,l),
(433,714,l),
(433,657,ls),
(433,540,o),
(395,478,o),
(320,478,cs),
(245,478,o),
(208,539,o),
(208,656,cs),
(208,714,l),
(65,714,l),
(65,0,l)
);
}
);
width = 532;
}
);
metricLeft = "nunavuth-canadian";
note = uni15B8;
unicode = 5560;
},
{
glyphname = "niBlackfoot-canadian";
lastChange = "2023-01-13 15:31:40 +0000";
layers = (
{
layerId = "2974A4AB-0281-4EAC-B7D6-9B88228DB59B";
shapes = (
{
closed = 1;
nodes = (
(100,0,l),
(100,57,ls),
(100,174,o),
(137,236,o),
(212,236,cs),
(287,236,o),
(324,175,o),
(324,58,cs),
(324,0,l),
(468,0,l),
(468,714,l),
(404,714,l),
(404,50,l),
(362,50,l),
(386,17,l),
(386,48,ls),
(386,207,o),
(327,293,o),
(214,293,cs),
(101,293,o),
(37,205,o),
(37,50,cs),
(37,0,l)
);
}
);
width = 533;
}
);
metricLeft = "=|neBlackfoot-canadian";
metricRight = "nunavuth-canadian";
note = uni15B9;
unicode = 5561;
},
{
glyphname = "noBlackfoot-canadian";
lastChange = "2023-01-13 15:28:10 +0000";
layers = (
{
layerId = "2974A4AB-0281-4EAC-B7D6-9B88228DB59B";
shapes = (
{
closed = 1;
nodes = (
(208,0,l),
(208,58,ls),
(208,175,o),
(245,236,o),
(320,236,cs),
(395,236,o),
(433,174,o),
(433,57,cs),
(433,0,l),
(495,0,l),
(495,50,ls),
(495,205,o),
(431,293,o),
(318,293,cs),
(205,293,o),
(146,207,o),
(146,48,cs),
(146,17,l),
(170,50,l),
(128,50,l),
(128,714,l),
(65,714,l),
(65,0,l)
);
}
);
width = 532;
}
);
metricLeft = "nunavuth-canadian";
metricRight = "neBlackfoot-canadian";
note = uni15BA;
unicode = 5562;
},
{
glyphname = "naBlackfoot-canadian";
lastChange = "2023-01-13 15:31:40 +0000";
layers = (
{
layerId = "2974A4AB-0281-4EAC-B7D6-9B88228DB59B";
shapes = (
{
closed = 1;
nodes = (
(468,0,l),
(468,714,l),
(324,714,l),
(324,656,ls),
(324,539,o),
(287,478,o),
(212,478,cs),
(137,478,o),
(100,540,o),
(100,657,cs),
(100,714,l),
(37,714,l),
(37,664,ls),
(37,509,o),
(101,421,o),
(214,421,cs),
(327,421,o),
(386,507,o),
(386,666,cs),
(386,697,l),
(362,664,l),
(404,664,l),
(404,0,l)
);
}
);
width = 533;
}
);
metricLeft = "=|neBlackfoot-canadian";
metricRight = "nunavuth-canadian";
note = uni15BB;
unicode = 5563;
},
{
glyphname = "keBlackfoot-canadian";
lastChange = "2023-01-13 15:28:10 +0000";
layers = (
{
layerId = "2974A4AB-0281-4EAC-B7D6-9B88228DB59B";
shapes = (
{
closed = 1;
nodes = (
(128,0,l),
(128,640,l),
(104,640,l),
(252,267,l),
(284,267,l),
(464,714,l),
(401,714,l),
(252,339,l),
(273,339,l),
(124,714,l),
(65,714,l),
(65,0,l)
);
}
);
width = 491;
}
);
metricLeft = "nunavuth-canadian";
note = uni15BC;
unicode = 5564;
},
{
glyphname = "kiBlackfoot-canadian";
lastChange = "2023-01-13 15:31:40 +0000";
layers = (
{
layerId = "2974A4AB-0281-4EAC-B7D6-9B88228DB59B";
shapes = (
{
closed = 1;
nodes = (
(90,0,l),
(239,375,l),
(218,375,l),
(367,0,l),
(427,0,l),
(427,714,l),
(363,714,l),
(363,74,l),
(388,74,l),
(239,447,l),
(208,447,l),
(27,0,l)
);
}
);
width = 492;
}
);
metricLeft = "=|keBlackfoot-canadian";
metricRight = "nunavuth-canadian";
note = uni15BD;
unicode = 5565;
},
{
glyphname = "koBlackfoot-canadian";
lastChange = "2023-01-13 15:28:10 +0000";
layers = (
{
layerId = "2974A4AB-0281-4EAC-B7D6-9B88228DB59B";
shapes = (
{
closed = 1;
nodes = (
(124,0,l),
(273,375,l),
(252,375,l),
(401,0,l),
(464,0,l),
(284,447,l),
(252,447,l),
(104,74,l),
(128,74,l),
(128,714,l),
(65,714,l),
(65,0,l)
);
}
);
width = 491;
}
);
metricLeft = "nunavuth-canadian";
metricRight = "keBlackfoot-canadian";
note = uni15BE;
unicode = 5566;
},
{
glyphname = "kaBlackfoot-canadian";
lastChange = "2023-01-13 15:31:40 +0000";
layers = (
{
layerId = "2974A4AB-0281-4EAC-B7D6-9B88228DB59B";
shapes = (
{
closed = 1;
nodes = (
(427,0,l),
(427,714,l),
(367,714,l),
(218,339,l),
(239,339,l),
(90,714,l),
(27,714,l),
(208,267,l),
(239,267,l),
(388,640,l),
(363,640,l),
(363,0,l)
);
}
);
width = 492;
}
);
metricLeft = "=|keBlackfoot-canadian";
metricRight = "nunavuth-canadian";
note = uni15BF;
unicode = 5567;
},
{
color = 9;
glyphname = "heSayisi-canadian";
lastChange = "2023-01-13 15:28:10 +0000";
layers = (
{
anchors = (
{
name = top_right_can;
pos = (424,714);
}
);
layerId = "2974A4AB-0281-4EAC-B7D6-9B88228DB59B";
shapes = (
{
closed = 1;
nodes = (
(455,0,l),
(455,714,l),
(392,714,l),
(392,291,l),
(403,291,l),
(398,559,o),
(332,727,o),
(204,727,cs),
(102,727,o),
(46,642,o),
(46,473,cs),
(46,438,o),
(49,388,o),
(57,352,c),
(118,352,l),
(110,386,o),
(107,438,o),
(107,466,cs),
(107,612,o),
(147,670,o),
(217,670,cs),
(331,670,o),
(390,470,o),
(391,0,c)
);
}
);
width = 520;
}
);
metricRight = "nunavuth-canadian";
note = uni15C0;
unicode = 5568;
},
{
color = 9;
glyphname = "hiSayisi-canadian";
lastChange = "2023-01-13 15:31:40 +0000";
layers = (
{
layerId = "2974A4AB-0281-4EAC-B7D6-9B88228DB59B";
shapes = (
{
closed = 1;
nodes = (
(128,0,l),
(129,470,o),
(189,670,o),
(303,670,cs),
(373,670,o),
(412,612,o),
(412,466,cs),
(412,438,o),
(409,386,o),
(402,352,c),
(462,352,l),
(471,388,o),
(473,438,o),
(473,473,cs),
(473,642,o),
(417,727,o),
(316,727,cs),
(187,727,o),
(122,559,o),
(117,291,c),
(128,291,l),
(128,714,l),
(65,714,l),
(65,0,l)
);
}
);
width = 519;
}
);
metricLeft = "nunavuth-canadian";
metricRight = "=|heSayisi-canadian";
note = uni15C1;
unicode = 5569;
},
{
color = 9;
glyphname = "hoSayisi-canadian";
lastChange = "2023-01-13 15:28:10 +0000";
layers = (
{
anchors = (
{
name = top_center_can;
pos = (255,714);
},
{
name = top_left_can;
pos = (86,714);
},
{
name = top_right_can;
pos = (424,714);
}
);
layerId = "2974A4AB-0281-4EAC-B7D6-9B88228DB59B";
shapes = (
{
closed = 1;
nodes = (
(332,-13,o),
(398,155,o),
(403,423,c),
(392,423,l),
(392,0,l),
(455,0,l),
(455,714,l),
(391,714,l),
(390,244,o),
(331,44,o),
(217,44,cs),
(147,44,o),
(107,102,o),
(107,248,cs),
(107,276,o),
(110,328,o),
(118,362,c),
(57,362,l),
(49,326,o),
(46,276,o),
(46,241,cs),
(46,72,o),
(102,-13,o),
(204,-13,cs)
);
}
);
width = 520;
}
);
metricLeft = "heSayisi-canadian";
metricRight = "nunavuth-canadian";
note = uni15C2;
unicode = 5570;
},
{
color = 9;
glyphname = "haSayisi-canadian";
lastChange = "2023-01-13 15:31:40 +0000";
layers = (
{
layerId = "2974A4AB-0281-4EAC-B7D6-9B88228DB59B";
shapes = (
{
closed = 1;
nodes = (
(417,-13,o),
(473,72,o),
(473,241,cs),
(473,276,o),
(471,326,o),
(462,362,c),
(402,362,l),
(409,328,o),
(412,276,o),
(412,248,cs),
(412,102,o),
(373,44,o),
(303,44,cs),
(189,44,o),
(129,244,o),
(128,714,c),
(65,714,l),
(65,0,l),
(128,0,l),
(128,423,l),
(117,423,l),
(122,155,o),
(187,-13,o),
(316,-13,cs)
);
}
);
width = 519;
}
);
metricLeft = "nunavuth-canadian";
metricRight = "=|heSayisi-canadian";
note = uni15C3;
unicode = 5571;
},
{
color = 9;
glyphname = "ghuCarrier-canadian";
lastChange = "2023-01-13 15:28:10 +0000";
layers = (
{
layerId = "2974A4AB-0281-4EAC-B7D6-9B88228DB59B";
shapes = (
{
closed = 1;
nodes = (
(291,0,l),
(529,694,l),
(529,714,l),
(477,714,l),
(393,463,l),
(426,477,l),
(132,477,l),
(166,462,l),
(81,714,l),
(28,714,l),
(28,694,l),
(266,0,l)
);
},
{
closed = 1;
nodes = (
(412,428,l),
(388,439,l),
(269,82,l),
(289,82,l),
(170,440,l),
(147,428,l)
);
}
);
width = 557;
}
);
metricLeft = "e-canadian";
metricRight = "e-canadian";
note = uni15C4;
unicode = 5572;
},
{
color = 9;
glyphname = "ghoCarrier-canadian";
lastChange = "2023-01-13 15:28:10 +0000";
layers = (
{
layerId = "2974A4AB-0281-4EAC-B7D6-9B88228DB59B";
shapes = (
{
closed = 1;
nodes = (
(81,0,l),
(166,252,l),
(132,237,l),
(426,237,l),
(393,251,l),
(477,0,l),
(529,0,l),
(529,20,l),
(291,714,l),
(266,714,l),
(28,20,l),
(28,0,l)
);
},
{
closed = 1;
nodes = (
(289,632,l),
(269,632,l),
(388,275,l),
(412,286,l),
(147,286,l),
(170,274,l)
);
}
);
width = 557;
}
);
metricLeft = "e-canadian";
metricRight = "e-canadian";
note = uni15C5;
unicode = 5573;
},
{
color = 9;
glyphname = "gheCarrier-canadian";
lastChange = "2023-01-13 15:28:10 +0000";
layers = (
{
anchors = (
{
name = middle_center_can;
pos = (60,357);
}
);
layerId = "2974A4AB-0281-4EAC-B7D6-9B88228DB59B";
shapes = (
{
closed = 1;
nodes = (
(61,0,l),
(480,344,l),
(480,370,l),
(61,714,l),
(43,714,l),
(43,662,l),
(173,555,l),
(165,590,l),
(165,124,l),
(173,158,l),
(43,51,l),
(43,0,l)
);
},
{
closed = 1;
nodes = (
(211,559,l),
(198,541,l),
(441,340,l),
(441,374,l),
(198,174,l),
(211,156,l)
);
}
);
width = 512;
}
);
metricLeft = "po-canadian";
metricRight = "o-canadian";
note = uni15C6;
unicode = 5574;
},
{
color = 9;
glyphname = "ghaCarrier-canadian";
lastChange = "2023-01-13 15:31:40 +0000";
layers = (
{
layerId = "2974A4AB-0281-4EAC-B7D6-9B88228DB59B";
shapes = (
{
closed = 1;
nodes = (
(470,0,l),
(470,51,l),
(340,159,l),
(348,129,l),
(348,585,l),
(340,555,l),
(470,662,l),
(470,714,l),
(452,714,l),
(32,370,l),
(32,344,l),
(452,0,l)
);
},
{
closed = 1;
nodes = (
(315,173,l),
(71,374,l),
(71,339,l),
(315,540,l),
(302,548,l),
(302,169,l)
);
}
);
width = 513;
}
);
metricLeft = "=|o-canadian";
metricRight = "=|po-canadian";
note = uni15C9;
unicode = 5577;
},
{
color = 9;
glyphname = "ruCarrier-canadian";
lastChange = "2023-01-13 15:28:10 +0000";
layers = (
{
layerId = "2974A4AB-0281-4EAC-B7D6-9B88228DB59B";
shapes = (
{
closed = 1;
nodes = (
(291,0,l),
(529,694,l),
(529,714,l),
(477,714,l),
(444,615,l),
(464,629,l),
(94,629,l),
(116,615,l),
(82,714,l),
(28,714,l),
(28,694,l),
(266,0,l)
);
},
{
closed = 1;
nodes = (
(450,579,l),
(439,594,l),
(270,82,l),
(290,82,l),
(120,594,l),
(107,579,l)
);
}
);
width = 557;
}
);
metricLeft = "e-canadian";
metricRight = "e-canadian";
note = uni15CA;
unicode = 5578;
},
{
color = 9;
glyphname = "roCarrier-canadian";
lastChange = "2023-01-13 15:28:10 +0000";
layers = (
{
layerId = "2974A4AB-0281-4EAC-B7D6-9B88228DB59B";
shapes = (
{
closed = 1;
nodes = (
(82,0,l),
(115,99,l),
(94,85,l),
(465,85,l),
(443,99,l),
(477,0,l),
(529,0,l),
(529,20,l),
(291,714,l),
(266,714,l),
(28,20,l),
(28,0,l)
);
},
{
closed = 1;
nodes = (
(288,632,l),
(268,632,l),
(438,120,l),
(451,135,l),
(109,135,l),
(119,120,l)
);
}
);
width = 557;
}
);
metricLeft = "e-canadian";
metricRight = "e-canadian";
note = uni15CB;
unicode = 5579;
},
{
color = 9;
glyphname = "reCarrier-canadian";
lastChange = "2023-01-13 15:28:10 +0000";
layers = (
{
layerId = "2974A4AB-0281-4EAC-B7D6-9B88228DB59B";
shapes = (
{
closed = 1;
nodes = (
(61,0,l),
(480,344,l),
(480,370,l),
(61,714,l),
(43,714,l),
(43,661,l),
(107,608,l),
(96,632,l),
(96,82,l),
(107,105,l),
(43,53,l),
(43,0,l)
);
},
{
closed = 1;
nodes = (
(143,611,l),
(133,592,l),
(437,339,l),
(437,374,l),
(133,122,l),
(143,102,l)
);
}
);
width = 512;
}
);
metricLeft = "po-canadian";
metricRight = "o-canadian";
note = uni15CC;
unicode = 5580;
},
{
color = 9;
glyphname = "reeCarrier-canadian";
lastChange = "2023-01-13 15:28:10 +0000";
layers = (
{
layerId = "2974A4AB-0281-4EAC-B7D6-9B88228DB59B";
shapes = (
{
closed = 1;
nodes = (
(61,0,l),
(480,344,l),
(480,370,l),
(61,714,l),
(43,714,l),
(43,667,l),
(107,614,l),
(96,632,l),
(96,82,l),
(107,99,l),
(43,47,l),
(43,0,l)
);
},
{
closed = 1;
nodes = (
(138,611,l),
(129,600,l),
(446,339,l),
(446,374,l),
(128,113,l),
(138,102,l)
);
},
{
closed = 1;
nodes = (
(223,264,l),
(223,452,l),
(195,452,l),
(195,264,l)
);
}
);
width = 512;
}
);
metricLeft = "po-canadian";
metricRight = "o-canadian";
note = uni15CD;
unicode = 5581;
},
{
color = 9;
glyphname = "riCarrier-canadian";
lastChange = "2023-01-13 15:28:10 +0000";
layers = (
{
layerId = "2974A4AB-0281-4EAC-B7D6-9B88228DB59B";
shapes = (
{
closed = 1;
nodes = (
(61,0,l),
(480,344,l),
(480,370,l),
(61,714,l),
(43,714,l),
(43,667,l),
(107,614,l),
(96,632,l),
(96,82,l),
(107,99,l),
(43,47,l),
(43,0,l)
);
},
{
closed = 1;
nodes = (
(242,323,o),
(258,338,o),
(258,357,cs),
(258,376,o),
(242,391,o),
(223,391,cs),
(204,391,o),
(189,376,o),
(189,357,cs),
(189,338,o),
(204,323,o),
(223,323,cs)
);
},
{
closed = 1;
nodes = (
(138,611,l),
(129,600,l),
(446,339,l),
(446,374,l),
(128,112,l),
(138,102,l)
);
}
);
width = 512;
}
);
metricLeft = "po-canadian";
metricRight = "o-canadian";
note = uni15CE;
unicode = 5582;
},
{
color = 9;
glyphname = "raCarrier-canadian";
lastChange = "2023-01-13 15:31:40 +0000";
layers = (
{
layerId = "2974A4AB-0281-4EAC-B7D6-9B88228DB59B";
shapes = (
{
closed = 1;
nodes = (
(470,0,l),
(470,53,l),
(406,106,l),
(417,69,l),
(417,646,l),
(406,609,l),
(470,661,l),
(470,714,l),
(451,714,l),
(32,370,l),
(32,344,l),
(451,0,l)
);
},
{
closed = 1;
nodes = (
(380,592,l),
(370,612,l),
(370,102,l),
(380,122,l),
(75,374,l),
(75,340,l)
);
}
);
width = 513;
}
);
metricLeft = "=|o-canadian";
metricRight = "=|po-canadian";
note = uni15CF;
unicode = 5583;
},
{
color = 9;
glyphname = "wuCarrier-canadian";
lastChange = "2023-01-13 15:28:10 +0000";
layers = (
{
layerId = "2974A4AB-0281-4EAC-B7D6-9B88228DB59B";
shapes = (
{
closed = 1;
nodes = (
(293,0,l),
(534,694,l),
(534,714,l),
(484,714,l),
(292,124,l),
(308,124,l),
(308,714,l),
(259,714,l),
(259,124,l),
(274,124,l),
(80,714,l),
(28,714,l),
(28,694,l),
(269,0,l)
);
}
);
width = 562;
}
);
metricLeft = "e-canadian";
metricRight = "e-canadian";
note = uni15D0;
unicode = 5584;
},
{
color = 9;
glyphname = "woCarrier-canadian";
lastChange = "2023-01-13 15:28:10 +0000";
layers = (
{
layerId = "2974A4AB-0281-4EAC-B7D6-9B88228DB59B";
shapes = (
{
closed = 1;
nodes = (
(79,0,l),
(273,590,l),
(256,590,l),
(256,0,l),
(306,0,l),
(306,590,l),
(291,590,l),
(484,0,l),
(534,0,l),
(534,20,l),
(293,714,l),
(269,714,l),
(28,20,l),
(28,0,l)
);
}
);
width = 562;
}
);
metricLeft = "e-canadian";
metricRight = "e-canadian";
note = uni15D1;
unicode = 5585;
},
{
color = 9;
glyphname = "weCarrier-canadian";
lastChange = "2023-01-13 15:28:10 +0000";
layers = (
{
layerId = "2974A4AB-0281-4EAC-B7D6-9B88228DB59B";
shapes = (
{
closed = 1;
nodes = (
(80,0,l),
(500,344,l),
(500,370,l),
(81,714,l),
(63,714,l),
(63,662,l),
(419,369,l),
(419,383,l),
(66,383,l),
(66,332,l),
(419,332,l),
(419,345,l),
(63,51,l),
(63,0,l)
);
}
);
width = 532;
}
);
metricRight = "o-canadian";
note = uni15D2;
unicode = 5586;
},
{
color = 9;
glyphname = "weeCarrier-canadian";
lastChange = "2023-01-13 15:28:10 +0000";
layers = (
{
layerId = "2974A4AB-0281-4EAC-B7D6-9B88228DB59B";
shapes = (
{
closed = 1;
nodes = (
(80,0,l),
(500,344,l),
(500,370,l),
(81,714,l),
(63,714,l),
(63,665,l),
(435,362,l),
(440,379,l),
(173,379,l),
(173,457,l),
(135,457,l),
(135,379,l),
(63,379,l),
(63,336,l),
(135,336,l),
(135,258,l),
(173,258,l),
(173,336,l),
(441,336,l),
(436,352,l),
(63,49,l),
(63,0,l)
);
}
);
width = 532;
}
);
metricLeft = "weCarrier-canadian";
metricRight = "o-canadian";
note = uni15D3;
unicode = 5587;
},
{
color = 9;
glyphname = "wiCarrier-canadian";
lastChange = "2023-01-13 15:28:10 +0000";
layers = (
{
layerId = "2974A4AB-0281-4EAC-B7D6-9B88228DB59B";
shapes = (
{
closed = 1;
nodes = (
(80,0,l),
(500,344,l),
(500,370,l),
(81,714,l),
(63,714,l),
(63,665,l),
(435,362,l),
(440,379,l),
(226,379,l),
(218,399,o),
(198,414,o),
(175,414,cs),
(152,414,o),
(132,399,o),
(124,379,c),
(63,379,l),
(63,336,l),
(123,336,l),
(132,316,o),
(152,300,o),
(175,300,cs),
(198,300,o),
(218,316,o),
(226,336,c),
(441,336,l),
(436,352,l),
(63,49,l),
(63,0,l)
);
}
);
width = 532;
}
);
metricLeft = "weCarrier-canadian";
metricRight = "o-canadian";
note = uni15D4;
unicode = 5588;
},
{
color = 9;
glyphname = "waCarrier-canadian";
lastChange = "2023-01-13 15:31:40 +0000";
layers = (
{
layerId = "2974A4AB-0281-4EAC-B7D6-9B88228DB59B";
shapes = (
{
closed = 1;
nodes = (
(470,0,l),
(470,52,l),
(113,345,l),
(113,331,l),
(467,331,l),
(467,382,l),
(113,382,l),
(113,369,l),
(470,662,l),
(470,714,l),
(453,714,l),
(32,370,l),
(32,344,l),
(452,0,l)
);
}
);
width = 533;
}
);
metricLeft = "=|o-canadian";
metricRight = "=|weCarrier-canadian";
note = uni15D5;
unicode = 5589;
},
{
color = 9;
glyphname = "hwuCarrier-canadian";
lastChange = "2023-01-13 15:28:10 +0000";
layers = (
{
layerId = "2974A4AB-0281-4EAC-B7D6-9B88228DB59B";
shapes = (
{
closed = 1;
nodes = (
(293,0,l),
(534,694,l),
(534,714,l),
(487,714,l),
(407,474,l),
(426,483,l),
(303,483,l),
(303,714,l),
(261,714,l),
(261,483,l),
(134,483,l),
(156,475,l),
(77,714,l),
(28,714,l),
(28,694,l),
(269,0,l)
);
},
{
closed = 1;
nodes = (
(263,445,l),
(263,112,l),
(273,113,l),
(162,453,l),
(139,445,l)
);
},
{
closed = 1;
nodes = (
(301,445,l),
(422,445,l),
(402,453,l),
(291,116,l),
(301,115,l)
);
}
);
width = 562;
}
);
metricLeft = "e-canadian";
metricRight = "e-canadian";
note = uni15D6;
unicode = 5590;
},
{
color = 9;
glyphname = "hwoCarrier-canadian";
lastChange = "2023-01-13 15:28:10 +0000";
layers = (
{
layerId = "2974A4AB-0281-4EAC-B7D6-9B88228DB59B";
shapes = (
{
closed = 1;
nodes = (
(77,0,l),
(157,240,l),
(138,228,l),
(260,228,l),
(260,0,l),
(302,0,l),
(302,228,l),
(431,228,l),
(407,239,l),
(487,0,l),
(534,0,l),
(534,20,l),
(293,714,l),
(269,714,l),
(28,20,l),
(28,0,l)
);
},
{
closed = 1;
nodes = (
(272,598,l),
(262,600,l),
(262,272,l),
(151,272,l),
(161,261,l)
);
},
{
closed = 1;
nodes = (
(417,272,l),
(299,272,l),
(299,602,l),
(289,601,l),
(401,261,l)
);
}
);
width = 562;
}
);
metricLeft = "e-canadian";
metricRight = "e-canadian";
note = uni15D7;
unicode = 5591;
},
{
color = 9;
glyphname = "hweCarrier-canadian";
lastChange = "2023-01-13 15:28:10 +0000";
layers = (
{
layerId = "2974A4AB-0281-4EAC-B7D6-9B88228DB59B";
shapes = (
{
closed = 1;
nodes = (
(80,0,l),
(500,344,l),
(500,370,l),
(81,714,l),
(63,714,l),
(63,665,l),
(181,568,l),
(181,380,l),
(63,380,l),
(63,335,l),
(181,335,l),
(181,145,l),
(63,48,l),
(63,0,l)
);
},
{
closed = 1;
nodes = (
(218,338,l),
(424,338,l),
(218,169,l)
);
},
{
closed = 1;
nodes = (
(218,545,l),
(423,376,l),
(218,376,l)
);
}
);
width = 532;
}
);
metricLeft = "weCarrier-canadian";
metricRight = "o-canadian";
note = uni15D8;
unicode = 5592;
},
{
color = 9;
glyphname = "hweeCarrier-canadian";
lastChange = "2023-01-13 15:28:10 +0000";
layers = (
{
layerId = "2974A4AB-0281-4EAC-B7D6-9B88228DB59B";
shapes = (
{
closed = 1;
nodes = (
(80,0,l),
(500,344,l),
(500,370,l),
(81,714,l),
(63,714,l),
(63,667,l),
(195,561,l),
(195,377,l),
(151,377,l),
(151,457,l),
(118,457,l),
(118,377,l),
(63,377,l),
(63,337,l),
(118,337,l),
(118,258,l),
(151,258,l),
(151,337,l),
(195,337,l),
(195,153,l),
(63,45,l),
(63,0,l)
);
},
{
closed = 1;
nodes = (
(230,340,l),
(425,340,l),
(230,176,l)
);
},
{
closed = 1;
nodes = (
(230,538,l),
(424,375,l),
(230,375,l)
);
}
);
width = 532;
}
);
metricLeft = "weCarrier-canadian";
metricRight = "o-canadian";
note = uni15D9;
unicode = 5593;
},
{
color = 9;
glyphname = "hwiCarrier-canadian";
lastChange = "2023-01-13 15:28:10 +0000";
layers = (
{
layerId = "2974A4AB-0281-4EAC-B7D6-9B88228DB59B";
shapes = (
{
closed = 1;
nodes = (
(80,0,l),
(500,344,l),
(500,370,l),
(81,714,l),
(63,714,l),
(63,667,l),
(195,561,l),
(195,375,l),
(177,375,l),
(171,394,o),
(154,408,o),
(134,408,cs),
(113,408,o),
(96,394,o),
(90,375,c),
(63,375,l),
(63,340,l),
(89,340,l),
(95,321,o),
(113,306,o),
(133,306,cs),
(153,306,o),
(171,321,o),
(178,340,c),
(195,340,l),
(195,153,l),
(63,45,l),
(63,0,l)
);
},
{
closed = 1;
nodes = (
(230,340,l),
(425,340,l),
(230,176,l)
);
},
{
closed = 1;
nodes = (
(230,538,l),
(424,375,l),
(230,375,l)
);
}
);
width = 532;
}
);
metricLeft = "weCarrier-canadian";
metricRight = "o-canadian";
note = uni15DA;
unicode = 5594;
},
{
color = 9;
glyphname = "hwaCarrier-canadian";
lastChange = "2023-01-13 15:31:40 +0000";
layers = (
{
layerId = "2974A4AB-0281-4EAC-B7D6-9B88228DB59B";
shapes = (
{
closed = 1;
nodes = (
(470,0,l),
(470,49,l),
(352,145,l),
(352,334,l),
(470,334,l),
(470,379,l),
(352,379,l),
(352,568,l),
(470,666,l),
(470,714,l),
(453,714,l),
(32,370,l),
(32,344,l),
(452,0,l)
);
},
{
closed = 1;
nodes = (
(110,338,l),
(314,338,l),
(314,169,l)
);
},
{
closed = 1;
nodes = (
(314,545,l),
(314,376,l),
(109,376,l)
);
}
);
width = 533;
}
);
metricLeft = "=|o-canadian";
metricRight = "=|weCarrier-canadian";
note = uni15DB;
unicode = 5595;
},
{
color = 9;
glyphname = "thuCarrier-canadian";
lastChange = "2023-01-13 15:31:40 +0000";
layers = (
{
layerId = "2974A4AB-0281-4EAC-B7D6-9B88228DB59B";
shapes = (
{
closed = 1;
nodes = (
(421,-13,o),
(502,73,o),
(502,245,cs),
(502,714,l),
(61,714,l),
(61,242,ls),
(61,74,o),
(146,-13,o),
(282,-13,cs)
);
},
{
closed = 1;
nodes = (
(124,656,l),
(439,656,l),
(439,244,ls),
(439,107,o),
(382,47,o),
(281,47,cs),
(184,47,o),
(124,109,o),
(124,244,cs)
);
}
);
width = 563;
}
);
metricLeft = "te-canadian";
metricRight = "te-canadian";
note = uni15DC;
unicode = 5596;
},
{
color = 9;
glyphname = "thoCarrier-canadian";
lastChange = "2023-01-13 15:31:40 +0000";
layers = (
{
layerId = "2974A4AB-0281-4EAC-B7D6-9B88228DB59B";
shapes = (
{
closed = 1;
nodes = (
(502,0,l),
(502,472,ls),
(502,640,o),
(418,727,o),
(282,727,cs),
(143,727,o),
(61,641,o),
(61,469,cs),
(61,0,l)
);
},
{
closed = 1;
nodes = (
(124,470,ls),
(124,607,o),
(181,667,o),
(282,667,cs),
(380,667,o),
(439,605,o),
(439,470,cs),
(439,58,l),
(124,58,l)
);
}
);
width = 563;
}
);
metricLeft = "te-canadian";
metricRight = "te-canadian";
note = uni15DD;
unicode = 5597;
},
{
color = 9;
glyphname = "theCarrier-canadian";
lastChange = "2023-01-13 15:28:10 +0000";
layers = (
{
anchors = (
{
name = middle_center_can;
pos = (272,357);
}
);
layerId = "2974A4AB-0281-4EAC-B7D6-9B88228DB59B";
shapes = (
{
closed = 1;
nodes = (
(202,0,ls),
(400,0,o),
(491,125,o),
(491,358,cs),
(491,591,o),
(400,714,o),
(197,714,cs),
(65,714,l),
(65,0,l)
);
},
{
closed = 1;
nodes = (
(128,679,l),
(106,657,l),
(197,657,ls),
(363,657,o),
(428,558,o),
(428,358,cs),
(428,159,o),
(363,57,o),
(202,57,cs),
(106,57,l),
(128,35,l)
);
}
);
width = 543;
}
);
metricLeft = "nunavuth-canadian";
metricRight = "to-canadian";
note = uni15DE;
unicode = 5598;
},
{
color = 9;
glyphname = "thaCarrier-canadian";
lastChange = "2023-01-13 15:31:40 +0000";
layers = (
{
layerId = "2974A4AB-0281-4EAC-B7D6-9B88228DB59B";
shapes = (
{
closed = 1;
nodes = (
(479,0,l),
(479,714,l),
(341,714,ls),
(144,714,o),
(52,589,o),
(52,356,cs),
(52,123,o),
(144,0,o),
(347,0,cs)
);
},
{
closed = 1;
nodes = (
(116,555,o),
(180,657,o),
(341,657,cs),
(438,657,l),
(415,679,l),
(415,35,l),
(438,57,l),
(346,57,ls),
(180,57,o),
(116,156,o),
(116,356,cs)
);
}
);
width = 544;
}
);
metricLeft = "=|theCarrier-canadian";
metricRight = "nunavuth-canadian";
note = uni15E1;
unicode = 5601;
},
{
color = 9;
glyphname = "ttuCarrier-canadian";
lastChange = "2023-01-13 15:31:40 +0000";
layers = (
{
layerId = "2974A4AB-0281-4EAC-B7D6-9B88228DB59B";
shapes = (
{
closed = 1;
nodes = (
(421,-13,o),
(502,73,o),
(502,245,cs),
(502,714,l),
(479,714,l),
(274,520,l),
(291,520,l),
(86,714,l),
(61,714,l),
(61,242,ls),
(61,74,o),
(146,-13,o),
(282,-13,cs)
);
},
{
closed = 1;
nodes = (
(184,47,o),
(124,109,o),
(124,244,cs),
(124,665,l),
(70,662,l),
(274,468,l),
(290,468,l),
(494,662,l),
(439,665,l),
(439,244,ls),
(439,107,o),
(382,47,o),
(281,47,cs)
);
}
);
width = 563;
}
);
metricLeft = "te-canadian";
metricRight = "te-canadian";
note = uni15E2;
unicode = 5602;
},
{
color = 9;
glyphname = "ttoCarrier-canadian";
lastChange = "2023-01-13 15:31:40 +0000";
layers = (
{
layerId = "2974A4AB-0281-4EAC-B7D6-9B88228DB59B";
shapes = (
{
closed = 1;
nodes = (
(85,0,l),
(290,194,l),
(273,194,l),
(477,0,l),
(502,0,l),
(502,472,ls),
(502,640,o),
(418,727,o),
(282,727,cs),
(143,727,o),
(61,641,o),
(61,469,cs),
(61,0,l)
);
},
{
closed = 1;
nodes = (
(380,667,o),
(439,605,o),
(439,470,cs),
(439,49,l),
(494,52,l),
(290,246,l),
(274,246,l),
(69,52,l),
(124,49,l),
(124,470,ls),
(124,607,o),
(181,667,o),
(282,667,cs)
);
}
);
width = 563;
}
);
metricLeft = "te-canadian";
metricRight = "te-canadian";
note = uni15E3;
unicode = 5603;
},
{
color = 9;
glyphname = "tteCarrier-canadian";
lastChange = "2023-01-13 15:28:10 +0000";
layers = (
{
anchors = (
{
name = middle_center_can;
pos = (315,357);
}
);
layerId = "2974A4AB-0281-4EAC-B7D6-9B88228DB59B";
shapes = (
{
closed = 1;
nodes = (
(211,0,ls),
(409,0,o),
(501,125,o),
(501,358,cs),
(501,591,o),
(409,714,o),
(207,714,cs),
(61,714,l),
(61,694,l),
(158,345,l),
(158,369,l),
(61,20,l),
(61,0,l)
);
},
{
closed = 1;
nodes = (
(215,348,l),
(215,363,l),
(118,707,l),
(118,657,l),
(207,657,ls),
(373,657,o),
(437,558,o),
(437,358,cs),
(437,159,o),
(373,57,o),
(212,57,cs),
(118,57,l),
(118,4,l)
);
}
);
width = 553;
}
);
metricRight = "theCarrier-canadian";
note = uni15E4;
unicode = 5604;
},
{
color = 9;
glyphname = "ttaCarrier-canadian";
lastChange = "2023-01-13 15:28:10 +0000";
layers = (
{
layerId = "2974A4AB-0281-4EAC-B7D6-9B88228DB59B";
shapes = (
{
closed = 1;
nodes = (
(492,0,l),
(492,20,l),
(395,369,l),
(395,345,l),
(492,694,l),
(492,714,l),
(341,714,ls),
(144,714,o),
(52,589,o),
(52,356,cs),
(52,123,o),
(144,0,o),
(347,0,cs)
);
},
{
closed = 1;
nodes = (
(435,57,l),
(346,57,ls),
(180,57,o),
(116,156,o),
(116,356,cs),
(116,555,o),
(180,657,o),
(341,657,cs),
(435,657,l),
(435,710,l),
(338,366,l),
(338,351,l),
(435,7,l)
);
}
);
width = 553;
}
);
metricLeft = "=|theCarrier-canadian";
metricRight = "=|tteCarrier-canadian";
note = uni15E7;
unicode = 5607;
},
{
color = 9;
glyphname = "puCarrier-canadian";
lastChange = "2023-01-13 15:31:40 +0000";
layers = (
{
layerId = "2974A4AB-0281-4EAC-B7D6-9B88228DB59B";
shapes = (
{
closed = 1;
nodes = (
(421,-13,o),
(502,73,o),
(502,245,cs),
(502,714,l),
(439,714,l),
(439,535,l),
(125,535,l),
(125,714,l),
(61,714,l),
(61,242,ls),
(61,74,o),
(146,-13,o),
(282,-13,cs)
);
},
{
closed = 1;
nodes = (
(184,47,o),
(125,109,o),
(125,244,cs),
(125,478,l),
(439,478,l),
(439,244,ls),
(439,107,o),
(382,47,o),
(281,47,cs)
);
}
);
width = 563;
}
);
metricLeft = "te-canadian";
metricRight = "te-canadian";
note = uni15E8;
unicode = 5608;
},
{
color = 9;
glyphname = "poCarrier-canadian";
lastChange = "2023-01-13 15:31:40 +0000";
layers = (
{
layerId = "2974A4AB-0281-4EAC-B7D6-9B88228DB59B";
shapes = (
{
closed = 1;
nodes = (
(125,0,l),
(125,179,l),
(439,179,l),
(439,0,l),
(502,0,l),
(502,472,ls),
(502,640,o),
(418,727,o),
(282,727,cs),
(145,727,o),
(61,641,o),
(61,469,cs),
(61,0,l)
);
},
{
closed = 1;
nodes = (
(125,470,ls),
(125,607,o),
(181,667,o),
(282,667,cs),
(380,667,o),
(439,605,o),
(439,470,cs),
(439,236,l),
(125,236,l)
);
}
);
width = 563;
}
);
metricLeft = "te-canadian";
metricRight = "te-canadian";
note = uni15E9;
unicode = 5609;
},
{
color = 9;
glyphname = "peCarrier-canadian";
lastChange = "2023-01-13 15:28:10 +0000";
layers = (
{
anchors = (
{
name = middle_center_can;
pos = (305,357);
}
);
layerId = "2974A4AB-0281-4EAC-B7D6-9B88228DB59B";
shapes = (
{
closed = 1;
nodes = (
(208,0,ls),
(407,0,o),
(498,125,o),
(498,358,cs),
(498,591,o),
(407,714,o),
(204,714,cs),
(58,714,l),
(58,657,l),
(127,657,l),
(127,57,l),
(58,57,l),
(58,0,l)
);
},
{
closed = 1;
nodes = (
(190,679,l),
(160,657,l),
(205,657,ls),
(371,657,o),
(434,558,o),
(434,358,cs),
(434,159,o),
(371,57,o),
(209,57,cs),
(160,57,l),
(190,35,l)
);
}
);
width = 550;
}
);
metricRight = "theCarrier-canadian";
note = uni15EA;
unicode = 5610;
},
{
color = 9;
glyphname = "paCarrier-canadian";
lastChange = "2023-01-13 15:28:10 +0000";
layers = (
{
layerId = "2974A4AB-0281-4EAC-B7D6-9B88228DB59B";
shapes = (
{
closed = 1;
nodes = (
(492,0,l),
(492,57,l),
(423,57,l),
(423,657,l),
(492,657,l),
(492,714,l),
(346,714,ls),
(144,714,o),
(52,591,o),
(52,358,cs),
(52,125,o),
(144,0,o),
(342,0,cs)
);
},
{
closed = 1;
nodes = (
(390,57,l),
(341,57,ls),
(180,57,o),
(116,159,o),
(116,358,cs),
(116,558,o),
(180,657,o),
(346,657,cs),
(390,657,l),
(360,679,l),
(360,35,l)
);
}
);
width = 550;
}
);
metricLeft = "=|theCarrier-canadian";
metricRight = "=|peCarrier-canadian";
note = uni15ED;
unicode = 5613;
},
{
color = 6;
glyphname = "pCarrier-canadian";
lastChange = "2023-01-13 15:28:10 +0000";
layers = (
{
layerId = "2974A4AB-0281-4EAC-B7D6-9B88228DB59B";
shapes = (
{
closed = 1;
nodes = (
(303,189,l),
(303,233,l),
(200,233,l),
(200,546,l),
(155,546,l),
(155,233,l),
(52,233,l),
(52,189,l)
);
}
);
width = 355;
}
);
metricLeft = "shorthorizontalstrokeFinal-canadian";
metricRight = "shorthorizontalstrokeFinal-canadian";
note = uni15EE;
unicode = 5614;
},
{
color = 9;
glyphname = "guCarrier-canadian";
lastChange = "2023-01-13 15:28:10 +0000";
layers = (
{
anchors = (
{
name = top_center_can;
pos = (334,714);
}
);
layerId = "2974A4AB-0281-4EAC-B7D6-9B88228DB59B";
shapes = (
{
closed = 1;
nodes = (
(279,-13,o),
(328,30,o),
(347,117,c),
(321,117,l),
(343,29,o),
(392,-13,o),
(460,-13,cs),
(551,-13,o),
(609,54,o),
(609,182,cs),
(609,714,l),
(548,714,l),
(548,185,ls),
(548,89,o),
(516,46,o),
(457,46,cs),
(398,46,o),
(364,91,o),
(364,185,cs),
(364,714,l),
(305,714,l),
(305,185,ls),
(305,89,o),
(271,46,o),
(212,46,cs),
(152,46,o),
(119,89,o),
(119,185,cs),
(119,714,l),
(58,714,l),
(58,184,ls),
(58,53,o),
(118,-13,o),
(209,-13,cs)
);
}
);
width = 667;
}
);
metricRight = "=|";
note = uni15EF;
unicode = 5615;
},
{
color = 9;
glyphname = "goCarrier-canadian";
lastChange = "2023-01-13 15:28:10 +0000";
layers = (
{
layerId = "2974A4AB-0281-4EAC-B7D6-9B88228DB59B";
shapes = (
{
closed = 1;
nodes = (
(119,0,l),
(119,529,ls),
(119,624,o),
(152,668,o),
(211,668,cs),
(269,668,o),
(303,623,o),
(303,529,cs),
(303,0,l),
(362,0,l),
(362,529,ls),
(362,625,o),
(396,668,o),
(455,668,cs),
(516,668,o),
(548,625,o),
(548,529,cs),
(548,0,l),
(609,0,l),
(609,530,ls),
(609,661,o),
(549,727,o),
(458,727,cs),
(388,727,o),
(339,684,o),
(320,597,c),
(346,597,l),
(324,685,o),
(275,727,o),
(207,727,cs),
(117,727,o),
(58,660,o),
(58,532,cs),
(58,0,l)
);
}
);
width = 667;
}
);
metricLeft = "guCarrier-canadian";
metricRight = "guCarrier-canadian";
note = uni15F0;
unicode = 5616;
},
{
color = 9;
glyphname = "geCarrier-canadian";
lastChange = "2023-01-13 15:28:10 +0000";
layers = (
{
anchors = (
{
name = top_center_can;
pos = (278,714);
}
);
layerId = "2974A4AB-0281-4EAC-B7D6-9B88228DB59B";
shapes = (
{
closed = 1;
nodes = (
(298,0,ls),
(416,0,o),
(491,65,o),
(491,187,cs),
(491,274,o),
(446,341,o),
(373,366,c),
(373,348,l),
(447,371,o),
(491,435,o),
(491,525,cs),
(491,648,o),
(415,714,o),
(298,714,cs),
(65,714,l),
(65,660,l),
(288,660,ls),
(374,660,o),
(428,617,o),
(428,523,cs),
(428,431,o),
(374,384,o),
(289,384,cs),
(65,384,l),
(65,330,l),
(290,330,ls),
(373,330,o),
(428,283,o),
(428,190,cs),
(428,96,o),
(373,54,o),
(288,54,cs),
(65,54,l),
(65,0,l)
);
}
);
width = 553;
}
);
metricLeft = "nunavuth-canadian";
note = uni15F1;
unicode = 5617;
},
{
color = 9;
glyphname = "geeCarrier-canadian";
lastChange = "2023-01-13 15:28:10 +0000";
layers = (
{
layerId = "2974A4AB-0281-4EAC-B7D6-9B88228DB59B";
shapes = (
{
closed = 1;
nodes = (
(298,0,ls),
(416,0,o),
(491,65,o),
(491,187,cs),
(491,274,o),
(446,341,o),
(373,366,c),
(373,348,l),
(447,371,o),
(491,435,o),
(491,525,cs),
(491,648,o),
(415,714,o),
(298,714,cs),
(65,714,l),
(65,660,l),
(288,660,ls),
(374,660,o),
(428,617,o),
(428,523,cs),
(428,431,o),
(374,384,o),
(289,384,cs),
(266,384,l),
(266,468,l),
(228,468,l),
(228,384,l),
(65,384,l),
(65,331,l),
(228,331,l),
(228,248,l),
(266,248,l),
(266,331,l),
(290,331,ls),
(373,331,o),
(428,283,o),
(428,190,cs),
(428,96,o),
(373,54,o),
(288,54,cs),
(65,54,l),
(65,0,l)
);
}
);
width = 553;
}
);
metricLeft = "geCarrier-canadian";
metricRight = "geCarrier-canadian";
note = uni15F2;
unicode = 5618;
},
{
color = 9;
glyphname = "giCarrier-canadian";
lastChange = "2023-01-13 15:28:10 +0000";
layers = (
{
layerId = "2974A4AB-0281-4EAC-B7D6-9B88228DB59B";
shapes = (
{
closed = 1;
nodes = (
(298,0,ls),
(416,0,o),
(491,65,o),
(491,187,cs),
(491,274,o),
(446,341,o),
(373,366,c),
(373,348,l),
(447,371,o),
(491,435,o),
(491,525,cs),
(491,648,o),
(415,714,o),
(298,714,cs),
(65,714,l),
(65,660,l),
(288,660,ls),
(374,660,o),
(428,617,o),
(428,523,cs),
(428,431,o),
(374,384,o),
(295,384,cs),
(281,384,l),
(305,376,l),
(296,401,o),
(274,418,o),
(248,418,cs),
(225,418,o),
(205,404,o),
(196,384,c),
(65,384,l),
(65,331,l),
(196,331,l),
(204,310,o),
(225,296,o),
(248,296,cs),
(274,296,o),
(296,313,o),
(305,338,c),
(281,331,l),
(295,331,ls),
(373,331,o),
(428,283,o),
(428,190,cs),
(428,96,o),
(373,54,o),
(288,54,cs),
(65,54,l),
(65,0,l)
);
}
);
width = 553;
}
);
metricLeft = "geCarrier-canadian";
metricRight = "geCarrier-canadian";
note = uni15F3;
unicode = 5619;
},
{
color = 9;
glyphname = "gaCarrier-canadian";
lastChange = "2023-01-13 15:31:40 +0000";
layers = (
{
anchors = (
{
name = top_center_can;
pos = (289,714);
}
);
layerId = "2974A4AB-0281-4EAC-B7D6-9B88228DB59B";
shapes = (
{
closed = 1;
nodes = (
(489,0,l),
(489,54,l),
(265,54,ls),
(180,54,o),
(126,96,o),
(126,190,cs),
(126,283,o),
(181,330,o),
(263,330,cs),
(489,330,l),
(489,384,l),
(264,384,ls),
(179,384,o),
(126,431,o),
(126,523,cs),
(126,617,o),
(180,660,o),
(265,660,cs),
(489,660,l),
(489,714,l),
(255,714,ls),
(138,714,o),
(62,648,o),
(62,525,cs),
(62,435,o),
(106,371,o),
(181,348,c),
(181,366,l),
(107,341,o),
(62,274,o),
(62,187,cs),
(62,65,o),
(137,0,o),
(255,0,cs)
);
}
);
width = 554;
}
);
metricLeft = "=|geCarrier-canadian";
metricRight = "=|geCarrier-canadian";
note = uni15F4;
unicode = 5620;
},
{
color = 9;
glyphname = "khuCarrier-canadian";
lastChange = "2023-01-13 15:28:10 +0000";
layers = (
{
layerId = "2974A4AB-0281-4EAC-B7D6-9B88228DB59B";
shapes = (
{
closed = 1;
nodes = (
(280,-13,o),
(329,30,o),
(348,117,c),
(322,117,l),
(344,29,o),
(393,-13,o),
(461,-13,cs),
(551,-13,o),
(609,54,o),
(609,182,cs),
(609,714,l),
(58,714,l),
(58,184,ls),
(58,53,o),
(118,-13,o),
(209,-13,cs)
);
},
{
closed = 1;
nodes = (
(152,46,o),
(120,89,o),
(120,185,cs),
(120,657,l),
(306,657,l),
(306,185,ls),
(306,89,o),
(272,46,o),
(213,46,cs)
);
},
{
closed = 1;
nodes = (
(398,46,o),
(364,91,o),
(364,185,cs),
(364,657,l),
(548,657,l),
(548,185,ls),
(548,89,o),
(516,46,o),
(457,46,cs)
);
}
);
width = 667;
}
);
metricLeft = "guCarrier-canadian";
metricRight = "guCarrier-canadian";
note = uni15F5;
unicode = 5621;
},
{
color = 9;
glyphname = "khoCarrier-canadian";
lastChange = "2023-01-13 15:28:10 +0000";
layers = (
{
layerId = "2974A4AB-0281-4EAC-B7D6-9B88228DB59B";
shapes = (
{
closed = 1;
nodes = (
(609,0,l),
(609,530,ls),
(609,661,o),
(549,727,o),
(458,727,cs),
(387,727,o),
(338,684,o),
(319,597,c),
(345,597,l),
(323,685,o),
(274,727,o),
(207,727,cs),
(116,727,o),
(58,660,o),
(58,532,cs),
(58,0,l)
);
},
{
closed = 1;
nodes = (
(119,529,ls),
(119,624,o),
(151,668,o),
(210,668,cs),
(269,668,o),
(303,623,o),
(303,529,cs),
(303,57,l),
(119,57,l)
);
},
{
closed = 1;
nodes = (
(361,529,ls),
(361,625,o),
(395,668,o),
(454,668,cs),
(515,668,o),
(547,625,o),
(547,529,cs),
(547,57,l),
(361,57,l)
);
}
);
width = 667;
}
);
metricLeft = "guCarrier-canadian";
metricRight = "guCarrier-canadian";
note = uni15F6;
unicode = 5622;
},
{
color = 9;
glyphname = "kheCarrier-canadian";
lastChange = "2023-01-13 15:28:10 +0000";
layers = (
{
layerId = "2974A4AB-0281-4EAC-B7D6-9B88228DB59B";
shapes = (
{
closed = 1;
nodes = (
(300,0,ls),
(418,0,o),
(493,65,o),
(493,187,cs),
(493,274,o),
(448,341,o),
(375,366,c),
(375,348,l),
(449,371,o),
(493,435,o),
(493,525,cs),
(493,648,o),
(417,714,o),
(300,714,cs),
(65,714,l),
(65,0,l)
);
},
{
closed = 1;
nodes = (
(128,331,l),
(292,331,ls),
(374,331,o),
(430,283,o),
(430,190,cs),
(430,96,o),
(375,54,o),
(290,54,cs),
(128,54,l)
);
},
{
closed = 1;
nodes = (
(128,660,l),
(290,660,ls),
(376,660,o),
(430,617,o),
(430,523,cs),
(430,431,o),
(376,384,o),
(291,384,cs),
(128,384,l)
);
}
);
width = 555;
}
);
metricLeft = "nunavuth-canadian";
metricRight = "geCarrier-canadian";
note = uni15F7;
unicode = 5623;
},
{
color = 9;
glyphname = "kheeCarrier-canadian";
lastChange = "2023-01-13 15:28:10 +0000";
layers = (
{
layerId = "2974A4AB-0281-4EAC-B7D6-9B88228DB59B";
shapes = (
{
closed = 1;
nodes = (
(300,0,ls),
(418,0,o),
(493,65,o),
(493,187,cs),
(493,278,o),
(443,347,o),
(361,366,c),
(361,347,l),
(444,364,o),
(493,430,o),
(493,525,cs),
(493,648,o),
(417,714,o),
(300,714,cs),
(65,714,l),
(65,0,l)
);
},
{
closed = 1;
nodes = (
(128,331,l),
(244,331,l),
(244,239,l),
(282,239,l),
(282,345,l),
(259,331,l),
(297,331,ls),
(377,331,o),
(430,283,o),
(430,190,cs),
(430,96,o),
(375,54,o),
(290,54,cs),
(128,54,l)
);
},
{
closed = 1;
nodes = (
(282,477,l),
(244,477,l),
(244,384,l),
(128,384,l),
(128,660,l),
(290,660,ls),
(376,660,o),
(430,617,o),
(430,523,cs),
(430,431,o),
(379,384,o),
(297,384,cs),
(259,384,l),
(282,369,l)
);
}
);
width = 555;
}
);
metricLeft = "nunavuth-canadian";
metricRight = "geCarrier-canadian";
note = uni15F8;
unicode = 5624;
},
{
color = 9;
glyphname = "khiCarrier-canadian";
lastChange = "2023-01-13 15:28:10 +0000";
layers = (
{
layerId = "2974A4AB-0281-4EAC-B7D6-9B88228DB59B";
shapes = (
{
closed = 1;
nodes = (
(300,0,ls),
(418,0,o),
(493,65,o),
(493,187,cs),
(493,274,o),
(448,341,o),
(375,365,c),
(375,348,l),
(449,370,o),
(493,435,o),
(493,525,cs),
(493,648,o),
(417,714,o),
(300,714,cs),
(65,714,l),
(65,0,l)
);
},
{
closed = 1;
nodes = (
(128,333,l),
(206,333,l),
(215,311,o),
(236,296,o),
(260,296,cs),
(291,296,o),
(315,321,o),
(318,352,c),
(284,333,l),
(300,333,ls),
(377,333,o),
(430,285,o),
(430,191,cs),
(430,95,o),
(375,54,o),
(290,54,cs),
(128,54,l)
);
},
{
closed = 1;
nodes = (
(290,660,ls),
(376,660,o),
(430,618,o),
(430,521,cs),
(430,429,o),
(379,381,o),
(299,381,cs),
(284,381,l),
(317,362,l),
(315,393,o),
(291,418,o),
(260,418,cs),
(229,418,o),
(204,393,o),
(201,362,c),
(219,381,l),
(128,381,l),
(128,660,l)
);
}
);
width = 555;
}
);
metricLeft = "nunavuth-canadian";
metricRight = "geCarrier-canadian";
note = uni15F9;
unicode = 5625;
},
{
color = 9;
glyphname = "khaCarrier-canadian";
lastChange = "2023-01-13 15:31:40 +0000";
layers = (
{
layerId = "2974A4AB-0281-4EAC-B7D6-9B88228DB59B";
shapes = (
{
closed = 1;
nodes = (
(491,0,l),
(491,714,l),
(255,714,ls),
(138,714,o),
(62,648,o),
(62,525,cs),
(62,435,o),
(106,370,o),
(181,348,c),
(180,365,l),
(107,341,o),
(62,274,o),
(62,187,cs),
(62,65,o),
(137,0,o),
(255,0,cs)
);
},
{
closed = 1;
nodes = (
(180,54,o),
(126,96,o),
(126,190,cs),
(126,283,o),
(181,331,o),
(263,331,cs),
(427,331,l),
(427,54,l),
(265,54,ls)
);
},
{
closed = 1;
nodes = (
(179,384,o),
(126,431,o),
(126,523,cs),
(126,617,o),
(180,660,o),
(265,660,cs),
(427,660,l),
(427,384,l),
(264,384,ls)
);
}
);
width = 556;
}
);
metricLeft = "=|geCarrier-canadian";
metricRight = "nunavuth-canadian";
note = uni15FA;
unicode = 5626;
},
{
color = 9;
glyphname = "kkuCarrier-canadian";
lastChange = "2023-01-13 15:28:10 +0000";
layers = (
{
layerId = "2974A4AB-0281-4EAC-B7D6-9B88228DB59B";
shapes = (
{
closed = 1;
nodes = (
(279,-13,o),
(327,29,o),
(347,115,c),
(322,115,l),
(344,29,o),
(392,-13,o),
(460,-13,cs),
(551,-13,o),
(609,54,o),
(609,182,cs),
(609,714,l),
(584,714,l),
(351,537,l),
(351,476,l),
(563,640,l),
(548,649,l),
(548,185,ls),
(548,89,o),
(515,46,o),
(456,46,cs),
(398,46,o),
(363,91,o),
(363,185,cs),
(363,714,l),
(305,714,l),
(305,185,ls),
(305,89,o),
(271,46,o),
(213,46,cs),
(152,46,o),
(119,89,o),
(119,185,cs),
(119,649,l),
(105,640,l),
(314,477,l),
(314,539,l),
(84,714,l),
(58,714,l),
(58,184,ls),
(58,53,o),
(118,-13,o),
(209,-13,cs)
);
}
);
width = 667;
}
);
metricLeft = "guCarrier-canadian";
metricRight = "guCarrier-canadian";
note = uni15FB;
unicode = 5627;
},
{
color = 9;
glyphname = "kkoCarrier-canadian";
lastChange = "2023-01-13 15:28:10 +0000";
layers = (
{
layerId = "2974A4AB-0281-4EAC-B7D6-9B88228DB59B";
shapes = (
{
closed = 1;
nodes = (
(83,0,l),
(316,177,l),
(316,238,l),
(104,74,l),
(119,65,l),
(119,529,ls),
(119,625,o),
(152,668,o),
(211,668,cs),
(269,668,o),
(304,623,o),
(304,529,cs),
(304,0,l),
(362,0,l),
(362,529,ls),
(362,625,o),
(396,668,o),
(455,668,cs),
(516,668,o),
(548,625,o),
(548,529,cs),
(548,65,l),
(563,74,l),
(353,237,l),
(353,175,l),
(583,0,l),
(609,0,l),
(609,530,ls),
(609,661,o),
(550,727,o),
(459,727,cs),
(389,727,o),
(340,685,o),
(320,599,c),
(346,599,l),
(323,685,o),
(275,727,o),
(208,727,cs),
(117,727,o),
(58,660,o),
(58,532,cs),
(58,0,l)
);
}
);
width = 667;
}
);
metricLeft = "guCarrier-canadian";
metricRight = "guCarrier-canadian";
note = uni15FC;
unicode = 5628;
},
{
color = 9;
glyphname = "kkeCarrier-canadian";
lastChange = "2023-01-13 15:28:10 +0000";
layers = (
{
layerId = "2974A4AB-0281-4EAC-B7D6-9B88228DB59B";
shapes = (
{
closed = 1;
nodes = (
(314,0,ls),
(432,0,o),
(507,65,o),
(507,187,cs),
(507,274,o),
(462,341,o),
(389,365,c),
(388,348,l),
(463,370,o),
(507,435,o),
(507,525,cs),
(507,648,o),
(431,714,o),
(314,714,cs),
(64,714,l),
(64,694,l),
(151,384,l),
(67,384,l),
(67,330,l),
(151,330,l),
(64,20,l),
(64,0,l)
);
},
{
closed = 1;
nodes = (
(214,330,l),
(305,330,ls),
(388,330,o),
(443,283,o),
(443,190,cs),
(443,96,o),
(389,54,o),
(304,54,cs),
(109,54,l),
(129,27,l)
);
},
{
closed = 1;
nodes = (
(128,687,l),
(108,660,l),
(304,660,ls),
(389,660,o),
(443,617,o),
(443,523,cs),
(443,431,o),
(390,384,o),
(305,384,cs),
(213,384,l)
);
}
);
width = 569;
}
);
metricRight = "geCarrier-canadian";
note = uni15FD;
unicode = 5629;
},
{
color = 9;
glyphname = "kkeeCarrier-canadian";
lastChange = "2023-01-13 15:28:10 +0000";
layers = (
{
layerId = "2974A4AB-0281-4EAC-B7D6-9B88228DB59B";
shapes = (
{
closed = 1;
nodes = (
(314,0,ls),
(432,0,o),
(507,65,o),
(507,187,cs),
(507,274,o),
(462,341,o),
(389,365,c),
(388,348,l),
(463,370,o),
(507,435,o),
(507,525,cs),
(507,648,o),
(431,714,o),
(314,714,cs),
(64,714,l),
(64,694,l),
(151,384,l),
(67,384,l),
(67,330,l),
(151,330,l),
(64,20,l),
(64,0,l)
);
},
{
closed = 1;
nodes = (
(213,332,l),
(277,332,l),
(277,247,l),
(315,247,l),
(315,348,l),
(288,332,l),
(310,332,ls),
(391,332,o),
(443,285,o),
(443,191,cs),
(443,97,o),
(389,54,o),
(304,54,cs),
(107,54,l),
(128,27,l)
);
},
{
closed = 1;
nodes = (
(315,468,l),
(277,468,l),
(277,383,l),
(212,383,l),
(126,687,l),
(106,660,l),
(304,660,ls),
(389,660,o),
(443,617,o),
(443,522,cs),
(443,429,o),
(392,383,o),
(310,383,cs),
(288,383,l),
(315,369,l)
);
}
);
width = 569;
}
);
metricLeft = "kkeCarrier-canadian";
metricRight = "geCarrier-canadian";
note = uni15FE;
unicode = 5630;
},
{
color = 9;
glyphname = "kkiCarrier-canadian";
lastChange = "2023-01-13 15:28:10 +0000";
layers = (
{
layerId = "2974A4AB-0281-4EAC-B7D6-9B88228DB59B";
shapes = (
{
closed = 1;
nodes = (
(314,0,ls),
(432,0,o),
(507,65,o),
(507,187,cs),
(507,274,o),
(462,341,o),
(389,365,c),
(388,348,l),
(463,370,o),
(507,435,o),
(507,525,cs),
(507,648,o),
(431,714,o),
(314,714,cs),
(64,714,l),
(64,694,l),
(151,384,l),
(67,384,l),
(67,330,l),
(151,330,l),
(64,20,l),
(64,0,l)
);
},
{
closed = 1;
nodes = (
(214,334,l),
(232,334,l),
(239,312,o),
(260,296,o),
(285,296,cs),
(316,296,o),
(339,322,o),
(340,349,c),
(293,334,l),
(310,334,ls),
(391,334,o),
(443,285,o),
(443,189,cs),
(443,97,o),
(389,54,o),
(304,54,cs),
(107,54,l),
(128,27,l)
);
},
{
closed = 1;
nodes = (
(339,392,o),
(317,418,o),
(285,418,cs),
(260,418,o),
(239,402,o),
(232,380,c),
(213,380,l),
(126,687,l),
(106,660,l),
(304,660,ls),
(389,660,o),
(443,617,o),
(443,520,cs),
(443,429,o),
(392,380,o),
(310,380,cs),
(293,380,l),
(341,365,l)
);
}
);
width = 569;
}
);
metricLeft = "kkeCarrier-canadian";
metricRight = "geCarrier-canadian";
note = uni15FF;
unicode = 5631;
},
{
color = 9;
glyphname = "kkaCarrier-canadian";
lastChange = "2023-01-13 15:28:10 +0000";
layers = (
{
layerId = "2974A4AB-0281-4EAC-B7D6-9B88228DB59B";
shapes = (
{
closed = 1;
nodes = (
(505,0,l),
(505,20,l),
(418,330,l),
(503,330,l),
(503,384,l),
(418,384,l),
(505,694,l),
(505,714,l),
(255,714,ls),
(138,714,o),
(62,648,o),
(62,525,cs),
(62,435,o),
(106,370,o),
(181,348,c),
(180,365,l),
(107,341,o),
(62,274,o),
(62,187,cs),
(62,65,o),
(137,0,o),
(255,0,cs)
);
},
{
closed = 1;
nodes = (
(460,54,l),
(265,54,ls),
(180,54,o),
(126,96,o),
(126,190,cs),
(126,283,o),
(181,330,o),
(263,330,cs),
(354,330,l),
(440,27,l)
);
},
{
closed = 1;
nodes = (
(179,384,o),
(126,431,o),
(126,523,cs),
(126,617,o),
(180,660,o),
(265,660,cs),
(461,660,l),
(441,687,l),
(356,384,l),
(264,384,ls)
);
}
);
width = 569;
}
);
metricLeft = "=|geCarrier-canadian";
metricRight = "=|kkeCarrier-canadian";
note = uni1600;
unicode = 5632;
},
{
color = 6;
glyphname = "kkCarrier-canadian";
lastChange = "2023-01-13 15:28:10 +0000";
layers = (
{
layerId = "2974A4AB-0281-4EAC-B7D6-9B88228DB59B";
shapes = (
{
closed = 1;
nodes = (
(164,189,l),
(283,534,l),
(283,546,l),
(239,546,l),
(142,242,l),
(173,242,l),
(75,546,l),
(32,546,l),
(32,534,l),
(151,189,l)
);
}
);
width = 314;
}
);
note = uni1601;
unicode = 5633;
},
{
color = 9;
glyphname = "nuCarrier-canadian";
lastChange = "2023-01-13 15:28:10 +0000";
layers = (
{
layerId = "2974A4AB-0281-4EAC-B7D6-9B88228DB59B";
shapes = (
{
closed = 1;
nodes = (
(420,-13,o),
(502,74,o),
(502,248,cs),
(502,309,l),
(439,309,l),
(439,244,ls),
(439,108,o),
(382,47,o),
(281,47,cs),
(184,47,o),
(125,110,o),
(125,239,cs),
(125,714,l),
(61,714,l),
(61,243,ls),
(61,75,o),
(147,-13,o),
(281,-13,cs)
);
}
);
width = 559;
}
);
metricLeft = "te-canadian";
note = uni1602;
unicode = 5634;
},
{
color = 9;
glyphname = "noCarrier-canadian";
lastChange = "2023-01-13 15:31:40 +0000";
layers = (
{
layerId = "2974A4AB-0281-4EAC-B7D6-9B88228DB59B";
shapes = (
{
closed = 1;
nodes = (
(497,0,l),
(497,471,ls),
(497,639,o),
(411,727,o),
(277,727,cs),
(138,727,o),
(57,640,o),
(57,466,cs),
(57,405,l),
(120,405,l),
(120,470,ls),
(120,606,o),
(176,667,o),
(277,667,cs),
(374,667,o),
(433,604,o),
(433,475,cs),
(433,0,l)
);
}
);
width = 558;
}
);
metricLeft = "=|nuCarrier-canadian";
metricRight = "te-canadian";
note = uni1603;
unicode = 5635;
},
{
color = 9;
glyphname = "neCarrier-canadian";
lastChange = "2023-01-13 15:31:40 +0000";
layers = (
{
anchors = (
{
name = middle_center_can;
pos = (228,357);
}
);
layerId = "2974A4AB-0281-4EAC-B7D6-9B88228DB59B";
shapes = (
{
closed = 1;
nodes = (
(210,0,ls),
(395,0,o),
(489,125,o),
(489,358,cs),
(489,591,o),
(398,714,o),
(195,714,cs),
(43,714,l),
(43,655,l),
(196,655,ls),
(359,655,o),
(426,557,o),
(426,358,cs),
(426,161,o),
(356,59,o),
(211,59,cs),
(207,59,l),
(207,0,l)
);
}
);
width = 541;
}
);
metricRight = "theCarrier-canadian";
note = uni1604;
unicode = 5636;
},
{
color = 9;
glyphname = "naCarrier-canadian";
lastChange = "2023-01-13 15:28:10 +0000";
layers = (
{
layerId = "2974A4AB-0281-4EAC-B7D6-9B88228DB59B";
shapes = (
{
closed = 1;
nodes = (
(499,0,l),
(499,59,l),
(346,59,ls),
(182,59,o),
(116,157,o),
(116,356,cs),
(116,553,o),
(186,655,o),
(331,655,cs),
(335,655,l),
(335,714,l),
(331,714,ls),
(147,714,o),
(52,589,o),
(52,356,cs),
(52,123,o),
(144,0,o),
(347,0,cs)
);
}
);
width = 542;
}
);
metricLeft = "=|theCarrier-canadian";
metricRight = "=|neCarrier-canadian";
note = uni1607;
unicode = 5639;
},
{
color = 9;
glyphname = "muCarrier-canadian";
lastChange = "2023-01-13 15:28:10 +0000";
layers = (
{
layerId = "2974A4AB-0281-4EAC-B7D6-9B88228DB59B";
shapes = (
{
closed = 1;
nodes = (
(279,-13,o),
(328,30,o),
(347,117,c),
(321,117,l),
(343,29,o),
(392,-13,o),
(460,-13,cs),
(551,-13,o),
(609,54,o),
(609,182,cs),
(609,402,l),
(548,402,l),
(548,185,ls),
(548,89,o),
(516,46,o),
(457,46,cs),
(398,46,o),
(364,91,o),
(364,185,cs),
(364,402,l),
(305,402,l),
(305,185,ls),
(305,89,o),
(271,46,o),
(212,46,cs),
(152,46,o),
(119,89,o),
(119,185,cs),
(119,714,l),
(58,714,l),
(58,184,ls),
(58,53,o),
(118,-13,o),
(209,-13,cs)
);
}
);
width = 667;
}
);
metricLeft = "guCarrier-canadian";
metricRight = "=|";
note = uni1608;
unicode = 5640;
},
{
color = 9;
glyphname = "moCarrier-canadian";
lastChange = "2023-01-13 15:28:10 +0000";
layers = (
{
layerId = "2974A4AB-0281-4EAC-B7D6-9B88228DB59B";
shapes = (
{
closed = 1;
nodes = (
(609,0,l),
(609,530,ls),
(609,661,o),
(549,727,o),
(458,727,cs),
(388,727,o),
(339,684,o),
(320,597,c),
(346,597,l),
(324,685,o),
(275,727,o),
(207,727,cs),
(117,727,o),
(58,660,o),
(58,532,cs),
(58,312,l),
(119,312,l),
(119,529,ls),
(119,624,o),
(152,668,o),
(211,668,cs),
(269,668,o),
(303,623,o),
(303,529,cs),
(303,312,l),
(362,312,l),
(362,529,ls),
(362,625,o),
(396,668,o),
(455,668,cs),
(516,668,o),
(548,625,o),
(548,529,cs),
(548,0,l)
);
}
);
width = 667;
}
);
metricLeft = "=|muCarrier-canadian";
metricRight = "guCarrier-canadian";
note = uni1609;
unicode = 5641;
},
{
color = 9;
glyphname = "meCarrier-canadian";
lastChange = "2023-01-13 15:31:40 +0000";
layers = (
{
layerId = "2974A4AB-0281-4EAC-B7D6-9B88228DB59B";
shapes = (
{
closed = 1;
nodes = (
(296,0,ls),
(415,0,o),
(489,65,o),
(489,187,cs),
(489,274,o),
(444,341,o),
(371,366,c),
(371,348,l),
(445,371,o),
(489,435,o),
(489,525,cs),
(489,648,o),
(414,714,o),
(296,714,cs),
(43,714,l),
(43,660,l),
(286,660,ls),
(372,660,o),
(426,617,o),
(426,523,cs),
(426,431,o),
(372,384,o),
(288,384,cs),
(223,384,l),
(223,330,l),
(288,330,ls),
(371,330,o),
(426,283,o),
(426,190,cs),
(426,96,o),
(372,54,o),
(286,54,cs),
(223,54,l),
(223,0,l)
);
}
);
width = 551;
}
);
metricLeft = "neCarrier-canadian";
metricRight = "geCarrier-canadian";
note = uni160A;
unicode = 5642;
},
{
color = 9;
glyphname = "meeCarrier-canadian";
lastChange = "2023-01-13 15:31:40 +0000";
layers = (
{
layerId = "2974A4AB-0281-4EAC-B7D6-9B88228DB59B";
shapes = (
{
closed = 1;
nodes = (
(296,0,ls),
(415,0,o),
(489,65,o),
(489,187,cs),
(489,274,o),
(444,341,o),
(371,365,c),
(371,348,l),
(445,370,o),
(489,435,o),
(489,525,cs),
(489,648,o),
(414,714,o),
(296,714,cs),
(43,714,l),
(43,660,l),
(286,660,ls),
(372,660,o),
(426,617,o),
(426,522,cs),
(426,430,o),
(374,383,o),
(292,383,cs),
(263,383,l),
(263,474,l),
(223,474,l),
(223,241,l),
(263,241,l),
(263,331,l),
(292,331,ls),
(373,331,o),
(426,284,o),
(426,191,cs),
(426,97,o),
(372,54,o),
(286,54,cs),
(223,54,l),
(223,0,l)
);
}
);
width = 551;
}
);
metricLeft = "neCarrier-canadian";
metricRight = "geCarrier-canadian";
note = uni160B;
unicode = 5643;
},
{
color = 9;
glyphname = "miCarrier-canadian";
lastChange = "2023-01-13 15:31:40 +0000";
layers = (
{
layerId = "2974A4AB-0281-4EAC-B7D6-9B88228DB59B";
shapes = (
{
closed = 1;
nodes = (
(296,0,ls),
(415,0,o),
(489,65,o),
(489,187,cs),
(489,274,o),
(444,341,o),
(371,365,c),
(371,348,l),
(445,370,o),
(489,435,o),
(489,525,cs),
(489,648,o),
(414,714,o),
(296,714,cs),
(43,714,l),
(43,660,l),
(286,660,ls),
(372,660,o),
(426,617,o),
(426,522,cs),
(426,430,o),
(374,383,o),
(295,383,cs),
(273,383,l),
(307,365,l),
(304,395,o),
(280,418,o),
(249,418,cs),
(215,418,o),
(189,390,o),
(189,357,cs),
(189,324,o),
(215,296,o),
(249,296,cs),
(279,296,o),
(304,320,o),
(307,349,c),
(273,331,l),
(294,331,ls),
(373,331,o),
(426,284,o),
(426,191,cs),
(426,97,o),
(372,54,o),
(286,54,cs),
(223,54,l),
(223,0,l)
);
}
);
width = 551;
}
);
metricLeft = "neCarrier-canadian";
metricRight = "geCarrier-canadian";
note = uni160C;
unicode = 5644;
},
{
color = 9;
glyphname = "maCarrier-canadian";
lastChange = "2023-01-13 15:28:10 +0000";
layers = (
{
layerId = "2974A4AB-0281-4EAC-B7D6-9B88228DB59B";
shapes = (
{
closed = 1;
nodes = (
(509,0,l),
(509,54,l),
(265,54,ls),
(180,54,o),
(126,96,o),
(126,190,cs),
(126,283,o),
(180,330,o),
(263,330,cs),
(329,330,l),
(329,384,l),
(264,384,ls),
(180,384,o),
(126,430,o),
(126,522,cs),
(126,617,o),
(180,660,o),
(265,660,cs),
(329,660,l),
(329,714,l),
(255,714,ls),
(137,714,o),
(62,649,o),
(62,525,cs),
(62,438,o),
(107,372,o),
(181,349,c),
(181,366,l),
(106,343,o),
(62,277,o),
(62,188,cs),
(62,66,o),
(138,0,o),
(255,0,cs)
);
}
);
width = 552;
}
);
metricLeft = "=|geCarrier-canadian";
metricRight = "=|neCarrier-canadian";
note = uni160D;
unicode = 5645;
},
{
color = 9;
glyphname = "yuCarrier-canadian";
lastChange = "2023-01-13 15:28:10 +0000";
layers = (
{
layerId = "2974A4AB-0281-4EAC-B7D6-9B88228DB59B";
shapes = (
{
closed = 1;
nodes = (
(453,-13,o),
(537,112,o),
(537,402,cs),
(537,627,o),
(482,727,o),
(384,727,cs),
(301,727,o),
(253,651,o),
(253,524,cs),
(253,399,o),
(301,326,o),
(382,326,cs),
(397,326,o),
(412,329,o),
(422,334,c),
(422,384,l),
(415,381,o),
(405,378,o),
(388,378,cs),
(333,378,o),
(307,426,o),
(307,526,cs),
(307,626,o),
(333,674,o),
(384,674,cs),
(445,674,o),
(477,601,o),
(477,403,cs),
(477,137,o),
(414,47,o),
(288,47,cs),
(185,47,o),
(125,110,o),
(125,242,cs),
(125,714,l),
(61,714,l),
(61,244,ls),
(61,74,o),
(149,-13,o),
(286,-13,cs)
);
}
);
width = 598;
}
);
metricLeft = "te-canadian";
metricRight = "te-canadian";
note = uni160E;
unicode = 5646;
},
{
color = 9;
glyphname = "yoCarrier-canadian";
lastChange = "2023-01-13 15:28:10 +0000";
layers = (
{
layerId = "2974A4AB-0281-4EAC-B7D6-9B88228DB59B";
shapes = (
{
closed = 1;
nodes = (
(298,-13,o),
(345,63,o),
(345,190,cs),
(345,315,o),
(298,388,o),
(216,388,cs),
(202,388,o),
(186,385,o),
(176,380,c),
(176,330,l),
(184,333,o),
(193,336,o),
(210,336,cs),
(265,336,o),
(291,288,o),
(291,188,cs),
(291,88,o),
(265,40,o),
(215,40,cs),
(153,40,o),
(122,113,o),
(122,311,cs),
(122,577,o),
(184,667,o),
(311,667,cs),
(413,667,o),
(473,604,o),
(473,472,cs),
(473,0,l),
(537,0,l),
(537,470,ls),
(537,640,o),
(449,727,o),
(313,727,cs),
(145,727,o),
(61,602,o),
(61,312,cs),
(61,87,o),
(117,-13,o),
(214,-13,cs)
);
}
);
width = 598;
}
);
metricLeft = "te-canadian";
metricRight = "te-canadian";
note = uni160F;
unicode = 5647;
},
{
color = 9;
glyphname = "yeCarrier-canadian";
lastChange = "2023-01-13 15:31:40 +0000";
layers = (
{
layerId = "2974A4AB-0281-4EAC-B7D6-9B88228DB59B";
shapes = (
{
closed = 1;
nodes = (
(403,-13,o),
(484,128,o),
(484,354,cs),
(484,591,o),
(393,714,o),
(189,714,cs),
(58,714,l),
(58,655,l),
(189,655,ls),
(354,655,o),
(421,557,o),
(421,353,cs),
(421,156,o),
(371,43,o),
(250,43,cs),
(142,43,o),
(100,115,o),
(100,215,cs),
(100,313,o),
(130,362,o),
(179,362,cs),
(228,362,o),
(255,313,o),
(255,223,cs),
(255,190,o),
(252,171,o),
(249,150,c),
(298,150,l),
(303,177,o),
(305,193,o),
(305,228,cs),
(305,343,o),
(260,415,o),
(178,415,cs),
(96,415,o),
(45,342,o),
(45,215,cs),
(45,89,o),
(109,-13,o),
(249,-13,cs)
);
}
);
width = 536;
}
);
metricRight = "theCarrier-canadian";
note = uni1610;
unicode = 5648;
},
{
color = 9;
glyphname = "yeeCarrier-canadian";
lastChange = "2023-01-13 15:31:40 +0000";
layers = (
{
layerId = "2974A4AB-0281-4EAC-B7D6-9B88228DB59B";
shapes = (
{
closed = 1;
nodes = (
(403,-13,o),
(484,128,o),
(484,354,cs),
(484,591,o),
(393,714,o),
(189,714,cs),
(58,714,l),
(58,655,l),
(189,655,ls),
(354,655,o),
(421,557,o),
(421,353,cs),
(421,156,o),
(371,43,o),
(248,43,cs),
(142,43,o),
(100,116,o),
(100,219,cs),
(100,312,o),
(128,362,o),
(172,362,cs),
(218,362,o),
(245,314,o),
(245,240,cs),
(245,180,l),
(280,180,l),
(280,521,l),
(245,521,l),
(245,303,l),
(255,303,l),
(248,374,o),
(213,415,o),
(161,415,cs),
(94,415,o),
(45,345,o),
(45,219,cs),
(45,89,o),
(109,-13,o),
(247,-13,cs)
);
}
);
width = 536;
}
);
metricRight = "theCarrier-canadian";
metricWidth = "yeCarrier-canadian";
note = uni1611;
unicode = 5649;
},
{
color = 9;
glyphname = "yiCarrier-canadian";
lastChange = "2023-01-13 15:31:40 +0000";
layers = (
{
layerId = "2974A4AB-0281-4EAC-B7D6-9B88228DB59B";
shapes = (
{
closed = 1;
nodes = (
(403,-13,o),
(484,128,o),
(484,354,cs),
(484,591,o),
(393,714,o),
(189,714,cs),
(58,714,l),
(58,655,l),
(189,655,ls),
(354,655,o),
(421,557,o),
(421,353,cs),
(421,156,o),
(371,43,o),
(252,43,cs),
(144,43,o),
(100,117,o),
(100,203,cs),
(100,288,o),
(131,335,o),
(175,337,c),
(160,348,l),
(163,322,o),
(189,299,o),
(219,299,cs),
(252,299,o),
(278,326,o),
(278,357,cs),
(278,389,o),
(252,415,o),
(219,415,cs),
(194,415,o),
(174,401,o),
(165,381,c),
(93,373,o),
(45,305,o),
(45,198,cs),
(45,89,o),
(109,-13,o),
(249,-13,cs)
);
}
);
width = 536;
}
);
metricRight = "theCarrier-canadian";
metricWidth = "yeCarrier-canadian";
note = uni1612;
unicode = 5650;
},
{
color = 9;
glyphname = "yaCarrier-canadian";
lastChange = "2023-01-13 15:31:40 +0000";
layers = (
{
layerId = "2974A4AB-0281-4EAC-B7D6-9B88228DB59B";
shapes = (
{
closed = 1;
nodes = (
(479,0,l),
(479,59,l),
(347,59,ls),
(182,59,o),
(116,157,o),
(116,361,cs),
(116,558,o),
(166,671,o),
(295,671,cs),
(394,671,o),
(436,599,o),
(436,499,cs),
(436,401,o),
(407,352,o),
(358,352,cs),
(308,352,o),
(282,401,o),
(282,491,cs),
(282,524,o),
(284,543,o),
(287,564,c),
(239,564,l),
(234,537,o),
(232,521,o),
(232,486,cs),
(232,371,o),
(277,299,o),
(359,299,cs),
(440,299,o),
(491,372,o),
(491,499,cs),
(491,625,o),
(427,727,o),
(296,727,cs),
(134,727,o),
(52,586,o),
(52,360,cs),
(52,123,o),
(143,0,o),
(348,0,cs)
);
}
);
width = 536;
}
);
metricLeft = "=|theCarrier-canadian";
metricRight = "=|yeCarrier-canadian";
note = uni1613;
unicode = 5651;
},
{
color = 9;
glyphname = "juCarrier-canadian";
lastChange = "2023-01-13 15:28:10 +0000";
layers = (
{
layerId = "2974A4AB-0281-4EAC-B7D6-9B88228DB59B";
shapes = (
{
closed = 1;
nodes = (
(441,-13,o),
(504,90,o),
(504,213,cs),
(504,342,o),
(453,415,o),
(371,415,cs),
(289,415,o),
(245,343,o),
(245,228,cs),
(245,193,o),
(247,175,o),
(252,150,c),
(300,150,l),
(297,170,o),
(295,191,o),
(295,223,cs),
(295,312,o),
(321,362,o),
(370,362,cs),
(420,362,o),
(449,312,o),
(449,213,cs),
(449,116,o),
(408,43,o),
(300,43,cs),
(184,43,o),
(121,135,o),
(121,312,cs),
(121,558,o),
(237,655,o),
(427,655,cs),
(492,655,l),
(492,714,l),
(51,714,l),
(51,657,l),
(310,657,l),
(358,682,l),
(182,682,o),
(58,557,o),
(58,310,cs),
(58,108,o),
(149,-13,o),
(296,-13,cs)
);
}
);
width = 549;
}
);
metricRight = "=|yeCarrier-canadian";
note = uni1614;
unicode = 5652;
},
{
color = 9;
glyphname = "juSayisi-canadian";
lastChange = "2023-01-13 15:28:10 +0000";
layers = (
{
anchors = (
{
name = top_center_can;
pos = (278,714);
}
);
layerId = "2974A4AB-0281-4EAC-B7D6-9B88228DB59B";
shapes = (
{
closed = 1;
nodes = (
(400,-13,o),
(492,108,o),
(492,310,cs),
(492,557,o),
(368,682,o),
(191,682,c),
(240,657,l),
(498,657,l),
(498,714,l),
(58,714,l),
(58,655,l),
(123,655,ls),
(312,655,o),
(428,558,o),
(428,312,cs),
(428,135,o),
(365,43,o),
(250,43,cs),
(141,43,o),
(100,116,o),
(100,213,cs),
(100,312,o),
(130,362,o),
(179,362,cs),
(228,362,o),
(255,312,o),
(255,223,cs),
(255,191,o),
(252,170,o),
(249,150,c),
(298,150,l),
(303,175,o),
(305,193,o),
(305,228,cs),
(305,343,o),
(260,415,o),
(178,415,cs),
(96,415,o),
(45,342,o),
(45,213,cs),
(45,90,o),
(108,-13,o),
(253,-13,cs)
);
}
);
width = 549;
}
);
metricLeft = "yeCarrier-canadian";
metricRight = "=|juCarrier-canadian";
note = uni1615;
unicode = 5653;
},
{
color = 9;
glyphname = "joCarrier-canadian";
lastChange = "2023-01-13 15:28:10 +0000";
layers = (
{
layerId = "2974A4AB-0281-4EAC-B7D6-9B88228DB59B";
shapes = (
{
closed = 1;
nodes = (
(498,0,l),
(498,57,l),
(240,57,l),
(191,32,l),
(368,32,o),
(492,157,o),
(492,404,cs),
(492,606,o),
(400,727,o),
(253,727,cs),
(108,727,o),
(45,624,o),
(45,501,cs),
(45,372,o),
(96,299,o),
(178,299,cs),
(260,299,o),
(305,371,o),
(305,486,cs),
(305,521,o),
(303,539,o),
(298,564,c),
(249,564,l),
(252,544,o),
(255,523,o),
(255,491,cs),
(255,402,o),
(228,352,o),
(179,352,cs),
(130,352,o),
(100,402,o),
(100,501,cs),
(100,598,o),
(141,671,o),
(250,671,cs),
(365,671,o),
(428,579,o),
(428,402,cs),
(428,156,o),
(312,59,o),
(123,59,cs),
(58,59,l),
(58,0,l)
);
}
);
width = 549;
}
);
metricLeft = "yeCarrier-canadian";
metricRight = "=|juCarrier-canadian";
note = uni1616;
unicode = 5654;
},
{
color = 9;
glyphname = "jeCarrier-canadian";
lastChange = "2023-01-13 15:31:40 +0000";
layers = (
{
layerId = "2974A4AB-0281-4EAC-B7D6-9B88228DB59B";
shapes = (
{
closed = 1;
nodes = (
(485,-13,o),
(540,87,o),
(540,312,cs),
(540,587,o),
(452,727,o),
(317,727,cs),
(181,727,o),
(113,604,o),
(109,386,c),
(128,391,l),
(128,714,l),
(65,714,l),
(65,0,l),
(128,0,l),
(128,294,ls),
(128,558,o),
(193,667,o),
(307,667,cs),
(412,667,o),
(480,559,o),
(480,312,cs),
(480,113,o),
(449,40,o),
(387,40,cs),
(338,40,o),
(311,88,o),
(311,188,cs),
(311,288,o),
(336,336,o),
(395,336,cs),
(409,336,o),
(418,333,o),
(425,330,c),
(425,380,l),
(416,385,o),
(400,388,o),
(388,388,cs),
(304,388,o),
(257,315,o),
(257,190,cs),
(257,63,o),
(304,-13,o),
(388,-13,cs)
);
}
);
width = 601;
}
);
metricLeft = "nunavuth-canadian";
metricRight = "te-canadian";
note = uni1617;
unicode = 5655;
},
{
color = 9;
glyphname = "jeeCarrier-canadian";
lastChange = "2023-01-13 15:31:40 +0000";
layers = (
{
layerId = "2974A4AB-0281-4EAC-B7D6-9B88228DB59B";
shapes = (
{
closed = 1;
nodes = (
(485,-13,o),
(540,89,o),
(540,312,cs),
(540,587,o),
(452,727,o),
(317,727,cs),
(210,727,o),
(145,651,o),
(120,513,c),
(128,507,l),
(128,714,l),
(65,714,l),
(65,0,l),
(128,0,l),
(128,294,ls),
(128,558,o),
(193,667,o),
(307,667,cs),
(412,667,o),
(480,559,o),
(480,312,cs),
(480,117,o),
(446,40,o),
(378,40,cs),
(324,40,o),
(292,92,o),
(292,191,cs),
(292,279,o),
(314,329,o),
(355,341,c),
(355,246,l),
(391,246,l),
(391,465,l),
(355,465,l),
(355,379,l),
(297,365,o),
(257,302,o),
(257,188,cs),
(257,62,o),
(304,-13,o),
(388,-13,cs)
);
}
);
width = 601;
}
);
metricLeft = "nunavuth-canadian";
metricRight = "jeCarrier-canadian";
note = uni1618;
unicode = 5656;
},
{
color = 9;
glyphname = "jiCarrier-canadian";
lastChange = "2023-01-13 15:31:40 +0000";
layers = (
{
layerId = "2974A4AB-0281-4EAC-B7D6-9B88228DB59B";
shapes = (
{
closed = 1;
nodes = (
(485,-13,o),
(540,89,o),
(540,312,cs),
(540,587,o),
(452,727,o),
(317,727,cs),
(210,727,o),
(145,651,o),
(120,514,c),
(128,508,l),
(128,714,l),
(65,714,l),
(65,0,l),
(128,0,l),
(128,294,ls),
(128,558,o),
(193,667,o),
(307,667,cs),
(412,667,o),
(480,559,o),
(480,312,cs),
(480,117,o),
(446,40,o),
(378,40,cs),
(324,40,o),
(292,92,o),
(292,191,cs),
(292,260,o),
(306,301,o),
(332,321,c),
(339,307,o),
(353,297,o),
(371,297,cs),
(401,297,o),
(426,323,o),
(426,355,cs),
(426,386,o),
(401,412,o),
(371,412,cs),
(336,412,o),
(315,380,o),
(318,353,c),
(280,329,o),
(257,274,o),
(257,188,cs),
(257,62,o),
(304,-13,o),
(388,-13,cs)
);
}
);
width = 601;
}
);
metricLeft = "nunavuth-canadian";
metricRight = "jeCarrier-canadian";
note = uni1619;
unicode = 5657;
},
{
color = 9;
glyphname = "jiSayisi-canadian";
lastChange = "2023-01-13 15:31:40 +0000";
layers = (
{
layerId = "2974A4AB-0281-4EAC-B7D6-9B88228DB59B";
shapes = (
{
closed = 1;
nodes = (
(452,-13,o),
(540,127,o),
(540,402,cs),
(540,627,o),
(485,727,o),
(388,727,cs),
(304,727,o),
(257,651,o),
(257,524,cs),
(257,399,o),
(304,326,o),
(388,326,cs),
(400,326,o),
(416,329,o),
(425,334,c),
(425,384,l),
(418,381,o),
(409,378,o),
(395,378,cs),
(336,378,o),
(311,426,o),
(311,526,cs),
(311,626,o),
(338,674,o),
(387,674,cs),
(449,674,o),
(480,601,o),
(480,402,cs),
(480,155,o),
(412,47,o),
(307,47,cs),
(193,47,o),
(128,156,o),
(128,420,cs),
(128,714,l),
(65,714,l),
(65,0,l),
(128,0,l),
(128,323,l),
(109,328,l),
(113,110,o),
(181,-13,o),
(317,-13,cs)
);
}
);
width = 601;
}
);
metricLeft = "nunavuth-canadian";
metricRight = "jeCarrier-canadian";
note = uni161A;
unicode = 5658;
},
{
color = 9;
glyphname = "jaCarrier-canadian";
lastChange = "2023-01-13 15:28:10 +0000";
layers = (
{
anchors = (
{
name = top_center_can;
pos = (294,714);
}
);
layerId = "2974A4AB-0281-4EAC-B7D6-9B88228DB59B";
shapes = (
{
closed = 1;
nodes = (
(420,-13,o),
(489,110,o),
(492,328,c),
(474,323,l),
(474,0,l),
(537,0,l),
(537,714,l),
(473,714,l),
(473,420,ls),
(473,156,o),
(409,47,o),
(294,47,cs),
(189,47,o),
(122,155,o),
(122,402,cs),
(122,601,o),
(153,674,o),
(215,674,cs),
(263,674,o),
(291,626,o),
(291,526,cs),
(291,426,o),
(265,378,o),
(207,378,cs),
(193,378,o),
(184,381,o),
(176,384,c),
(176,334,l),
(186,329,o),
(202,326,o),
(214,326,cs),
(298,326,o),
(345,399,o),
(345,524,cs),
(345,651,o),
(298,727,o),
(214,727,cs),
(117,727,o),
(61,627,o),
(61,402,cs),
(61,127,o),
(150,-13,o),
(285,-13,cs)
);
}
);
width = 602;
}
);
metricLeft = "=|jeCarrier-canadian";
metricRight = "nunavuth-canadian";
note = uni161B;
unicode = 5659;
},
{
color = 9;
glyphname = "jjuCarrier-canadian";
lastChange = "2023-01-13 15:28:10 +0000";
layers = (
{
layerId = "2974A4AB-0281-4EAC-B7D6-9B88228DB59B";
shapes = (
{
closed = 1;
nodes = (
(434,-13,o),
(498,89,o),
(498,215,cs),
(498,342,o),
(447,415,o),
(366,415,cs),
(284,415,o),
(239,343,o),
(239,228,cs),
(239,196,o),
(241,175,o),
(246,150,c),
(294,150,l),
(291,170,o),
(289,192,o),
(289,223,cs),
(289,312,o),
(315,362,o),
(365,362,cs),
(412,362,o),
(443,309,o),
(443,215,cs),
(443,114,o),
(402,42,o),
(297,42,cs),
(187,42,o),
(123,132,o),
(123,322,cs),
(123,548,o),
(223,655,o),
(397,655,cs),
(486,655,l),
(486,714,l),
(396,714,ls),
(300,714,o),
(224,686,o),
(169,633,c),
(76,727,l),
(34,686,l),
(130,589,l),
(83,526,o),
(60,436,o),
(60,324,cs),
(60,106,o),
(154,-13,o),
(294,-13,cs)
);
}
);
width = 543;
}
);
metricRight = "=|yeCarrier-canadian";
note = uni161C;
unicode = 5660;
},
{
color = 9;
glyphname = "jjoCarrier-canadian";
lastChange = "2023-01-13 15:31:40 +0000";
layers = (
{
layerId = "2974A4AB-0281-4EAC-B7D6-9B88228DB59B";
shapes = (
{
closed = 1;
nodes = (
(510,28,l),
(413,125,l),
(460,188,o),
(483,278,o),
(483,390,cs),
(483,608,o),
(390,727,o),
(250,727,cs),
(109,727,o),
(45,625,o),
(45,499,cs),
(45,372,o),
(96,299,o),
(178,299,cs),
(260,299,o),
(304,371,o),
(304,486,cs),
(304,518,o),
(302,539,o),
(298,564,c),
(249,564,l),
(252,544,o),
(255,522,o),
(255,491,cs),
(255,402,o),
(228,352,o),
(179,352,cs),
(132,352,o),
(100,405,o),
(100,499,cs),
(100,600,o),
(142,672,o),
(246,672,cs),
(357,672,o),
(420,582,o),
(420,392,cs),
(420,166,o),
(320,59,o),
(146,59,cs),
(58,59,l),
(58,0,l),
(147,0,ls),
(243,0,o),
(319,28,o),
(375,81,c),
(468,-13,l)
);
}
);
width = 544;
}
);
metricLeft = "yeCarrier-canadian";
metricRight = "=|jjuCarrier-canadian";
note = uni161D;
unicode = 5661;
},
{
color = 9;
glyphname = "jjeCarrier-canadian";
lastChange = "2023-01-13 15:28:10 +0000";
layers = (
{
layerId = "2974A4AB-0281-4EAC-B7D6-9B88228DB59B";
shapes = (
{
closed = 1;
nodes = (
(487,-13,o),
(543,87,o),
(543,312,cs),
(543,602,o),
(461,727,o),
(296,727,cs),
(232,727,o),
(178,702,o),
(138,655,c),
(64,727,l),
(25,683,l),
(106,606,l),
(81,558,o),
(67,495,o),
(67,417,cs),
(67,0,l),
(130,0,l),
(130,420,ls),
(130,584,o),
(191,667,o),
(296,667,cs),
(420,667,o),
(482,577,o),
(482,311,cs),
(482,113,o),
(451,40,o),
(389,40,cs),
(339,40,o),
(313,88,o),
(313,188,cs),
(313,288,o),
(338,336,o),
(394,336,cs),
(411,336,o),
(420,333,o),
(428,330,c),
(428,380,l),
(418,385,o),
(402,388,o),
(387,388,cs),
(306,388,o),
(259,315,o),
(259,190,cs),
(259,63,o),
(306,-13,o),
(390,-13,cs)
);
}
);
width = 604;
}
);
metricRight = "jeCarrier-canadian";
note = uni161E;
unicode = 5662;
},
{
color = 9;
glyphname = "jjeeCarrier-canadian";
lastChange = "2023-01-13 15:28:10 +0000";
layers = (
{
layerId = "2974A4AB-0281-4EAC-B7D6-9B88228DB59B";
shapes = (
{
closed = 1;
nodes = (
(487,-13,o),
(543,89,o),
(543,312,cs),
(543,602,o),
(461,727,o),
(296,727,cs),
(232,727,o),
(178,702,o),
(138,655,c),
(64,727,l),
(25,683,l),
(106,606,l),
(81,558,o),
(67,495,o),
(67,417,cs),
(67,0,l),
(130,0,l),
(130,420,ls),
(130,584,o),
(191,667,o),
(295,667,cs),
(420,667,o),
(482,577,o),
(482,311,cs),
(482,116,o),
(448,40,o),
(381,40,cs),
(325,40,o),
(294,92,o),
(294,191,cs),
(294,285,o),
(317,329,o),
(358,341,c),
(358,246,l),
(394,246,l),
(394,465,l),
(358,465,l),
(358,379,l),
(301,368,o),
(259,303,o),
(259,188,cs),
(259,62,o),
(306,-13,o),
(390,-13,cs)
);
}
);
width = 604;
}
);
metricLeft = "jjeCarrier-canadian";
metricRight = "jeCarrier-canadian";
note = uni161F;
unicode = 5663;
},
{
color = 9;
glyphname = "jjiCarrier-canadian";
lastChange = "2023-01-13 15:28:10 +0000";
layers = (
{
layerId = "2974A4AB-0281-4EAC-B7D6-9B88228DB59B";
shapes = (
{
closed = 1;
nodes = (
(487,-13,o),
(543,89,o),
(543,312,cs),
(543,602,o),
(461,727,o),
(296,727,cs),
(232,727,o),
(178,702,o),
(138,655,c),
(64,727,l),
(25,683,l),
(106,606,l),
(81,558,o),
(67,495,o),
(67,417,cs),
(67,0,l),
(130,0,l),
(130,420,ls),
(130,584,o),
(191,667,o),
(295,667,cs),
(420,667,o),
(482,577,o),
(482,311,cs),
(482,116,o),
(448,40,o),
(381,40,cs),
(325,40,o),
(294,92,o),
(294,191,cs),
(294,263,o),
(308,302,o),
(334,320,c),
(340,307,o),
(356,297,o),
(372,297,cs),
(403,297,o),
(428,323,o),
(428,355,cs),
(428,386,o),
(403,412,o),
(372,412,cs),
(339,412,o),
(317,381,o),
(320,353,c),
(283,330,o),
(259,275,o),
(259,188,cs),
(259,62,o),
(306,-13,o),
(390,-13,cs)
);
}
);
width = 604;
}
);
metricLeft = "jjeCarrier-canadian";
metricRight = "jeCarrier-canadian";
note = uni1620;
unicode = 5664;
},
{
color = 9;
glyphname = "jjaCarrier-canadian";
lastChange = "2023-01-13 15:28:10 +0000";
layers = (
{
layerId = "2974A4AB-0281-4EAC-B7D6-9B88228DB59B";
shapes = (
{
closed = 1;
nodes = (
(372,-13,o),
(426,12,o),
(466,59,c),
(540,-13,l),
(579,31,l),
(498,108,l),
(523,156,o),
(537,219,o),
(537,297,cs),
(537,714,l),
(473,714,l),
(473,294,ls),
(473,130,o),
(413,47,o),
(308,47,cs),
(184,47,o),
(122,137,o),
(122,403,cs),
(122,601,o),
(153,674,o),
(215,674,cs),
(265,674,o),
(291,626,o),
(291,526,cs),
(291,426,o),
(265,378,o),
(210,378,cs),
(193,378,o),
(184,381,o),
(176,384,c),
(176,334,l),
(186,329,o),
(202,326,o),
(216,326,cs),
(298,326,o),
(345,399,o),
(345,524,cs),
(345,651,o),
(298,727,o),
(214,727,cs),
(117,727,o),
(61,627,o),
(61,402,cs),
(61,112,o),
(143,-13,o),
(308,-13,cs)
);
}
);
width = 604;
}
);
metricLeft = "=|jeCarrier-canadian";
metricRight = "=|jjeCarrier-canadian";
note = uni1621;
unicode = 5665;
},
{
color = 9;
glyphname = "luCarrier-canadian";
lastChange = "2023-01-13 15:28:10 +0000";
layers = (
{
layerId = "2974A4AB-0281-4EAC-B7D6-9B88228DB59B";
shapes = (
{
closed = 1;
nodes = (
(410,-13,o),
(496,64,o),
(496,251,cs),
(496,714,l),
(433,714,l),
(433,251,ls),
(433,99,o),
(370,46,o),
(285,46,cs),
(162,46,o),
(119,156,o),
(119,335,cs),
(119,544,o),
(171,644,o),
(299,662,c),
(299,714,l),
(49,714,l),
(49,661,l),
(219,661,l),
(256,678,l),
(133,662,o),
(56,560,o),
(56,328,cs),
(56,117,o),
(124,-13,o),
(284,-13,cs)
);
}
);
width = 557;
}
);
metricRight = "te-canadian";
note = uni1622;
unicode = 5666;
},
{
color = 9;
glyphname = "loCarrier-canadian";
lastChange = "2023-01-13 15:28:10 +0000";
layers = (
{
layerId = "2974A4AB-0281-4EAC-B7D6-9B88228DB59B";
shapes = (
{
closed = 1;
nodes = (
(125,0,l),
(125,463,ls),
(125,615,o),
(187,668,o),
(273,668,cs),
(396,668,o),
(438,558,o),
(438,379,cs),
(438,170,o),
(386,70,o),
(258,52,c),
(258,0,l),
(508,0,l),
(508,53,l),
(338,53,l),
(302,36,l),
(425,52,o),
(502,154,o),
(502,386,cs),
(502,597,o),
(434,727,o),
(273,727,cs),
(147,727,o),
(61,650,o),
(61,463,cs),
(61,0,l)
);
}
);
width = 557;
}
);
metricLeft = "te-canadian";
metricRight = "=|luCarrier-canadian";
note = uni1623;
unicode = 5667;
},
{
color = 9;
glyphname = "leCarrier-canadian";
lastChange = "2023-01-13 15:28:10 +0000";
layers = (
{
anchors = (
{
name = middle_center_can;
pos = (269,357);
}
);
layerId = "2974A4AB-0281-4EAC-B7D6-9B88228DB59B";
shapes = (
{
closed = 1;
nodes = (
(200,0,ls),
(397,0,o),
(489,125,o),
(489,369,cs),
(489,611,o),
(398,727,o),
(284,727,cs),
(179,727,o),
(127,640,o),
(111,529,c),
(119,531,l),
(119,714,l),
(62,714,l),
(62,399,l),
(116,399,l),
(117,556,o),
(168,667,o),
(270,667,cs),
(363,667,o),
(425,576,o),
(425,369,cs),
(425,161,o),
(361,59,o),
(201,59,cs),
(62,59,l),
(62,0,l)
);
}
);
width = 541;
}
);
metricRight = "theCarrier-canadian";
note = uni1624;
unicode = 5668;
},
{
color = 9;
glyphname = "laCarrier-canadian";
lastChange = "2023-01-13 15:28:10 +0000";
layers = (
{
layerId = "2974A4AB-0281-4EAC-B7D6-9B88228DB59B";
shapes = (
{
closed = 1;
nodes = (
(479,0,l),
(479,59,l),
(340,59,ls),
(180,59,o),
(116,161,o),
(116,369,cs),
(116,576,o),
(178,667,o),
(271,667,cs),
(373,667,o),
(424,556,o),
(425,399,c),
(479,399,l),
(479,714,l),
(422,714,l),
(422,531,l),
(430,529,l),
(413,640,o),
(362,727,o),
(257,727,cs),
(143,727,o),
(52,611,o),
(52,369,cs),
(52,125,o),
(144,0,o),
(341,0,cs)
);
}
);
width = 541;
}
);
metricLeft = "=|theCarrier-canadian";
metricRight = "=|leCarrier-canadian";
note = uni1627;
unicode = 5671;
},
{
color = 1;
glyphname = "dluCarrier-canadian";
lastChange = "2023-01-13 15:28:10 +0000";
layers = (
{
layerId = "2974A4AB-0281-4EAC-B7D6-9B88228DB59B";
shapes = (
{
closed = 1;
nodes = (
(434,-13,o),
(502,117,o),
(502,328,cs),
(502,540,o),
(438,643,o),
(336,670,c),
(323,664,l),
(499,664,l),
(499,578,l),
(547,578,l),
(547,800,l),
(499,800,l),
(499,714,l),
(258,714,l),
(258,662,l),
(386,644,o),
(438,544,o),
(438,335,cs),
(438,156,o),
(396,46,o),
(273,46,cs),
(187,46,o),
(125,99,o),
(125,250,cs),
(125,714,l),
(61,714,l),
(61,251,ls),
(61,64,o),
(147,-13,o),
(273,-13,cs)
);
}
);
width = 581;
}
);
metricLeft = "te-canadian";
note = uni1628;
unicode = 5672;
},
{
color = 9;
glyphname = "dloCarrier-canadian";
lastChange = "2023-01-13 15:28:10 +0000";
layers = (
{
layerId = "2974A4AB-0281-4EAC-B7D6-9B88228DB59B";
shapes = (
{
closed = 1;
nodes = (
(547,-86,l),
(547,136,l),
(499,136,l),
(499,50,l),
(323,50,l),
(336,44,l),
(438,71,o),
(502,174,o),
(502,386,cs),
(502,597,o),
(434,727,o),
(273,727,cs),
(147,727,o),
(61,650,o),
(61,463,cs),
(61,0,l),
(125,0,l),
(125,464,ls),
(125,615,o),
(187,668,o),
(273,668,cs),
(396,668,o),
(438,558,o),
(438,379,cs),
(438,170,o),
(386,70,o),
(258,52,c),
(258,0,l),
(499,0,l),
(499,-86,l)
);
}
);
width = 581;
}
);
metricLeft = "te-canadian";
metricRight = "dluCarrier-canadian";
note = uni1629;
unicode = 5673;
},
{
color = 9;
glyphname = "dleCarrier-canadian";
lastChange = "2023-01-13 15:28:10 +0000";
layers = (
{
anchors = (
{
name = middle_center_can;
pos = (281,357);
}
);
layerId = "2974A4AB-0281-4EAC-B7D6-9B88228DB59B";
shapes = (
{
closed = 1;
nodes = (
(211,0,ls),
(408,0,o),
(500,125,o),
(500,369,cs),
(500,611,o),
(409,727,o),
(295,727,cs),
(196,727,o),
(136,649,o),
(115,528,c),
(121,525,l),
(121,729,l),
(184,729,l),
(184,776,l),
(11,776,l),
(11,729,l),
(73,729,l),
(73,399,l),
(127,399,l),
(128,556,o),
(179,667,o),
(281,667,cs),
(373,667,o),
(436,576,o),
(436,369,cs),
(436,161,o),
(372,59,o),
(212,59,cs),
(72.998,58.992,l),
(72.998,0,l)
);
}
);
width = 552;
}
);
metricRight = "theCarrier-canadian";
note = uni162A;
unicode = 5674;
},
{
color = 9;
glyphname = "dlaCarrier-canadian";
lastChange = "2023-01-13 15:28:10 +0000";
layers = (
{
layerId = "2974A4AB-0281-4EAC-B7D6-9B88228DB59B";
shapes = (
{
closed = 1;
nodes = (
(479,0,l),
(479,59,l),
(340,59,ls),
(180,59,o),
(116,161,o),
(116,369,cs),
(116,576,o),
(179,667,o),
(271,667,cs),
(373,667,o),
(424,556,o),
(425,399,c),
(479,399,l),
(479,729,l),
(541,729,l),
(541,776,l),
(368,776,l),
(368,729,l),
(431,729,l),
(431,525,l),
(437,528,l),
(416,649,o),
(356,727,o),
(257,727,cs),
(143,727,o),
(52,611,o),
(52,369,cs),
(52,125,o),
(144,0,o),
(341,0,cs)
);
}
);
width = 552;
}
);
metricLeft = "=|theCarrier-canadian";
metricRight = "=|dleCarrier-canadian";
note = uni162D;
unicode = 5677;
},
{
color = 9;
glyphname = "lhuCarrier-canadian";
lastChange = "2023-01-13 15:28:10 +0000";
layers = (
{
layerId = "2974A4AB-0281-4EAC-B7D6-9B88228DB59B";
shapes = (
{
closed = 1;
nodes = (
(448,-13,o),
(524,108,o),
(524,327,cs),
(524,523,o),
(465,643,o),
(357,682,c),
(379,661,l),
(531,661,l),
(531,714,l),
(336,714,l),
(336,662,l),
(421,623,o),
(461,510,o),
(461,338,cs),
(461,138,o),
(410,46,o),
(290,46,cs),
(170,46,o),
(120,138,o),
(120,338,cs),
(120,511,o),
(160,624,o),
(245,662,c),
(245,714,l),
(49,714,l),
(49,661,l),
(201,661,l),
(223,682,l),
(115,643,o),
(56,525,o),
(56,327,cs),
(56,108,o),
(132,-13,o),
(290,-13,cs)
);
}
);
width = 580;
}
);
metricLeft = "luCarrier-canadian";
metricRight = "=|";
note = uni162E;
unicode = 5678;
},
{
color = 9;
glyphname = "lhoCarrier-canadian";
lastChange = "2023-01-13 15:28:10 +0000";
layers = (
{
layerId = "2974A4AB-0281-4EAC-B7D6-9B88228DB59B";
shapes = (
{
closed = 1;
nodes = (
(244,0,l),
(244,52,l),
(159,91,o),
(119,204,o),
(119,376,cs),
(119,576,o),
(170,668,o),
(290,668,cs),
(410,668,o),
(460,576,o),
(460,376,cs),
(460,203,o),
(420,90,o),
(335,52,c),
(335,0,l),
(531,0,l),
(531,53,l),
(379,53,l),
(356,32,l),
(465,71,o),
(524,189,o),
(524,387,cs),
(524,606,o),
(448,727,o),
(290,727,cs),
(132,727,o),
(56,606,o),
(56,387,cs),
(56,191,o),
(115,71,o),
(223,32,c),
(201,53,l),
(49,53,l),
(49,0,l)
);
}
);
width = 580;
}
);
metricLeft = "luCarrier-canadian";
metricRight = "=|";
note = uni162F;
unicode = 5679;
},
{
color = 9;
glyphname = "lheCarrier-canadian";
lastChange = "2023-01-13 15:28:10 +0000";
layers = (
{
anchors = (
{
name = middle_center_can;
pos = (283,357);
}
);
layerId = "2974A4AB-0281-4EAC-B7D6-9B88228DB59B";
shapes = (
{
closed = 1;
nodes = (
(417,-13,o),
(511,103,o),
(511,357,cs),
(511,611,o),
(417,727,o),
(297,727,cs),
(187,727,o),
(131,645,o),
(116,548,c),
(121,547,l),
(121,714,l),
(65,714,l),
(65,434,l),
(118,434,l),
(124,564,o),
(169,667,o),
(283,667,cs),
(381,667,o),
(447,576,o),
(447,357,cs),
(447,138,o),
(381,47,o),
(283,47,cs),
(169,47,o),
(124,150,o),
(118,280,c),
(65,280,l),
(65,0,l),
(121,0,l),
(121,167,l),
(116,166,l),
(131,69,o),
(187,-13,o),
(297,-13,cs)
);
}
);
width = 563;
}
);
metricLeft = "nunavuth-canadian";
metricRight = "theCarrier-canadian";
note = uni1630;
unicode = 5680;
},
{
color = 9;
glyphname = "lhaCarrier-canadian";
lastChange = "2023-01-13 15:31:40 +0000";
layers = (
{
layerId = "2974A4AB-0281-4EAC-B7D6-9B88228DB59B";
shapes = (
{
closed = 1;
nodes = (
(376,-13,o),
(432,69,o),
(447,166,c),
(442,167,l),
(442,0,l),
(499,0,l),
(499,280,l),
(445,280,l),
(439,150,o),
(394,47,o),
(280,47,cs),
(182,47,o),
(116,138,o),
(116,357,cs),
(116,576,o),
(182,667,o),
(280,667,cs),
(394,667,o),
(439,564,o),
(445,434,c),
(499,434,l),
(499,714,l),
(442,714,l),
(442,547,l),
(447,548,l),
(432,645,o),
(376,727,o),
(266,727,cs),
(146,727,o),
(52,611,o),
(52,357,cs),
(52,103,o),
(146,-13,o),
(266,-13,cs)
);
}
);
width = 564;
}
);
metricLeft = "=|theCarrier-canadian";
metricRight = "nunavuth-canadian";
note = uni1633;
unicode = 5683;
},
{
color = 9;
glyphname = "tlhuCarrier-canadian";
lastChange = "2023-01-13 15:28:10 +0000";
layers = (
{
layerId = "2974A4AB-0281-4EAC-B7D6-9B88228DB59B";
shapes = (
{
closed = 1;
nodes = (
(448,-13,o),
(524,108,o),
(524,327,cs),
(524,505,o),
(477,623,o),
(386,672,c),
(371,664,l),
(521,664,l),
(521,578,l),
(569,578,l),
(569,800,l),
(521,800,l),
(521.003,714,l),
(336,714,l),
(336,662,l),
(421,623,o),
(462,510,o),
(462,338,cs),
(462,138,o),
(410,46,o),
(290,46,cs),
(170,46,o),
(119,138,o),
(119,338,cs),
(119,511,o),
(159,624,o),
(245,662,c),
(245,714,l),
(49,714,l),
(49,661,l),
(207,661,l),
(190,669,l),
(101,619,o),
(56,504,o),
(56,327,cs),
(56,108,o),
(132,-13,o),
(290,-13,cs)
);
}
);
width = 602;
}
);
metricLeft = "lhuCarrier-canadian";
note = uni1634;
unicode = 5684;
},
{
color = 9;
glyphname = "tlhoCarrier-canadian";
lastChange = "2023-01-13 15:28:10 +0000";
layers = (
{
layerId = "2974A4AB-0281-4EAC-B7D6-9B88228DB59B";
shapes = (
{
closed = 1;
nodes = (
(81,-86,l),
(81,0,l),
(267,0,l),
(267,52,l),
(181,91,o),
(141,204,o),
(141,376,cs),
(141,576,o),
(192,668,o),
(313,668,cs),
(433,668,o),
(483,576,o),
(483,376,cs),
(483,203,o),
(443,90,o),
(358,52,c),
(358,0,l),
(553,0,l),
(553,53,l),
(396,53,l),
(412,45,l),
(501,95,o),
(546,210,o),
(546,387,cs),
(546,606,o),
(470,727,o),
(313,727,cs),
(155,727,o),
(79,606,o),
(79,387,cs),
(79,209,o),
(126,91,o),
(216,42,c),
(232,50,l),
(81,50,l),
(81,136,l),
(33,136,l),
(33,-86,l)
);
}
);
width = 602;
}
);
metricLeft = "=|tlhuCarrier-canadian";
metricRight = "lhuCarrier-canadian";
note = uni1635;
unicode = 5685;
},
{
color = 9;
glyphname = "tlheCarrier-canadian";
lastChange = "2023-01-13 15:31:40 +0000";
layers = (
{
anchors = (
{
name = middle_center_can;
pos = (292,357);
}
);
layerId = "2974A4AB-0281-4EAC-B7D6-9B88228DB59B";
shapes = (
{
closed = 1;
nodes = (
(425,-13,o),
(519,103,o),
(519,357,cs),
(519,611,o),
(425,727,o),
(305,727,cs),
(199,727,o),
(136,654,o),
(115,544,c),
(121,540,l),
(121,729,l),
(183,729,l),
(183,776,l),
(11,776,l),
(11,729,l),
(73,729,l),
(73,434,l),
(127,434,l),
(133,564,o),
(178,667,o),
(291,667,cs),
(390,667,o),
(456,579,o),
(456,357,cs),
(456,138,o),
(390,47,o),
(291,47,cs),
(178,47,o),
(133,150,o),
(127,280,c),
(73,280,l),
(72.998,0,l),
(130,0,l),
(130,168,l),
(125,160,l),
(143,64,o),
(198,-13,o),
(305,-13,cs)
);
}
);
width = 571;
}
);
metricLeft = "dleCarrier-canadian";
metricRight = "theCarrier-canadian";
note = uni1636;
unicode = 5686;
},
{
color = 9;
glyphname = "tlhaCarrier-canadian";
lastChange = "2023-01-13 15:28:10 +0000";
layers = (
{
layerId = "2974A4AB-0281-4EAC-B7D6-9B88228DB59B";
shapes = (
{
closed = 1;
nodes = (
(374,-13,o),
(429,64,o),
(447,160,c),
(442,168,l),
(442,0,l),
(499,0,l),
(499,280,l),
(445,280,l),
(439,150,o),
(394,47,o),
(280,47,cs),
(182,47,o),
(116,138,o),
(116,357,cs),
(116,579,o),
(182,667,o),
(280,667,cs),
(394,667,o),
(439,564,o),
(445,434,c),
(499,434,l),
(499,729,l),
(561,729,l),
(561,776,l),
(388,776,l),
(388,729,l),
(450,729,l),
(450,541,l),
(457,544,l),
(435,654,o),
(372,727,o),
(266,727,cs),
(146,727,o),
(52,611,o),
(52,357,cs),
(52,103,o),
(146,-13,o),
(266,-13,cs)
);
}
);
width = 572;
}
);
metricLeft = "=|theCarrier-canadian";
metricRight = "=|dleCarrier-canadian";
note = uni1639;
unicode = 5689;
},
{
color = 9;
glyphname = "tluCarrier-canadian";
lastChange = "2023-01-13 15:28:10 +0000";
layers = (
{
layerId = "2974A4AB-0281-4EAC-B7D6-9B88228DB59B";
shapes = (
{
closed = 1;
nodes = (
(277,-13,o),
(325,26,o),
(343,113,c),
(327,113,l),
(344,26,o),
(392,-13,o),
(451,-13,cs),
(549,-13,o),
(614,61,o),
(614,294,cs),
(614,528,o),
(563,633,o),
(469,671,c),
(454,664,l),
(611,664,l),
(611,578,l),
(659,578,l),
(659,800,l),
(611,800,l),
(611,714,l),
(381,714,l),
(381,662,l),
(500,657,o),
(550,548,o),
(550,296,cs),
(550,89,o),
(507,46,o),
(449,46,cs),
(399,46,o),
(365,91,o),
(365,196,cs),
(365,309,l),
(305,309,l),
(305,196,ls),
(305,91,o),
(270,46,o),
(220,46,cs),
(162,46,o),
(120,89,o),
(120,296,cs),
(120,548,o),
(170,657,o),
(289,662,c),
(289,714,l),
(50,714,l),
(50,661,l),
(213,661,l),
(197,669,l),
(106,629,o),
(56,526,o),
(56,294,cs),
(56,61,o),
(120,-13,o),
(218,-13,cs)
);
}
);
width = 692;
}
);
metricRight = "tlhuCarrier-canadian";
note = uni163A;
unicode = 5690;
},
{
color = 1;
glyphname = "tloCarrier-canadian";
lastChange = "2023-01-13 15:28:10 +0000";
layers = (
{
layerId = "2974A4AB-0281-4EAC-B7D6-9B88228DB59B";
shapes = (
{
closed = 1;
nodes = (
(659,-86,l),
(659,136,l),
(611,136,l),
(611,50,l),
(454,50,l),
(469,43,l),
(563,81,o),
(614,186,o),
(614,420,cs),
(614,653,o),
(549,727,o),
(451,727,cs),
(392,727,o),
(344,688,o),
(327,601,c),
(343,601,l),
(325,688,o),
(277,727,o),
(218,727,cs),
(120,727,o),
(56,653,o),
(56,420,cs),
(56,188,o),
(106,85,o),
(197,45,c),
(213,53,l),
(50,53,l),
(50,0,l),
(289,0,l),
(289,52,l),
(170,57,o),
(120,166,o),
(120,418,cs),
(120,625,o),
(162,668,o),
(220,668,cs),
(270,668,o),
(305,623,o),
(305,518,cs),
(305,405,l),
(365,405,l),
(365,518,ls),
(365,623,o),
(399,668,o),
(449,668,cs),
(507,668,o),
(550,625,o),
(550,418,cs),
(550,166,o),
(500,57,o),
(381,52,c),
(381,0,l),
(611,0,l),
(611,-86,l)
);
}
);
width = 692;
}
);
metricLeft = "tluCarrier-canadian";
metricRight = "tlhuCarrier-canadian";
note = uni163B;
unicode = 5691;
},
{
color = 9;
glyphname = "tleCarrier-canadian";
lastChange = "2023-01-13 15:28:10 +0000";
layers = (
{
anchors = (
{
name = middle_center_can;
pos = (228,357);
}
);
layerId = "2974A4AB-0281-4EAC-B7D6-9B88228DB59B";
shapes = (
{
closed = 1;
nodes = (
(436,-13,o),
(513,59,o),
(513,185,cs),
(513,279,o),
(469,346,o),
(391,362,c),
(391,352,l),
(469,368,o),
(513,435,o),
(513,529,cs),
(513,655,o),
(436,727,o),
(321,727,cs),
(205,727,o),
(134,655,o),
(115,550,c),
(121,544,l),
(121,729,l),
(184,729,l),
(184,776,l),
(11,776,l),
(11,729,l),
(73,729,l),
(73,434,l),
(125,434,l),
(127,569,o),
(173,669,o),
(306,669,cs),
(397,669,o),
(451,620,o),
(451,521,cs),
(451,434,o),
(409,384,o),
(339,384,cs),
(305,384,l),
(305,330,l),
(339,330,ls),
(408,330,o),
(451,280,o),
(451,194,cs),
(451,95,o),
(397,45,o),
(305,45,cs),
(173,45,o),
(127,145,o),
(125,280,c),
(73,280,l),
(72.998,0,l),
(130,0,l),
(130,159,l),
(121,151,l),
(143,55,o),
(209,-13,o),
(321,-13,cs)
);
}
);
width = 575;
}
);
metricLeft = "dleCarrier-canadian";
metricRight = "geCarrier-canadian";
note = uni163C;
unicode = 5692;
},
{
color = 9;
glyphname = "tlaCarrier-canadian";
lastChange = "2023-01-13 15:28:10 +0000";
layers = (
{
layerId = "2974A4AB-0281-4EAC-B7D6-9B88228DB59B";
shapes = (
{
closed = 1;
nodes = (
(366,-13,o),
(432,55,o),
(454,151,c),
(446,159,l),
(446,0,l),
(502,0,l),
(502,280,l),
(450,280,l),
(449,145,o),
(402,45,o),
(270,45,cs),
(178,45,o),
(124,95,o),
(124,194,cs),
(124,280,o),
(167,330,o),
(237,330,cs),
(268,330,l),
(268,384,l),
(237,384,ls),
(166,384,o),
(124,434,o),
(124,521,cs),
(124,620,o),
(179,669,o),
(269,669,cs),
(402,669,o),
(449,569,o),
(450,434,c),
(502,434,l),
(502,729,l),
(564,729,l),
(564,776,l),
(392,776,l),
(392,729,l),
(454,729,l),
(454,544,l),
(460,550,l),
(441,655,o),
(370,727,o),
(254,727,cs),
(139,727,o),
(62,655,o),
(62,529,cs),
(62,435,o),
(106,368,o),
(184,352,c),
(184,362,l),
(106,346,o),
(62,279,o),
(62,185,cs),
(62,59,o),
(139,-13,o),
(254,-13,cs)
);
}
);
width = 575;
}
);
metricLeft = "=|geCarrier-canadian";
metricRight = "=|dleCarrier-canadian";
note = uni163F;
unicode = 5695;
},
{
color = 9;
glyphname = "zuCarrier-canadian";
lastChange = "2023-01-13 15:28:10 +0000";
layers = (
{
layerId = "2974A4AB-0281-4EAC-B7D6-9B88228DB59B";
shapes = (
{
closed = 1;
nodes = (
(432,-13,o),
(522,79,o),
(522,236,cs),
(522,357,o),
(446,514,o),
(446,596,cs),
(446,626,o),
(458,659,o),
(508,659,cs),
(530,659,l),
(530,714,l),
(493,714,ls),
(416,714,o),
(385,668,o),
(385,603,cs),
(385,512,o),
(459,361,o),
(459,245,cs),
(459,117,o),
(398,47,o),
(288,47,cs),
(178,47,o),
(117,117,o),
(117,245,cs),
(117,361,o),
(192,512,o),
(192,603,cs),
(192,668,o),
(161,714,o),
(84,714,cs),
(47,714,l),
(47,659,l),
(68,659,ls),
(119,659,o),
(131,625,o),
(131,596,cs),
(131,514,o),
(54,357,o),
(54,236,cs),
(54,79,o),
(144,-13,o),
(288,-13,cs)
);
}
);
width = 577;
}
);
metricRight = "=|";
note = uni1640;
unicode = 5696;
},
{
color = 9;
glyphname = "zoCarrier-canadian";
lastChange = "2023-01-13 15:28:10 +0000";
layers = (
{
layerId = "2974A4AB-0281-4EAC-B7D6-9B88228DB59B";
shapes = (
{
closed = 1;
nodes = (
(84,0,ls),
(161,0,o),
(192,46,o),
(192,111,cs),
(192,202,o),
(118,353,o),
(118,469,cs),
(118,597,o),
(179,667,o),
(289,667,cs),
(399,667,o),
(460,597,o),
(460,469,cs),
(460,353,o),
(385,202,o),
(385,111,cs),
(385,46,o),
(416,0,o),
(493,0,cs),
(530,0,l),
(530,55,l),
(509,55,ls),
(458,55,o),
(446,89,o),
(446,118,cs),
(446,200,o),
(523,357,o),
(523,478,cs),
(523,635,o),
(433,727,o),
(289,727,cs),
(145,727,o),
(55,635,o),
(55,478,cs),
(55,357,o),
(131,200,o),
(131,118,cs),
(131,88,o),
(119,55,o),
(69,55,cs),
(47,55,l),
(47,0,l)
);
}
);
width = 577;
}
);
metricLeft = "zuCarrier-canadian";
metricRight = "zuCarrier-canadian";
note = uni1641;
unicode = 5697;
},
